/* XPM */
static char *aedf11dfbf95442aa35b4a703900b5a3kMIcJ3qKgEpbbyGd[] = {
/* columns rows colors chars-per-pixel */
"50 50 255 2 ",
"   c #1A0205",
".  c #180714",
"X  c #1F1617",
"o  c #280406",
"O  c #39161A",
"+  c #300E12",
"@  c #381828",
"#  c #220825",
"$  c #342525",
"%  c #490906",
"&  c #570604",
"*  c #491A18",
"=  c #581513",
"-  c #4B1110",
";  c #690705",
":  c #681602",
">  c #781903",
",  c #760E10",
"<  c #582818",
"1  c #542615",
"2  c #692817",
"3  c #6B2C12",
"4  c #571825",
"5  c #4A1723",
"6  c #462528",
"7  c #572827",
"8  c #4D2F38",
"9  c #552933",
"0  c #453939",
"q  c #57373A",
"w  c #5C3428",
"e  c #662926",
"r  c #69342A",
"t  c #7E3727",
"y  c #662A35",
"u  c #673538",
"i  c #7A3B39",
"p  c #732A2B",
"a  c #611A2A",
"s  c #5B4631",
"d  c #6B4639",
"f  c #784638",
"g  c #7B4931",
"h  c #563A42",
"j  c #723946",
"k  c #623F45",
"l  c #594A46",
"z  c #5A564C",
"x  c #535C55",
"c  c #5C5B56",
"v  c #59565B",
"b  c #565C5B",
"n  c #5A5E5D",
"m  c #575555",
"M  c #505150",
"N  c #674946",
"B  c #764A47",
"V  c #68574C",
"C  c #795849",
"Z  c #625B55",
"A  c #6C5A55",
"S  c #625D5C",
"D  c #6D5D5A",
"F  c #685558",
"G  c #765A58",
"H  c #4C625B",
"J  c #5C6255",
"K  c #55625C",
"L  c #5C615E",
"P  c #5B6A5D",
"I  c #54695E",
"U  c #53604F",
"Y  c #73674A",
"T  c #62625C",
"R  c #6B625B",
"E  c #666356",
"W  c #73635A",
"Q  c #7A6657",
"!  c #555E63",
"~  c #5C5D62",
"^  c #585B6A",
"/  c #625D64",
"(  c #675C65",
")  c #765D60",
"_  c #566362",
"`  c #5D6261",
"'  c #5C6963",
"]  c #5D6469",
"[  c #576767",
"{  c #55626E",
"}  c #626464",
"|  c #6A6362",
" . c #636966",
".. c #63646A",
"X. c #646A69",
"o. c #6B6C6C",
"O. c #6A6568",
"+. c #756767",
"@. c #6C6C72",
"#. c #756C74",
"$. c #777679",
"%. c #6E706F",
"&. c #8E1C09",
"*. c #AC1B11",
"=. c #962705",
"-. c #9A3505",
";. c #8C291A",
":. c #992717",
">. c #853012",
",. c #A92808",
"<. c #B8280A",
"1. c #B93708",
"2. c #A72818",
"3. c #B62918",
"4. c #A93819",
"5. c #B73619",
"6. c #AD330E",
"7. c #8B2D24",
"8. c #962A26",
"9. c #833523",
"0. c #973327",
"q. c #993A37",
"w. c #8B3136",
"e. c #A82A25",
"r. c #B63925",
"t. c #AE3032",
"y. c #C31B0E",
"u. c #C42208",
"i. c #C52D17",
"p. c #C73917",
"a. c #D73618",
"s. c #D1300B",
"d. c #C9342C",
"f. c #E03F22",
"g. c #BA410E",
"h. c #AD5012",
"j. c #BF631A",
"k. c #9C4927",
"l. c #8A4338",
"z. c #974A38",
"x. c #865839",
"c. c #9A5236",
"v. c #86482B",
"b. c #A84B2B",
"n. c #B84828",
"m. c #A74837",
"M. c #AA5936",
"N. c #B5562C",
"B. c #9B633E",
"V. c #BB6426",
"C. c #A4613A",
"Z. c #B96538",
"A. c #BC7E33",
"S. c #874016",
"D. c #C5451A",
"F. c #D25219",
"G. c #E55818",
"H. c #D86D13",
"J. c #C84526",
"K. c #CA5A29",
"L. c #D65629",
"P. c #C85938",
"I. c #D85535",
"U. c #D34631",
"Y. c #E55524",
"T. c #EC583A",
"R. c #EF542D",
"E. c #C96739",
"W. c #D76738",
"Q. c #D77539",
"!. c #D17128",
"~. c #E86B29",
"^. c #F96A26",
"/. c #E77327",
"(. c #E66838",
"). c #F76838",
"_. c #E77439",
"`. c #F67B38",
"'. c #F7732C",
"]. c #873D42",
"[. c #923841",
"{. c #CD3244",
"}. c #874847",
"|. c #964746",
" X c #88554A",
".X c #9B5B4A",
"XX c #885752",
"oX c #975654",
"OX c #844852",
"+X c #A55748",
"@X c #AD5A4B",
"#X c #986749",
"$X c #866A59",
"%X c #976659",
"&X c #916A4C",
"*X c #AD6447",
"=X c #B76A4C",
"-X c #A46658",
";X c #B47351",
":X c #856865",
">X c #8E6E74",
",X c #A6706C",
"<X c #905F62",
"1X c #CB5A44",
"2X c #C86843",
"3X c #C77247",
"4X c #D77645",
"5X c #D67B55",
"6X c #D2684D",
"7X c #ED6A43",
"8X c #F86846",
"9X c #E77845",
"0X c #F47846",
"qX c #F67252",
"wX c #CC7466",
"eX c #F67967",
"rX c #D08936",
"tX c #EB8F39",
"yX c #B58A67",
"uX c #D68247",
"iX c #D78D52",
"pX c #E48448",
"aX c #FC9C57",
"sX c #EC904E",
"dX c #DDA64C",
"fX c #E7A14F",
"gX c #FAA44D",
"hX c #FBA956",
"jX c #EEAC56",
"kX c #FD9766",
"lX c #F79978",
"zX c #FDA76B",
"xX c #F9B868",
"cX c #FFA873",
"vX c #FDB979",
"bX c #FDC36D",
"nX c #FBCA6C",
"mX c #FEC87A",
"MX c #FCD579",
"NX c #FDD26A",
"BX c #847A82",
"VX c #868486",
"CX c #948C94",
"ZX c #918591",
"AX c #9C9599",
"SX c #8F8B90",
"DX c #A59CA3",
"FX c #ACA4AB",
"GX c #B5AFB4",
"HX c #FBB887",
"JX c #FFBC91",
"KX c #E88486",
"LX c #FDC987",
"PX c #FDD782",
"IX c #FCD294",
/* pixels */
"n b n } ` ` ` ` n b  .` L } n L ~ b } } } v n b } ~ ` ` ` X.n n L n / ~ ` ' L K ` L L L ` O.} K } } ",
"L n L ` ` L ` n L b ` L n } n n } n L K ' L L K T L n L n } T } | } ' } ` n ` ..P S S L K ` } L ` ` ",
"n n L ` n ` ` n } L ` L n ` ` n K P ' b L } } n K _ x K K L L ` v I _ n S _ ` } E / ( T J _ ] / } } ",
"L L ` L n ` } n } } L ` L L } n K ` } / / ~ } ..~ ..~ / ../ / ~ ] [ ` S / _ _ v T [ { } J ` ] n } } ",
"` ` ` L n ` ` n ` ` L ` n n ` b } / / } ` L n | A A A A D A A A G S n } ~ b K T L ! { _ L } ` K L n ",
"` n L L n ` } ` n n ` ` L ` ` n b _ K K J Q  Xt e.:.0.8.7.7.7.;.w.}.W ' K n } T } | T K ` | } ' ` ` ",
"n b n L L ` } } ` n } ` ` } L n L c V C  X*X1Xd.J.p.W.W.E.2XE.E.n.N.+XW L } } b +.%X&XR ] } S ' } } ",
"` n n ` n n n L } b } n L  .b b V * & 8.:.:.n.(.9X4XvXLXLXIXLXLXQ.J.3.}.T ` n } +.;X3X$X] ` Z ..` ` ",
"n n n ` ` ` L ` K ../ b n } ] N r , 2.P.E.pXpXcXhXfXmXMXMXnXdXfXhXkXU.P.w.} } K :X4X9X;XW } Z ] n n ",
"` L L ` ` n n L K ../ K L } L d ; e.r.4XsXmXmXMXMXMXPXnXMXnXrXrXMXkXqXU.e.) ~ } :X5X9X2X%XL T ..` ` ",
"L L L ` L n L ` L ] / L L } b u ;.6XK.zXxXnXxXdXjXnXdXfXbXnXrXA.V.L.0Xf.*.V _ ( G k.D.qX-Xn b ~ L L ",
"n L ` ` n n n ` T ] ` L L ` Z i 4.9X_.nXMXNXhXH.aXMXrX!.xXLX4X2X:.U.).Y.3.f D S D 9.r.8X*X} ` } n n ",
"` ` ` ` n n b b S ] ~ K L ` D q.6.kXhXrX!.rXtXH.aXnXfXW.uX5X> ;.C m.i.i.<.e.q.z W -X6X6.k.T X.} ` ` ",
"n L ` ` L L n b S _ n n ~ ] R z.,.cXvXQ.).).~./.hXbXtX(.5X-X% r } V 7.3.y.i.e.Q | <X,X9.f } ` T ` ` ",
"n n n n ` ` ` n T _ b T / ] R q.,.4X4X,.i.<.p.`.'./.~.0X> < A K ( L D |.*.5.:. X| A | G A ..T P ` ` ",
"} } ` n ` ` L b } ' L T } [ Z 0.a.R.7X3.r.4.n.).G.^.'.9X: 7 F ..} ! ! G 8.<.3.XXS R ] n ` ^ T P } } ",
"n n } n b ` L n I Z ( _ Z F O.l.:.*.0.C } b g ,.F.^.'.qX: r m S S b / } V t.e.C ` L L ` ` L L ` n n ",
"` n ` ` L ` n n ] T c _ P I K V OX].B S ( ] Z i n.G.^.8X&.2 S } T [ ~ } J }.}.R  .` n ` } } }  .} } ",
"` b L } ` ` n ` ..E c ~ ` K c L ` S L _ / ~ _ ~ v.<.Y.8Xd.0.Z S T ' ` / _ x T } ` L L }  .} } ` ` ` ",
"` b n ` ` ` n n ' Z } ^ ../ F P K ~ [ I c c K ` d ,.Y.).i.;.z } S T ../ ` H ] / L n ` }  .} ` ` } ` ",
"} L ` n b ` n b P v I P | ..n x E S ~ _ T T L Z B ,.R.8Xp.;.T ~ } S ..b / } n ~ } ` ` ` ` ` } } ` ` ",
"` n ` n b ` ` b ....Q *X+XQ _ { P } / / ..` L L B ,.Y.qX&.2 } b ' b ' H b | n L ` ` ` ` ` ` ` ` n n ",
"n b L n n ` ` L ~ R Z.~.Q.C.Y ] ` ` } ~ ~ ~ ! ] j 3.T.eX; = Z K ` K L L b ..} I n L ` ` } ` ` n ` ` ",
"n x n ` n n b n ' Y Q.tXvXpX;XD / L U x L } n ` }.2.i.d.; = F L ( L S +.} X.o.` } ` L ` ` } } ` } } ",
"b b b b n n n b ~ Q H.tXnXaXW.Q c I O./ _ P L ( ].t.{.t.= a F P n ` ` n n n n ` ` n n L ` L ` ` ` ` ",
"` L n n n n n b _ Q !.gXmXW.=.C S H v v ` P K n [.t., - G G ~ ' n } } ` } ` n ` ` ` L ` ` ` ` } n n ",
"` ` L n n n L ` J Y !.fXPX(.g.+XG P L b P b x L ].t., 4 W F ] H ` } } } } ` L L } L n L ` ` ` ` L n ",
"n L L n n n ` ` n Q (.fXPXsXQ.r.w.D ` K K ..` O.B q.; % V ( ~ Z ` ` L L ` ` L ` ` L n ` ` ` ` ` } } ",
"n L ` L n n n n m Q L.`.xXfXiXJ.8.G v c b ..[ } B 0.&.3 Q O.! E ` ` n n ` ` n L ` ` ` ` ` ` ` } n } ",
"n n n n n n n n [ z =.D.9XxXIXJ.0.W ~ S v ^ ! E l.=.W.5X;XQ X.J L ` ` ` } ` L L ` ` ` ` ` L ` } n %.",
"n n n n L ` ` ` ` n B c.:.uXHXJ.:.G / } T ~ W x.N.g.pXkX5X;X+.K ` ` ` ` } } ` ` L L ` ` ` L ` } o.CX",
"` ` n n n L L n S ..x s & b.wXp.3.XX( b ' S  X=.F._.xXmX!.3XQ ..` } ` n ` ` ` } ` ` L ` ` ` ` } VXGX",
"` n n b L n } } } ] _ E l B 7.i.<.n.q.q.C Q *XK.`.hXbXMXrXQ.Y ^ R } ] } P _ _ / ` b } L } L } $.AXAX",
"} ` ` n ` b n n n b _ T Z 9 & 2.i.5.=.:.m.wX5XQ.hXbXbXmXpX_.#XD L _ ] T T ` ] ..} `  .n L o.VXFXAXCX",
"` L ` n ` b n n T ` K L / 8 = :.6.kXcXW.P.n.6XxXtXrXvXmX`.).3X#X .] ] S Z n ~ v L } } } %.SXAXDXAXVX",
"n n n b L n ` ` x ` ~ ` } h = ;.h.vXvXuXE.=.4XPXgXK.zXvX_.).).Q.$XE ! } S ` ..} L b n $.CXGXGXDXSX#.",
"n n L b ` n ` ` L ~ ` b S u & W.!.mXLXmXzX7X7XQ.h.-.4X9Xp.a.R.`.;X&XT ] _ b n c ` } #.AXFXFXCXVXVXo.",
"b b ` n } n ` n _ ~ } ' S u ; L.`.vXIXvXzX7XT._.K.h.I.T.u.a.).G._.B.Z ` ` ` ` T n $.CXFXFXDXSX$.o.n ",
"n n L n ` n ` ` K ~ m _ T f 4.Y._.HXJX-.-.-.,.,.0XHXI.s.u.y.<.s.0X=XW n T } ....$.SXAXCXZXBX$.o. .} ",
"} ` ` b n b ` ` K O./ K T i 2.G.(.lXlX5.6.=.4.r.0XvXD.u.a.f.<.s.(.+XV l A +.@.@.$.VXZXCXZX@.o.X.} ` ",
"~ } K K P b n } n ` ..n E z.2.5.,.<.,.9XW.; 8.0X).(.1.s.).8X3.5.e.;.% o + :X>XBXBX$.BX%.$.} ` ` ` ` ",
"n n b L  .b b L x b F B f m.I.,.,.L.D.9XK.> q.qX_.L.I.1._.7X2.:.&.8.q.p e <XBX>X+.#.#...} ..` } L n ",
" .x n n v ~ } M R N = : > P.eX4.=._.~._.P.;.+X6XN.K.4XpX_.Q.> > & 7.KXwX|.}.B O o +.O.%.` n }  .` ` ",
" .b ` } n Z z N f z.2XP.n.N.z.3 : _.~.W.b.: v.2XZ.N.k.b.V.V.N.+Xe p |.z.+X|.oX5 O q 0 v b } L  .` ` ",
"}  ._ ` S A < < >.=.9X_.sXc.< * = 4XQ.P.m.3 g M.M.*X9.3 M.h.iXwXa e - f -X}.}.4 O   X c b b  .L } } ",
"~ n b T l C z.c.Z.K.pXV.k.< 6 4 y *XM.9.v.x.x.C.c.-Xr = t S.*X@XoXXXd s 1 e i u 9 6 $ $ 0 c ` n n n ",
"X.M m A q 2 z.=XiXiXuXC.3 * O y p +X@Xr g #X&X#X-X X7 - r r z..X-X X$Xq o 7 7 9 q q q   0 +.c }  .} ",
"b } l 7 XXoX@X+X@Xb.>.3 = +   ].oX+X|.- 1 &X X.X}.j 5 o * 7 f v.yX,X%XB 9 O o * O u 8 8 6   l S ` ` ",
"] Z N r oX-XoXoXoXoXu 5 @ + o  X-X%XoX* < %X%X-Xf 9 @ . X O d d ,X,X,Xj y + o O O q k q 6   0 ) S o.",
"_ Z q e }.oXoXXX% = - + .     B .Xe w + 7 XX X.Xr @ # . X X q w * r OXj h O o o + O O q q h $   M ~ "
};
