/* XPM */
static char *_d23f4a78e7f40d8c4064041d3e30638XBjOod1FzjJf9BYj[] = {
/* columns rows colors chars-per-pixel */
"50 50 256 2 ",
"   c #0E0300",
".  c #1A0508",
"X  c #1F0819",
"o  c #280707",
"O  c #2A0B15",
"+  c #291716",
"@  c #37151A",
"#  c #30140E",
"$  c #3D211E",
"%  c #2B1726",
"&  c #322127",
"*  c #1C0D20",
"=  c #4A0805",
"-  c #560705",
";  c #541706",
":  c #480B17",
">  c #491519",
",  c #571819",
"<  c #441605",
"1  c #691806",
"2  c #771906",
"3  c #6D1512",
"4  c #5C2818",
"5  c #53250F",
"6  c #6D2200",
"7  c #682417",
"8  c #78271E",
"9  c #742E16",
"0  c #461923",
"q  c #430C23",
"w  c #4A252A",
"e  c #572827",
"r  c #472D32",
"t  c #593437",
"y  c #4E3435",
"u  c #66292A",
"i  c #752923",
"p  c #69342B",
"a  c #743128",
"s  c #6B2D35",
"d  c #772933",
"f  c #663737",
"g  c #773A35",
"h  c #6D1C22",
"j  c #58453C",
"k  c #77443A",
"l  c #7A4833",
"z  c #593942",
"x  c #6E3943",
"c  c #54494B",
"v  c #4E5F56",
"b  c #555B55",
"n  c #555C5B",
"m  c #5B5D5D",
"M  c #585656",
"N  c #55504E",
"B  c #684447",
"V  c #784A49",
"C  c #77584C",
"Z  c #644D53",
"A  c #7A4D53",
"S  c #63565B",
"D  c #625C5C",
"F  c #6A5B5C",
"G  c #685756",
"H  c #765958",
"J  c #68584F",
"K  c #55625D",
"L  c #5C615E",
"P  c #576356",
"I  c #536157",
"U  c #62625D",
"Y  c #6C625C",
"T  c #646457",
"R  c #776459",
"E  c #70644E",
"W  c #5D5E62",
"Q  c #545F65",
"!  c #4F5E61",
"~  c #635E62",
"^  c #6B5E63",
"/  c #6A5662",
"(  c #755B64",
")  c #556462",
"_  c #5D6261",
"`  c #5C6A64",
"'  c #5D6569",
"]  c #5C6A6A",
"[  c #546968",
"{  c #4E6967",
"}  c #626463",
"|  c #6B6464",
" . c #646966",
".. c #656669",
"X. c #646A6A",
"o. c #6B6C6C",
"O. c #6B6767",
"+. c #736565",
"@. c #766867",
"#. c #727172",
"$. c #797579",
"%. c #737071",
"&. c #9B1E15",
"*. c #8A1810",
"=. c #B31901",
"-. c #962706",
";. c #93370A",
":. c #892A19",
">. c #99251A",
",. c #93381A",
"<. c #852C0B",
"1. c #A62606",
"2. c #B82707",
"3. c #B83605",
"4. c #B82917",
"5. c #B93719",
"6. c #A93311",
"7. c #8A2928",
"8. c #982629",
"9. c #86382A",
"0. c #943429",
"q. c #852C32",
"w. c #8A3638",
"e. c #933338",
"r. c #A82726",
"t. c #A83C28",
"y. c #AB363A",
"u. c #AF2C31",
"i. c #AD1C29",
"p. c #C53716",
"a. c #D83A1B",
"s. c #CA2F14",
"d. c #CA332A",
"f. c #A54919",
"g. c #B84716",
"h. c #A6430E",
"j. c #994A2A",
"k. c #8B4737",
"l. c #974639",
"z. c #96583A",
"x. c #8F5236",
"c. c #A5522B",
"v. c #BA5C26",
"b. c #A94834",
"n. c #AA5638",
"m. c #B85B32",
"M. c #B64A30",
"N. c #AE6938",
"B. c #964216",
"V. c #D55019",
"C. c #C74726",
"Z. c #C75625",
"A. c #D75528",
"S. c #C95739",
"D. c #DC5D38",
"F. c #CF4A32",
"G. c #E7582B",
"H. c #E85C3C",
"J. c #EB4A2B",
"K. c #CB6826",
"L. c #DA7329",
"P. c #DB693B",
"I. c #D77537",
"U. c #CE7236",
"Y. c #E8673A",
"T. c #F66B3B",
"R. c #E67637",
"E. c #E56E28",
"W. c #CE7517",
"Q. c #A43C45",
"!. c #8F3D41",
"~. c #884946",
"^. c #885649",
"/. c #975747",
"(. c #894B54",
"). c #875A56",
"_. c #965957",
"`. c #964A4A",
"'. c #B34947",
"]. c #A55A48",
"[. c #A55B55",
"{. c #AF5150",
"}. c #996659",
"|. c #8B664F",
" X c #AA6445",
".X c #BA6748",
"XX c #A56757",
"oX c #B57352",
"OX c #885D64",
"+X c #965D63",
"@X c #876867",
"#X c #986666",
"$X c #966D74",
"%X c #867979",
"&X c #917572",
"*X c #A67978",
"=X c #B16F6A",
"-X c #C85646",
";X c #CB564D",
":X c #C76A43",
">X c #D77848",
",X c #DA7B58",
"<X c #D0724F",
"1X c #F96C45",
"2X c #E67748",
"3X c #ED7152",
"4X c #CE7564",
"5X c #F17962",
"6X c #D78D38",
"7X c #EB8338",
"8X c #95807F",
"9X c #B28676",
"0X c #D38B51",
"qX c #E68947",
"wX c #FA8347",
"eX c #ED8758",
"rX c #F09150",
"tX c #EAA95A",
"yX c #F5A755",
"uX c #F5B051",
"iX c #CB8969",
"pX c #FA9665",
"aX c #F1836B",
"sX c #FBA764",
"dX c #FDBC68",
"fX c #FBB977",
"gX c #F5AA70",
"hX c #DBA75D",
"jX c #FAC769",
"kX c #FAC976",
"lX c #FAD578",
"zX c #FED56B",
"xX c #7E7B82",
"cX c #867E83",
"vX c #9E7E83",
"bX c #A57B81",
"nX c #898687",
"mX c #96888A",
"MX c #999298",
"NX c #938E90",
"BX c #A78784",
"VX c #AF9391",
"CX c #A59DA3",
"ZX c #AFA4A8",
"AX c #CB918E",
"SX c #FDB58A",
"DX c #E39D95",
"FX c #FDCC85",
"GX c #FCC988",
"HX c #FDD483",
"JX c #FCD38C",
"KX c #F9D984",
"LX c #FFCB94",
"PX c #FED793",
"IX c #EFD184",
"UX c #FFE38D",
/* pixels */
"m n m } _ _ _ _ n K X._ ~ +.} n b n W W ..m n } O.| }  .L O.| m ~ ' _ v L _ _ m _ _ K } } ....m } } ",
"L m L _ _ L _ m m m _ L b ) m ~ ) _ m ' _ L | G | ^ %.o.} } n ] n } X.| | ~ } ] m m _ _ n m  .} } _ ",
"m m L _ m _ _ m | m n L K ` W W ' _ | H R @X}._.)._.#X( m ..~ ' L L m ~ ~ m n _ .._ } _ m _ _ m } } ",
"L L _ L m _ } m } L L } D  .) ) n +._.{.'.t.:.:.,.0.q.$X#.~ | ..@.O.D n L _ ) _ _ L } _ m _ _ m } _ ",
"_ _ _ L m _ _ m ) ' ~ | n L D J ).=X;X-Xd.4.p.p.3.1.>.=X@X@.o._ ( @XOXH G F m n L n U } o.#.#.%.o.o.",
"_ m L L m _ } _ ) } ~ } L T ^.w.M.-X5X3XY.Y.T.T.1XC.&.e.d OX@. .@X+X`.7.q.V H O.@.%.%X%XNXNXnXmXNXNX",
"m n m L L _ } } L m _ } R ^..XS.2XD.D.C.Y.P.A.A.H.M.l.`.(.$X| ^ F +X{.r.u.w.).@.*XVXbXBXMXnXNXCXZXZX",
"_ m m _ m m m L F L [ m (.b.3XpX2X3X1.5.aXC.p.1.&.^.R Y D ` ) ~ | #X;Xr.&.7.#XbXDXAX_.+XmXnXnXmXZXZX",
"n m _ m L _ m } _ ' ) D }.b.3XeXM.S.*.*.S.t.2 l.H F U K m } _ K OX'.d.y.'._.@X&X#X#X*X*XvXmX%X$.nXnX",
"_ _ _ L _ } n m m } ' } #X{.5X5X>.:.- 3 t.:.= k F D L ) } | ..L Z w.u.8._.H ( ).f A $X$X@X@.| #.} } ",
"m m L m _ } _ } | } _ _ @X=X{.y.8 7 C ~.- i V n m L L _ ..O.| L ] A Q.8._.F | F H H @X+.| | m _ _ _ ",
"} _ } L m m n _ .._ L U @.*X(.q.: @ M Z @ t D { L K L _ ..O.} L ] b (.d A M _ ) +.| +.| | .._ _ L L ",
"} _ } _ _ m b m n } @.+.+.@.H V G D W ~ D F m [ m m L } } ..} L ( K L Z | ..O._ m m } } _ } _ _ } } ",
"m n m L _ } n m o.%X9X*X&XU } U b } m m n L X.m W m m } }  ._ L | _ X._ _ _ W m X.} m n L } _ _ } } ",
"} m m m _ } D | &X*XiX=X#XU K m _ } n _  .K _ | W W m L _ _ _ } K m ....W m L ` n _ } _ L L _ } L L ",
"_ _ _ L m } o.cXAXiX4X{.}.L ) ~ } n n } _ b  .U ) m L L L _ } ~ ` S _ [ ..F n n m } _ _ L m } ..} } ",
"n L U _ n @.8X9XiX.Xb.:.A L ` b L } W } L _ n T U ) n U L [ ) T m m _ } _ _ _ _ _ m L _ _ L L _ m m ",
"} n L ..#.mXAX9X4X:X:Xk.Y n m m L W n n U } m R R +._ ) _ } L b _ _ _ _ _ _ _ } } _ m _ } } }  .} } ",
"X.M ..nXMXBX9X.X:XP.2Xl ` ' F m L _ ) L S _ n @XoX}.Y ] X.U U o._ _ _ L m m L _ _ L L } X.} } _ _ _ ",
"n o.nXNXMXBXiXc.v.T.1Xk.U _ S ) L } ` L F ) I }.I.U.|.D ' } U n m L L L L m m m L m _ } X.} _ _ } } ",
"cXMXCXNXcX*XoX;.g.T.J.>.H m n K U ~ K K ^ ] I }.E.L.N.|.| ) n X._ _ _ _ _ _ L L } _ _ _ _ _ } } _ _ ",
"CXMXNXxXcXBX=X,.3.T.J.&.V L L n } ~ L K } ] P oXL.yXdXoX|._ K n } _ L m L L _ _ _ _ _ _ _ _ _ _ m m ",
"ZXMXnXo.#.&X=Xk.M.1XH.r.B b L m L ~ } L ) } C oXU.tXkX0XoXR K } } _ L m _ _ _ _ m L _ _ } _ _ m _ _ ",
"MX$.} ' W F #XXX:XC.2.>.V D m n L m D b ) ^ V oXfXPXGXv.f.C } W _ _ _ } } ..} } } _ L _ _ } } _ } } ",
"#.} m n m D | | XX8.u.i.B ~ { m / K ` W ) H 8 0XJXGXLXf.;.}.Y m _ m } L L n m m _ L L _ _ L _ _ _ _ ",
"o._ m m m n m D C - *.Q.H S v D M ' m N O.^.<.0XJXIXJX0XN.; y H | _ L } } _ n L _ _ m _ _ _ _ _ m m ",
"_ L L _ L m m ~ S 0 u d Z F n D v } ~ D C c.h.6XUXJXJX0X0X; p ^.H L K | ..} m L } _ m L _ _ _ _ L L ",
"m m _ _ _ L _ } _ Z B > c S _ n  .) W G 8 C.R.yXlXfXJXFXPX5 = 0.~.Y L m _ ' } K } _ L _ _ _ _ } } } ",
"L m m L L m m L K } D r M S L _ m ) Q ).&.V.R.yXlXJXGXFXGX6 *.F.'.~.Y m _ ) | n _ _ _ _ _ _ _ } _ _ ",
"m m m m L L m m n n L D D m ) _ F ' | _.1.p.E.yXlXHXKXlXfX6.5.3X-X7.A L ] K U } L _ _ _ _ _ _ } L L ",
"m m m L _ } _ _ L } } X.m L _ m D D C .X,XR.L.tXkXkXUXlXdXA.F.pX2X&.~.L ' L L .._ _ _ } _ _ _ } } } ",
"_ _ _ m m m L _ m _ W n } b m D | R i j.LXsXK.hXKXHXkXjXjXI.eXSXpX6.`.} m | ` _ _ _ _ _ _ _ L _ } } ",
"_ m m n L m } } L } } ' W } L n ).n.m.>XPXGXtXdXlXyXqXzXzXtXfXHXpX-.^.U K } m _ L _ _ _ _ _ L m } } ",
"} _ _ m _ n m m _ n m _ _ m m _ 0.>.2X0XKXFXlXlXlXqXK.dXjXHXHXkXsX1.-XC ` m O.] } } } } } } } _ m m ",
"_ L _ m _ n m m ' L L } } m m ~ t.5.sXdXKXHXlXtX6XK.3.7X6XjXjX6X6XY.d.l.+.m m v } } } } } } } } } } ",
"m m m n L m _ _ n L U U _ _ _ Y -.h.kXHXlXFXkXrXY.3.3.Y.L.kXjXW.L.I.V.1.z.R X.L L L _ _ _ _ _ } _ _ ",
"m m L n _ m _ _ m L U L ) ) T ).2XU.FXfXJXhX;.A.1XV.=.s.5.K.qXE.wXjXyXE.I.}.M } L m L _ _ _ L _ } } ",
"n n _ m } m _ m | L n } _ I E XXP.>XGXGXSXaX-.A.1Xa.a.d.4.H.T.G.wXPXtXW.7X].Y ' } _ _ } } _ L _ m m ",
"m m L m _ m _ _ m K n ~ ..L |.,X2XqXfXgX-.5.5.2.1.G.H.d.4.s.2.=.Z.SXLXHXqX,XT n } _ _ } } _ _ } } } ",
"} _ _ n m n _ _ m ` _ ~ ~ G z.Y.J.D.pXaXC.6.-.5.3.L.wX5.s.s.s.s.Z.SXDXhXU.x.P ~ _ m m _ _ _ } X.} } ",
"~ _ K _ X.m } L M O.b ) K C 0.2.s.6.1.3.wXb.- 5.R.fXLXg.3.T.G.2.r.8.3 - 1 = H Q m  ._ n ..L L _ _ _ ",
"m n n } } W n b ! W | N G k M.F.1.-.Z.V.R.n.2 g.R.eX0XZ.V.T.3X6.7.7.q.3 :.9.V M c N } X._ _ } } L L ",
"K  .D M n ` L U W S C , 1 2 -XaX,.;.>XR.R.:X<.g.5Xv.f.2XwXR.P.2 3 = h Q.4XaX7 o O + M X.n _ o._ _ _ ",
"` } m } ) K M j V l x.n.m.m.c.j.1 6 >XR.K.c.1 m.>Xm.m.f.6.S.:Xc./.4 i i 0.'.8 d : @ r c } ) } .._ ) ",
"..D } ` K P R 4 2 6 B.>XeX,Xj.9 ; 1 <X<Xm.j.7 c.0X.X].9.:.n.n.iX X7 4 = 7 i w.!.: > o & M m b ` } } ",
"D } L K L j k l.n..X.X.Xj.9.7 , s 7 .Xn.:.9.k. XN. X]., , a a oX Xx.l 4 < < p g s f w r & N } b m m ",
"} b b m F e 7  X X4X4X/.9.p e q x a ].`.8 ~.XXz./.].XXe w x g |.x.XXk.p o o w f f t B y . y D _ X.} ",
"' b L y e _./.n.n. Xl.a 4 # # O ( ).[._.; u _.z.XX9.g o o 0 > f l /././.^.y + o $ @ t r y $ + N _ _ ",
"_ b | B p _.}.[.[./.~.f w $ +   J @X).V > d [.[.[.g t O % % & t k }.}._.f t + . @ O B t z w . c M o.",
"L b D f u _._._.g = > # o . o   R ).f u = d [.`.[.e @ . X * O o o > p _.V y o . o @ @ 0 z t z + % M "
};
