/* XPM */
static char *result[] = {
/* columns rows colors chars-per-pixel */
"50 50 236 2 ",
"   c #1D080C",
".  c #2B070A",
"X  c #2B1418",
"o  c #36181A",
"O  c #361F23",
"+  c #35282D",
"@  c #3C3736",
"#  c #53090F",
"$  c #4A180D",
"%  c #47181A",
"&  c #551A16",
"*  c #70140F",
"=  c #4F2311",
"-  c #562617",
";  c #6F2A11",
":  c #792817",
">  c #673119",
",  c #491925",
"<  c #661A27",
"1  c #721324",
"2  c #482526",
"3  c #532929",
"4  c #5D3426",
"5  c #582C35",
"6  c #463638",
"7  c #573837",
"8  c #682825",
"9  c #782A2A",
"0  c #763628",
"q  c #662D38",
"w  c #702F32",
"e  c #653835",
"r  c #753639",
"t  c #56433F",
"y  c #6F4A3A",
"u  c #7A483C",
"i  c #563A44",
"p  c #783640",
"a  c #4D4545",
"s  c #574747",
"d  c #564D50",
"f  c #545555",
"g  c #5C5655",
"h  c #555857",
"j  c #565A59",
"k  c #5A5E5D",
"l  c #66484A",
"z  c #7A4945",
"x  c #6C524C",
"c  c #765048",
"v  c #624D52",
"b  c #675756",
"n  c #6C5A56",
"m  c #635D5C",
"M  c #755C59",
"N  c #5C605F",
"B  c #64615D",
"V  c #6A625A",
"C  c #76645A",
"Z  c #645E60",
"A  c #7C5E60",
"S  c #5E6261",
"D  c #616564",
"F  c #646867",
"G  c #696A69",
"H  c #786663",
"J  c #77726C",
"K  c #707072",
"L  c #737374",
"P  c #747877",
"I  c #7B7B7B",
"U  c #881608",
"Y  c #87191D",
"T  c #9E1D18",
"R  c #983615",
"E  c #BA290C",
"W  c #BC350A",
"Q  c #B92919",
"!  c #AF3212",
"~  c #A63817",
"^  c #B83417",
"/  c #8B2627",
"(  c #893B29",
")  c #973628",
"_  c #892D36",
"`  c #893830",
"'  c #96323C",
"]  c #AE332A",
"[  c #A73E28",
"{  c #C81F03",
"}  c #C52A0B",
"|  c #CB380A",
" . c #D5390A",
".. c #C72614",
"X. c #C93618",
"o. c #D73915",
"O. c #C83B26",
"+. c #D93920",
"@. c #B24205",
"#. c #A84919",
"$. c #BA4519",
"%. c #A4591B",
"&. c #B9541F",
"*. c #8D432E",
"=. c #994C2B",
"-. c #9F5522",
";. c #874A39",
":. c #994939",
">. c #9C563A",
",. c #A5472A",
"<. c #AB4D2E",
"1. c #B74928",
"2. c #AE532E",
"3. c #A14B32",
"4. c #A5573A",
"5. c #B85837",
"6. c #B96731",
"7. c #CA4917",
"8. c #D24718",
"9. c #D75616",
"0. c #E9531D",
"q. c #E8691E",
"w. c #F56B1E",
"e. c #C64928",
"r. c #D94224",
"t. c #C55826",
"y. c #D65728",
"u. c #C64A38",
"i. c #D55635",
"p. c #E45825",
"a. c #EB502F",
"s. c #E75937",
"d. c #C9622B",
"f. c #DA662A",
"g. c #D77A2E",
"h. c #C76533",
"j. c #D46939",
"k. c #C87732",
"l. c #D77737",
"z. c #E7662E",
"x. c #F56627",
"c. c #E67526",
"v. c #F67521",
"b. c #E96B37",
"n. c #FA6736",
"m. c #E77539",
"M. c #F47437",
"N. c #893242",
"B. c #913443",
"V. c #874948",
"C. c #85554C",
"Z. c #985847",
"A. c #875858",
"S. c #955955",
"D. c #A45B49",
"F. c #BA5148",
"G. c #886956",
"H. c #946554",
"J. c #A86846",
"K. c #B86746",
"L. c #B16E4E",
"P. c #9C5F65",
"I. c #8C6C68",
"U. c #A76B61",
"Y. c #B16266",
"T. c #AB7868",
"R. c #B1756A",
"E. c #C15642",
"W. c #C86548",
"Q. c #D4674A",
"!. c #CC794B",
"~. c #D67747",
"^. c #CA6957",
"/. c #D16E57",
"(. c #D57859",
"). c #EA6745",
"_. c #E87846",
"`. c #F37D4A",
"'. c #CC7F63",
"]. c #C98A3A",
"[. c #D3853B",
"{. c #E6853A",
"}. c #F1843C",
"|. c #FB933A",
" X c #BA8674",
".X c #D58645",
"XX c #C7875C",
"oX c #D88356",
"OX c #DE9C54",
"+X c #E78849",
"@X c #E9994A",
"#X c #F89348",
"$X c #E68A56",
"%X c #F48651",
"&X c #E99757",
"*X c #F19A57",
"=X c #E6A14B",
"-X c #EAA757",
";X c #F4A75B",
":X c #E9B15A",
">X c #CA8369",
",X c #EA9967",
"<X c #F09064",
"1X c #DEA565",
"2X c #F8AB66",
"3X c #F0A669",
"4X c #EDB667",
"5X c #F8B969",
"6X c #FBB975",
"7X c #FCBD7A",
"8X c #FFC05B",
"9X c #FBC56A",
"0X c #F7C876",
"qX c #FDCC74",
"wX c #FDC37A",
"eX c #FDCC7C",
"rX c #ECDA78",
"tX c #F4D474",
"yX c #FCD374",
"uX c #F4D975",
"iX c #F5D57B",
"pX c #FBD47C",
"aX c #F4DB7B",
"sX c #7F7D80",
"dX c #888688",
"fX c #948D95",
"gX c #969799",
"hX c #A3A4A3",
"jX c #FCBE81",
"kX c #FDCC83",
"lX c #FDC987",
"zX c #F6D682",
"xX c #FCD382",
"cX c #F9D985",
"vX c #FDD38B",
"bX c #FDD593",
/* pixels */
"k k k S S S S S j S F N N F N k j k S S S k j j S N S S S S S S N S S N S S N N N S N S S S F S F S ",
"k k N S D S k N S j N N N S N S S N N N S S k N S j k S S S S S S S F S S S N F N N S S N N S S S S ",
"k N S k N S S k S N S S j S S j N S N k S S F N N k k k k S S S S N N N N S N N F N S S N N N N F F ",
"S k S k j D D S F N N D N S S N S S S N N k S S S N k k S S k S S N N N N S N N S S S S S S N N S S ",
"S k S S k S S k S S N N N k k j N S S N S S N N S k S S S S S k N S S N N N N N N N N N N N F N S N ",
"S N S S N S F D N k D S N D S k j j j N S S j N S S S S S S S S N N S F S S N S F S N N S S S F N S ",
"S k k k k k S D S N S S D S k N N S F N N S N N S S S S N S S S N N F N N N S N S F N S F N N S S S ",
"S k k N S S k S S S S j S F k j j j N S N N S N k S S S S S S N N N N S N S N S N S N S N N N S S S ",
"k k S N S S S N S S S k j Z S j k S j S F k k k S N b m N Z S S N N N S S S S N S N S S S S F S S N ",
"k N S S S S j S j S S S k Z Z S k D D N D N k b M A.) B.Z D D S N N N N N S S S S S S S F N S S N S ",
"N N S j S S S S S S S S b z m S S S k D N D c ` ) ] ).E.V.m D S N S N N N N N N S S S S S N N S N N ",
"S S S S j k j S S S S N v l b j k D j k m n Z.O.W W `.s.) b N N N N N N S N S N N N S S S N S S S N ",
"N S S S S k f N S S S S S m N j N S S S n ` u.).W @.6X_.R C.N S F N F N S S S N S S N S S S F S N N ",
"k k k k k S N k S k j h k D S k k N j k c ) Q.<Xd.d.7X*Xt.3.c Z B N F N S S S S S S N N S S S S F N ",
"S N S k S S S N S S S S S k S S N S k H Z.,._.7X].].wX;Xf.| [ M N N S S N N N N N S S S N S S S N S ",
"S S S k k S S j S S S S D D k k S k b u ,.h.,XwXeXqXpX;Xq. . .5.H N S S S N N N N S S N N S S S S S ",
"k S S k k k k k N k h N k N H H H M C.<.1.k.4XpXpXiXzX4Xl.7.7.l.L.C S N S F B N S N N S S S S S N N ",
"S k S S S S N k S N k N D V H.^.R.S.] i.%X6XwXqXpXzXcXvX7X%X+XwX*XK.J N N N N N F S S S S N F S S D ",
"S k S k S S j S S S N k V G.XX;X(.W.E X.b.6XeXpXpXiXzXxXeX5X4XpX&X~.G.N N N B V G N N F G F D D S N ",
"S j S S S S j k S N N k G.k.4XqX.Xj.W E y.3XwXxXqXiXiXcXkXpXpXpX$Xh.G.h N B C H.L.6.V N F F N N S D ",
"S k k k k k S k S N k N G.g.8XyX9X&Xy.| 7._.3XxXiXaXtXiXcXcXpXpXl.#.H.n V V.=.h.].g.H.D F N D F S S ",
"S S S N k S k j D S k N C L.OX:XxX5X}.z.8.e.$XlXiXaXrXtXiXiXpXeXl.1.F.Z.>.,.t.{.{.c.4.n N N N N S N ",
"h k G L k S S k N k k j N C K.[.pXyX5X}.y.^ .XlX0XaXrXtXiXpXpXeX@Xm.~ ! ~ &.{.2X2X`.1.z S N F N S S ",
"S j I gXP N k k S S N N S V =.&.eXyXyX9X+X#.~.lXcXaXrXuXuXpXpXxX6X2X#.#.&X{.m.2X&X$.>.b S F N S F D ",
"j k I hXfXP N h k N j N N k ( ! 6XqXtXeX1X#.!.jXzXzXrXuXuXyXtXyXcXvX#.#.7X-X}.2XoX@.;.S N S S S S D ",
"N k L dXhXgXP N S S k j D m ( ! l.OXvXvX1X%.oXlXzXzXrXrXuXyXyXuX0XbX_.$XqXqX5X+Xf.R x S S S S S N N ",
"S N D P gXhXgXP Z S k k N k 0 ! b.&XlXbX1X%..XvXcXzXzXiXtXuXuXaX0X2Xc.{.9X9X;X_.i.0 g S S F S S N S ",
"N j S F I dXhXfXK N N h D m 2 * l.$XvXvX9X].-XpXzXlXlXzXpXaXaXpX=Xg.w.v.8X@Xf.$.*.m N S k S S F S S ",
"N S j k D L fXfXfXK D k k N 3 * <.!.bXvX0X:X5XpX-X=XwXxXzXzXzXzX=Xc.v.v.|.}.j.R e g D D F S S D S N ",
"k j N k N S L I gXsXG N N j 7 9 : K.bXzXpXpX0X5X[.[.qXiXzXzXcXxX@Xc.w.0.x.f.1.9 t m S D N S D S S N ",
"k N N k k S S G I dXL D B D G.P.# >.vXiXpXpX-X{.c.{.qXiXiXpXpXyX@Xc. .o.n.1.: s k k S D k S S F F S ",
"S N k k S k N N G L G F J T. X X; -.4X9XqXpX=Xc.9.9.2X5XeXyXyXyX@Xn.X...i.) - s N N N S S S N S S S ",
"N k N j S k S S S S F J T.'.>XXXR #.].4XzXkX;Xn. .} `.,XbXxXqXqX#XM.X.Q ] < 2 d S k D D k S N k N D ",
"S D S k j k k S S k S J  X,X$X(.d..X5XwX6X&Xd.8.{ ..O.e.6.[.-X9X|.b.] T * 5 g D D D D N S D S D S N ",
"S N S S S k S j k S S I.'.<X`.m.[.@XxXvX6X_.7.} ....E E E y.%X5X|.q.e.) % s k k D D D D D D D F D D ",
"k S j k S k S S h N F H S.1._.#X5XqXiXxX,Xe.Q } a.a.......} 7.c.v.c.U & j k D N k N k S D S S D N D ",
"j S N j S j N S k k Z F b B.Q.$X2X0XxX7X`.O...E a.p. .o.....o.x.v.M.U 8 k k N N S S S S S S S S S S ",
"j h N k S F S k D k k N Z A :.,.<X,X7X$Xi.O.Q ..} | n.r.....+.s.x.b.[ r g S S S S S S S D S S S N N ",
"S k N k j S S N j N k S D Z A.Y.W.^.(.h.8.i.! U u.a.n.0.} r.a.+.+.e.Y < 5 d N j S D S D S S S S D F ",
"S S S N k j S S N D k k N b A.Y.] 1.E.t.9.b.^ * Q.b.z.0. .a.s.^ Q T Y 1 < i d d h S k S D S S F F S ",
"k S S S S j k S k S m m v e 0 9 ^.F.*.Q.}._.1.: W.~.d.f.z.b.y.R U * B.N.B.1 , o 6 j D N S S S S S S ",
"j k k S S S k k j v x z V.( 3.=.=.*.; 6.+XoX4.: K.K.-.-.2.t.h.2./ 1 9 9 B._ Y # , 6 h S N S D D N N ",
"S k k k k k S k k y ; ; ) 5.!.(.; - $ >.XX>XD.( >.4.4.u ; -.6.(.=.: & $ 9 ' ' 1 # . i S S S S D N N ",
"S S k S k k S k e ;.=.K.Q.Q.-.; = = 4 u Z.V.S.R.J.S.P.z - > *.>.:.Z.- - # < r N.w < + + h N S G D N ",
"S S S S N N k b - ;.K.^././.*.> % 2 e z V.r S.R.U.T.V.e % 3 e Z.D.Z.y > . % w r p 5 o   a f N N S S ",
"S S S S S Z 3 e H.Z.D.D.:.0 $ $   2 P.S.N.& u H.T.T.z 5 . X 2 4 ;.S.Z.C.e % . % 3 5 p 5 X + k N N k ",
"S h h S f b 3 u S.H.Z.;.w 3 o X   , P.V.p % w C.T.T.4 6 X X O O 5 p S.S.e o     o 5 q p , O 6 h F S ",
"S k j S k m s x M M x 7 7 6 6 @ @ i H l l 7 l x M C x s @ @ @ @ 6 7 b A l 6 @ @ @ 6 i s v a @ f S N ",
"S j S S S S j S S S j S S S S S S S j S j j S k j S S S S S S S N N k j D k N N S N N S S S S N S F ",
"k S j S S S S j S j S k j j S S S S S S S S S S S S S j j S S S k k N N D D k j j N k S D S S k N N "
};
