/* XPM */
static char *result[] = {
/* columns rows colors chars-per-pixel */
"50 50 241 2 ",
"   c #1B0707",
".  c #290805",
"X  c #340903",
"o  c #3C150B",
"O  c #2C1718",
"+  c #371616",
"@  c #3A1A20",
"#  c #3A2A2B",
"$  c #363232",
"%  c #3C3333",
"&  c #4B130B",
"*  c #471818",
"=  c #531C1B",
"-  c #76190D",
";  c #6F0D10",
":  c #43210F",
">  c #532009",
",  c #5C281D",
"<  c #702E0E",
"1  c #652619",
"2  c #77291A",
"3  c #472429",
"4  c #562A25",
"5  c #552933",
"6  c #423433",
"7  c #483A3A",
"8  c #583839",
"9  c #652A26",
"0  c #7D2B26",
"q  c #65342B",
"w  c #763628",
"e  c #762533",
"r  c #693A36",
"t  c #773737",
"y  c #5F423E",
"u  c #7B402E",
"i  c #79483B",
"p  c #76523E",
"a  c #513F41",
"s  c #733443",
"d  c #4F4B4C",
"f  c #574546",
"g  c #535453",
"h  c #585555",
"j  c #5C5956",
"k  c #575A59",
"l  c #5A5E5D",
"z  c #674549",
"x  c #6B4F4E",
"c  c #764A47",
"v  c #78544B",
"b  c #665555",
"n  c #625E5C",
"m  c #6B5D5D",
"M  c #775755",
"N  c #5C605F",
"B  c #62605E",
"V  c #6B635D",
"C  c #76665A",
"Z  c #795E62",
"A  c #5E6261",
"S  c #616564",
"D  c #696565",
"F  c #696767",
"G  c #646867",
"H  c #666968",
"J  c #6B6B6C",
"K  c #786567",
"L  c #746B6C",
"P  c #6E706F",
"I  c #786D72",
"U  c #6E7171",
"Y  c #737473",
"T  c #7B7375",
"R  c #777778",
"E  c #7B7A7B",
"W  c #8B1B12",
"Q  c #88351C",
"!  c #963212",
"~  c #A82D08",
"^  c #BD2D0B",
"/  c #A83A08",
"(  c #A9271D",
")  c #B82D11",
"_  c #A83816",
"`  c #B63417",
"'  c #932C2F",
"]  c #893728",
"[  c #973827",
"{  c #863A33",
"}  c #B62D23",
"|  c #A7382B",
" . c #B93C24",
".. c #A62F30",
"X. c #C51D1D",
"o. c #C52C07",
"O. c #C43909",
"+. c #C52717",
"@. c #C53813",
"#. c #D33A13",
"$. c #CE2F23",
"%. c #8E481E",
"&. c #AF4D19",
"*. c #B74A19",
"=. c #924626",
"-. c #894636",
";. c #974935",
":. c #9C563A",
">. c #A74B24",
",. c #B54B25",
"<. c #B24D31",
"1. c #A75538",
"2. c #B75836",
"3. c #B06A35",
"4. c #C64814",
"5. c #CE4F16",
"6. c #EC581A",
"7. c #E36317",
"8. c #CB4A25",
"9. c #DD4D2B",
"0. c #C75C27",
"q. c #D95723",
"w. c #C55836",
"e. c #E45A2A",
"r. c #EC5534",
"t. c #C96B2D",
"y. c #D76528",
"u. c #D6782B",
"i. c #CB6335",
"p. c #D76439",
"a. c #DF7635",
"s. c #E46F28",
"d. c #E9752B",
"f. c #F6732A",
"g. c #E86839",
"h. c #F76534",
"j. c #F37536",
"k. c #843742",
"l. c #884248",
"z. c #964747",
"x. c #885446",
"c. c #955A49",
"v. c #8F4D57",
"b. c #875859",
"n. c #975C57",
"m. c #A75B47",
"M. c #B55945",
"N. c #AC5755",
"B. c #876657",
"V. c #9C6955",
"C. c #A86548",
"Z. c #B36747",
"A. c #A7744A",
"S. c #B67749",
"D. c #A26458",
"F. c #B87956",
"G. c #8A5A62",
"H. c #995F65",
"J. c #8E696D",
"K. c #86787B",
"L. c #96767B",
"P. c #A66567",
"I. c #A97070",
"U. c #AB777B",
"Y. c #CD5C4B",
"T. c #C56A49",
"R. c #DA7847",
"E. c #D07052",
"W. c #E67645",
"Q. c #EA774A",
"!. c #D56F6D",
"~. c #C3803A",
"^. c #D78333",
"/. c #E98B37",
"(. c #D9874A",
"). c #D3904F",
"_. c #ED944D",
"`. c #E79659",
"'. c #E8A54E",
"]. c #E8A65C",
"[. c #F0AA56",
"{. c #D8946B",
"}. c #E99E64",
"|. c #F39B63",
" X c #E8AC68",
".X c #F5AB67",
"XX c #EBB466",
"oX c #F6B968",
"OX c #F6A678",
"+X c #EDB971",
"@X c #F8B87A",
"#X c #F6C56B",
"$X c #FCD16E",
"%X c #F9C976",
"&X c #FEC47A",
"*X c #FDCB7B",
"=X c #EBD977",
"-X c #F6D776",
";X c #F4D57C",
":X c #FBD37C",
">X c #F3DA7C",
",X c #897E81",
"<X c #987A82",
"1X c #A47D85",
"2X c #CF7B84",
"3X c #7F8082",
"4X c #848385",
"5X c #888587",
"6X c #8B858A",
"7X c #8C8A8C",
"8X c #94888B",
"9X c #91918F",
"0X c #8E8F92",
"qX c #998D93",
"wX c #959496",
"eX c #9C9498",
"rX c #9C9A9D",
"tX c #A6858A",
"yX c #A68D92",
"uX c #A79699",
"iX c #B8999A",
"pX c #9F9DA0",
"aX c #A39EA1",
"sX c #AA98A1",
"dX c #B69AA4",
"fX c #A4A3A5",
"gX c #A9A5A9",
"hX c #D99C9D",
"jX c #FEBC82",
"kX c #DCB0B1",
"lX c #FEC683",
"zX c #FDCC83",
"xX c #FCCC8A",
"cX c #EDDA82",
"vX c #F4D582",
"bX c #FCD384",
"nX c #F4DA82",
"mX c #FADA87",
"MX c #FDD38A",
"NX c #FFC792",
"BX c #FFD092",
/* pixels */
"l l l A A A A A k A G A l G A l k l A A N l k l N l A A A G A N A A A N A A A A A A l A A S G A G A ",
"l l A A A A l A A k l A l A l l A l l N A A l l A l N A N A A A A A A S A A A S l A A A N A A A A A ",
"l N H Y E R P A A A A A l A H K K H N l S H U J J K K I G N N J J S G A A A N A G N A A l N A A G S ",
"A l R wXpXfXwXU G A l S l F J.G.G.L H A H J R ,XqX<X1XyX,XG G I I J S G S H A l A S A A A A N N A A ",
"A A 3XpXrXgXfX7XU G l A n K U.z.l.I L U R 3X6XeXsX<X1XsX,XI H D D D m E ,X5XU A l N A l N A G l A N ",
"A A 3XwX7XrXfXpX6XS S A D G.N.N.H.L.K.E 5XwXpXqX,XT R T J S S G D b s <XdXuX7XU G A l N A A A S N A ",
"A k Y 3XE 3X0XpXwXE J F <XP.v.P.P.tXyXqXeXpXwXR U J J J S S G G I b.b.L.yXuXrX5XU S A A S A A A A A ",
"A A A J J J J 3X0X0X,X,XyXI.N.hXkXiXiXsXdXsX,XH N A G D G J D K.1X1XL.K L 9XfXfX4XJ A A A l N A S A ",
"A k A A A A A A E 5X0XuXiXU.P.1XiXiXeXsXyX6XJ A N l N N G I I ,XtX<XL H J R 9XrXpX7XH A A N G A N N ",
"k A A A A A A A H 3XuXdXdX1XL.I K.yXeX6XE J J N S N l N A G G D I R A A S F E 9XfXpX5XJ G N A A N A ",
"A A A A A A A A H T tX1XJ.Z D D F Y U J A S A N N A A D A A S N A A A l N A H R 9XfXfX5XH N N A N N ",
"A A A A k k k A F J.J.G.s h k k N S l l l S A k l l n M m N A l A A A k N l S S Y 7XfXrX7XP S N A l ",
"A A A A A N g A A Z c s D N N k N A N N A l S A l B b.-.x S A A A A A A A A A A H Y 5XpXgX7XU N N A ",
"k A k A k A A k A N b h N A S l l N k N A l N A n s M.M.G.D A N A A H A A A A A A A J 7XuXaX7XU S A ",
"A A A k A A A A A A S N A l N N N A N S N N S B M | _ E.F.K F A A A A G l k A A A A A U 8XgXuXE N N ",
"A A A N A A A k A A A l S S N l S l l N S l B z.} ) 8.@X`.C.Z S A A A A A A k N A A A A P 8XfX7XA G ",
"l A A l k l l l A l k N l l A A A N N A A S b.M.,.@.0.@X_.3.C B N l N A S S S N N N N A G R wX4XA N ",
"A l A A A A l N A l l A A l l k N l N A A B.!.OXNXa._.%X].S.B.V N B B S N l A A H N A S A H E E A G ",
"A l A A A A k A A A l l S A l l S S N l n V.T.OXxX].XXbXoX).:.v m v v C B N N N N N N S P G J H A N ",
"A k A A A A k k A l A A A A l A l A N S B.F.R.+XvX>X:XbXbXoX2.1.c.:.%.A.C N N N N N N A H A A G A A ",
"A l l k l A A l A A l l S l l l A N k C A.).@X;X=X=X-X:X:XoXR.8.| (. X~.A.C N N N S G N N B G G A A ",
"A A A A l l l k S A l A A S A l N S F A.)..XzXmX>X>X-X:X:X%X.Xp.~ |.BX).`.A.V N A N N S N N N N A A ",
"g l k A l A A l A l l k k l l l N n B.).XX%XzXbX-X>X;X-X;X*XlX(./ ].bX*X.XR.B.B A N N G A A G N A A ",
"A k k A l l l l A A A l A A n v v C :.&. XzXbXbX;XmX=X=X>XbXzX X0..XnXvX].&.c.C V F N N A G N A H A ",
"k N k k N N k k l N l l N l n ' | E.i.&.].zXlX;X>XnX=X=X>XbXbXXXu.+XmXMX`._ 2.D.D.B.S A A A A A A A ",
"A N A N k k N N N A l k N N m T.g.o.5.^.oXbX*X>XcXcXcXcX>XbXzXzX*X*XvXxX}./ q.j.Q.C.n A A A A A A A ",
"A k A A A k N k N N l l A l l i.g.O.7./.#X;X:X;X=XcXmXcX;XzXvXbX*XbXbXoX`.&.u.j.7.c.l A A A A A l A ",
"N k A A A N A A l N l k A A n 2.s.d.'.$X;X>X;X-XnXbXxXxXxXnX>X;X:X:X%X^.t.^. X.X>.-.A A A A A H A A ",
"A A k k N k k A l A S l l N n >.0.].oX-X>XcX>X;X;X-XmXBXxX>X>X>X=X;X*X^.^.[.@XoX>.i N A A A A A A A ",
"k k A N N N A k l N A A N k m ! / xXbX>XcXcXcXvX;X=X-X@X&X;X-X>X=XnX$X).'.%X&X|.&.p A A A A H A A A ",
"A N N k k A A A N N A A A l n [ >.BXbXvXcXnX>XbX:X$X#X(.oX$X-X=XcXvX:X#X%X&X XR._ i A S l A A G A A ",
"A N N A A k A N N A l N l k b 1 =.{.+XbXbX:X:XbX*X[._.0.R.XX#X;XvXMXMX].].(.2.=.=.M A A A A l A A G ",
"N k A k A l A A A l A A A A A * 1 F. XmXMXbX$X:X%XW.g.^ 5./.oX$X*XxXjXW.t.! 1 q b l A G N A N N A A ",
"A A A A A k l l A l A A A l S b n.1 3.MXbXoX/.oX&X5.@.o.q.f./.'.*XzXBXR.w.- y V B B A N A A A A A N ",
"A A A A A k A k l A l l S l K U.hX& 3.BXxX.Xu..X&X^ +.+.9.h.s./.#X:XMX).C.* f N A A S G A G G G G A ",
"k A k k A A A A k A A A n z k.2X2X] S.@X_.0./ 0.Q.+.+.X.o.#.6.s.u..XxX> , j A N N N N A G A A A A A ",
"N A A k A k k A l l A A n l...!.Y.<.R.|.g.8.) 5.e.#.$.X.X.#.9.q.y._.OXW q j N N A A A A A A A A A A ",
"k g A k A A A A A N l N B l...( ` W.a.q.4.) ( ^ o.h.h.+.+.+.+.) ) p.E.! i j N N A A N A A A A A N N ",
"A N A k A A A A l N l N m Z N.$.^ 4.4.4.q. .W O.6.f.6.o.#.9.$.} } ( ' - q j A l A G N A A A A A A G ",
"A A A N k k A A N A N N b M P. .` ~ / 4.g.8.- 8.f.f.6.#.r.g. .( ' W ; ; 9 x g g N A N N G A A H G A ",
"N N N N B N N N N A N j r w ] Y.Y.~ *.g.a.2.2 2.j.s.f.j.j.p._ W ; ' ' ' 0 = + # g A S N A A A A A A ",
"k N N N A N k N j a c c i =.1.<.| W ` W.R.<.Q 1.2.i.i.&.w.0.,.| ; e e { ' ' = * 6 d A A N A G A N l ",
"N N N k N N N j x 1 < Q :.S.!.Q 2 ; >.!.Y.=.2 ;.Z.1.1.< %.2.E.M.e * = 9 z.!.{ & X 7 h S A A A A A A ",
"S N N N N k N 8 l.:.M.T.T.1.u > , 1 -.m.{ -.-.1.1.C.-.: 1 =.M.m.v.r 4 o > i s s 5 3 @ g l l A J A N ",
"A A N A N j j 4 u M.S.E.E.;.4 * : q i n.u u C.:.:.c.v : , w -.c.c.i y X & q t s s 3   a g k l N A A ",
"N N N A N 8 r c.m.m.m.;.w 1 * . X B.n.x.4 4 -.c.c.r 5   + , 9 i n.b.n.q = X & = 5 s a @ O l N l A l ",
"N g k N j 8 t H.n.c.-.w q + + . . B.b.i = q c.c.B.4 3   O + : 4 r b.H.r 4 . X + 3 5 a 3 @ a d N G A ",
"N N N N N f x G.M M z 8 7 % $ $ 6 n x f y y M b.K % y $ % % % % 7 m Z z a 6 6 6 7 a a h a a a N A l ",
"N N N N N N N N A N N N N N A A N N N N N N N N N N N N N N A A l A k k A l l A A A A A A A A N A H ",
"N N N N N N N N N N N N g N N N N A A N A N N N N N N N N N A A l k A N G G l k k l l A A A A l A N "
};
