/* XPM */
static char *a3e1bbeab1924c10b7814529d29e6e79[] = {
/* columns rows colors chars-per-pixel */
"50 50 256 2 ",
"   c #1A0303",
".  c #190304",
"X  c #180317",
"o  c #230C0B",
"O  c #290706",
"+  c #370C01",
"@  c #281517",
"#  c #391618",
"$  c #2D1012",
"%  c #371B29",
"&  c #38242A",
"*  c #530506",
"=  c #471406",
"-  c #451913",
";  c #50140D",
":  c #651900",
">  c #6F0F10",
",  c #572919",
"<  c #4C2512",
"1  c #772103",
"2  c #66271B",
"3  c #6D371B",
"4  c #722A0E",
"5  c #471A22",
"6  c #551A24",
"7  c #731A29",
"8  c #4B2428",
"9  c #572827",
"0  c #5D322C",
"q  c #5B3538",
"w  c #532E33",
"e  c #672826",
"r  c #772821",
"t  c #773927",
"y  c #663737",
"u  c #753938",
"i  c #6C302E",
"p  c #4C433D",
"a  c #6F4936",
"s  c #77683F",
"d  c #6C3E42",
"f  c #483843",
"g  c #594846",
"h  c #555C56",
"j  c #5C5C55",
"k  c #565C5B",
"l  c #5B5E5D",
"z  c #565556",
"x  c #535451",
"c  c #764746",
"v  c #774C51",
"b  c #625D5C",
"n  c #6B5C5C",
"m  c #655756",
"M  c #755859",
"N  c #6D514D",
"B  c #55625C",
"V  c #5C615E",
"C  c #586558",
"Z  c #62635D",
"A  c #6B635A",
"S  c #656558",
"D  c #776658",
"F  c #706648",
"G  c #5C5D61",
"H  c #565E66",
"J  c #4F5E65",
"K  c #635D62",
"L  c #6A5D64",
"P  c #6D5F6C",
"I  c #765D65",
"U  c #4C6862",
"Y  c #556363",
"T  c #5D6262",
"R  c #5D6A63",
"E  c #5D646A",
"W  c #5C6969",
"Q  c #5C7065",
"!  c #626463",
"~  c #6B6464",
"^  c #636966",
"/  c #636569",
"(  c #646A68",
")  c #6B6A6B",
"_  c #696767",
"`  c #766866",
"'  c #787067",
"]  c #797577",
"[  c #70706F",
"{  c #91181D",
"}  c #AE1801",
"|  c #962904",
" . c #9A3B07",
".. c #89261B",
"X. c #912B10",
"o. c #B62807",
"O. c #A73509",
"+. c #AA2C1A",
"@. c #BA281A",
"#. c #A83912",
"$. c #B12D12",
"%. c #8F182C",
"&. c #982A26",
"*. c #89382B",
"=. c #952838",
"-. c #953A33",
";. c #8C362E",
":. c #A33426",
">. c #B12E32",
",. c #A21B29",
"<. c #C52906",
"1. c #C93707",
"2. c #C72916",
"3. c #CE330F",
"4. c #CC3624",
"5. c #B8481A",
"6. c #AB4607",
"7. c #B6671B",
"8. c #9B4225",
"9. c #9C583A",
"0. c #8E4D36",
"q. c #BA4823",
"w. c #AB5725",
"e. c #A6573B",
"r. c #AC4F2F",
"t. c #8C623C",
"y. c #AB663A",
"u. c #B9722D",
"i. c #9E4A1C",
"p. c #CE4F1B",
"a. c #E44704",
"s. c #C0631E",
"d. c #C45626",
"f. c #CC5130",
"g. c #EA5434",
"h. c #CB6936",
"j. c #D47330",
"k. c #E8762A",
"l. c #F66737",
"z. c #E77839",
"x. c #F5763A",
"c. c #F46E28",
"v. c #E4701D",
"b. c #992C44",
"n. c #893644",
"m. c #B1384D",
"M. c #CA385C",
"N. c #844848",
"B. c #895843",
"V. c #995949",
"C. c #885956",
"Z. c #985B57",
"A. c #92454B",
"S. c #A55A47",
"D. c #AD5251",
"F. c #846856",
"G. c #966556",
"H. c #8E6F49",
"J. c #A8694A",
"K. c #B86A47",
"L. c #BB774A",
"P. c #A96A55",
"I. c #B47458",
"U. c #B37251",
"Y. c #8A5C62",
"T. c #935A61",
"R. c #AC5A69",
"E. c #87696B",
"W. c #956A6B",
"Q. c #99786A",
"!. c #8A6E73",
"~. c #867679",
"^. c #947678",
"/. c #8F706B",
"(. c #AF706D",
"). c #C75A45",
"_. c #D0545E",
"`. c #EF5642",
"'. c #C97B59",
"]. c #D57755",
"[. c #CD7046",
"{. c #E27844",
"}. c #F57543",
"|. c #F17350",
" X c #CF5B68",
".X c #D5913B",
"XX c #CD8630",
"oX c #EA8736",
"OX c #D1A43D",
"+X c #BA8750",
"@X c #A98674",
"#X c #BC8968",
"$X c #91847C",
"%X c #C9834A",
"&X c #DB9549",
"*X c #D78859",
"=X c #D2834C",
"-X c #F98A53",
";X c #E59A56",
":X c #F9965A",
">X c #EB8650",
",X c #DCB057",
"<X c #E9A857",
"1X c #E9B55A",
"2X c #F7A95A",
"3X c #CD8E6B",
"4X c #E89070",
"5X c #CDA36F",
"6X c #F8A867",
"7X c #FBBC67",
"8X c #FAAB76",
"9X c #FDBB76",
"0X c #FBC96D",
"qX c #F6D26B",
"wX c #EACC78",
"eX c #FEC373",
"rX c #FCCC74",
"tX c #FECC7C",
"yX c #F8C779",
"uX c #EDD775",
"iX c #FED47B",
"pX c #F5DC7D",
"aX c #F9D777",
"sX c #E8D66A",
"dX c #F9E374",
"fX c #F1C25A",
"gX c #7F7880",
"hX c #837C82",
"jX c #997C82",
"kX c #B47986",
"lX c #898487",
"zX c #978686",
"xX c #928C92",
"cX c #9B959A",
"vX c #AF9190",
"bX c #A59BA2",
"nX c #BA9BA3",
"mX c #B9ABB0",
"MX c #C78A97",
"NX c #FFBE87",
"BX c #FAB18F",
"VX c #CAA5AF",
"CX c #C8A496",
"ZX c #FDCE84",
"AX c #FAC687",
"SX c #EFD380",
"DX c #FED584",
"FX c #FDDA83",
"GX c #F7D788",
"HX c #FCC698",
"JX c #FDDB93",
"KX c #FED697",
"LX c #EDCF89",
"PX c #FFE78B",
"IX c #FDDFA1",
"UX c #FFE0A2",
/* pixels */
"/ l k ^ T T ^ l z ! R l ! Q U b k l ~ V B ~ / I ` N ~ l k ( T G ! T ! Z k C ^ ! ^ V V ^ V ( T T ^ ^ ",
"lXlX) l T T l k T B b b k k K K ! V l T ( ) [ E.N.i N B V ! V T G T V ~ ` ` ~ ] ) ^ T T l ^ ! l T T ",
"xXcXhX) l ^ ! V W k l ~ B l ~ m M T k l / ` !.W.D.=.v B l n C R ~ W T M C.W.~.hXhX[ ! T V T ! ! ^ ^ ",
"lXcXcXlX! V ! k ^ T Y ^ b V Z c n.~ R ! K n N.=.>.=.v B ! L V B ! B b N.=.R.(.` hX~.) ^ T T T l ! T ",
"gXxXbXcX] ^ ! V K ^ Y B b m v m.b.` T K L Y.Z.>.>.u m l T / ! T ! C n n.,._.(.E.] hX~.^ V V T T T T ",
") ] lXxXcXhX) ! l T ! ! T v b.M.m.M V ~ ~ M A.%.R.b T K Y Y K / h T n n.&.>.A.E.E.^.zX] [ ^ V T V V ",
"^ ) ) ] cXxXhX_ T B / ! ^ M n._. Xn k ! l n M v M B W ~ R C l G C ^ _ m 0.=.*.E.!.^.jX~.zXzX] ) T T ",
"R k ! _ lXcXbXhX( k W k T Q n R.R.b Z ~ B l ! B k W ( l V V ! l V k E B N ;.;.W.vXjXW.q E.VXbXlX[ [ ",
"k l V T ^ [ ] lX~.lXlX] n V C ~ ~ ! l T T l G K L h V Z U Y L T l G l ^ b ! b n !.^.jXI ^.nXnXnXbXbX",
"T T T T ! ! ^ ^ vXVXVXVXvX` l b b Z V T ^ T T G R W K b R R ! T T T V T l ! Z ! ~ ` ` I ` jXzXbXmXmX",
"l l V T l l T ^ jXkXT.kXMX!.^ ^ V ! V ! T T T k B W E K Z S C T T T T k l V T V V l ! ! ~ ! ) lXxXcX",
"T T T T l h k T E.(.n.(.MX!.l x T ! l l V V T V m B R ) Z Z T T T T T k V l T l T T V T ^ V V ^ [ [ ",
"V V T ^ T k h h A T.7 =.b.T.~ l V T l l T T ^ T L C D /.A T / Y ! ! ^ l ! T ! V T T T T ^ ^ ^ l T T ",
"k k l l V V V V j M u =.%.T.A h l V l T T l ! V Y S J.].G.S ! T ! ! ! l ! V ! T T ! G V T ! ^ ^ T T ",
"! ! V k l T T l ! b M D.=.T.Z ! T T l T T z l ! k F [.}.[.H.A ! T V l ! l V l T T G ! ! l l Z ! T T ",
"V T T l T ^ ! z P Y R v u M Y K ! G l T T V ~ [ I F.y.v.x.L.F.~ C V V ( ! T l T T l ^ T V T V V ^ ^ ",
"l l ! l h T V l T l h l T V V T Y L L V j ~ G.L.'.*X#. .eXeXu.u.Z b K W R V S C T l V ! T V V T l l ",
"T l T T V T l l T l k l T l k l l B h T ! /.'.*X=X>Xq. .9X9X&X&XH.D Y T S z G T ^ T l T ! ! ^ ^ ! ! ",
"T h V ! T T l T ! T T ! ^ T l l ^ Q B G M U.8XKX&X{.$.| NXJXtX2XXXH.Y B S b G / T V T ^ ( ^ ! T T T ",
"T h l T T T l l T l l T T T l l h n T T C.8.*XJX1X:X5.O.9XAXDX7Xj.J.) J V C C V V l T ^ ( ^ T T ! ! ",
"! V T l l T l h T l l l T V l l ~ K T D S.X.].KXFX9X6.6.9XDXDX1Xu.L.F.G J C C T ! T T T T T ^ ^ T T ",
"T l T l k T T k ^ T V l T T T V W U ` K.[.| ].KXSXtXj.7.eXDXFXiXyX;XL.D E ^ V H T T T T T T T T l l ",
"l h V l l T T V T V l k l l l h W S J.{.g.| %XKXwXiX.XXXeXZXpXpXiX<XXXJ.D ~ ! G l V T T ! T T l T T ",
"l h l T l l h l T T V l V T V l L S.{.7X2Xs.;XKXiX0XXXj.9XDXpXsXFXiX7X6XI.F.A ~ ^ T l T T ^ ^ T ^ ^ ",
"k h h k l l l k l C l G W k m V S ).-XiX,XXX<XGXZXeX.X.XrXFXSXuXuXuXGX*X).(.S T l V V l G T T T T T ",
"T V l l l l l k l C l l T V j V j *.w.tXiXaXrXFXAXJXeX0XDXSXGXpXaXFXJX[.:.P.S T ! Z V Z ^ ^ T V l l ",
"T T V l l l V T l T l j T Y l l A a 0.8XNXuXiXDXLXJXDXFXGXSXGXaXiXiXZX[...G.Z T ! V k l V V V V V V ",
"l V V l l l T T l T l j V Y H b n Q.(...).KXyXZXGXuXuXGXGXSXFXuXaXiXAX'.;.W._ G T V T T T V T ^ ! ! ",
"l V T V l l l l k T V j l Y T D /.@X(.:.f.8XeXZXaXsXdXpXSXSXFXaXqXDXKXJ.2 W.' b T T T W / T ! ^ T T ",
"l l l l l l l l k E T S b J Z G.U.*X*X+.@.z.:XDXaXqXdXuXpXaXqXaXqXDXUXt.+ ^.$X` ` ~ ! T T T G K V V ",
"l l l l V T T T V E Y C b J A J.j.=X{.$.4.p.-XwXFXpXuXuXDXtX<XfXaXDXUXF + @XvXc c v M Z V T ^ ^ ! ! ",
"T T l l l V V l Z G Y C b J A K.j.oXh.o.} 1.j.KXSXGXwXGXZX9Xu.XXaXFXLXs O Q.CX+ * e N A V V V V ^ ^ ",
"T l l h V l ^ ^ ! k V W K l ~ K.z.2X:Xo.f.p.oXDXwXJXGXAX;X>Xk.oX0XaXPX+Xt.a a #X3X..0.S K / Y l ! T ",
"! T T l T k l l V G C Y ~ l b y.z.eX8X} 4.{.6XFXwXSXtXeXz.k.x.oX0XqXFX5XI.< = HXBX:.u j T / R V l l ",
"T V T l T k l l h ^ V Y ! k Z L.z.eX6X`.|.6X0XrXpXiX;Xz.1.1.v.oXiXrXrXZXAXL.y.AXAX+.-.S W T R ( ! ! ",
"l l l h V l T T k ! V W ! B _ K.j.iX0Xj.;XqXdXqXtX9X>Xg.3.3.l.-X9XeXiXrXeX&Xj.ZX9XO.-.A R / V C T T ",
"l l V k T l T T T l j W ! C Z 8.6.rXpX9XeXPXOXj.d.O.o.<.<.3.|.g.O.s.j.1XiXeXrXrX0Xh.I.D C l K ! ^ ! ",
"k k T l ! l T l T l j W l V Z X.| ZXSXHXNX9X-X}.f.o.1.<.<.2.`.g.<.p.z.2XeXrXeXrX7X*X(.' Z ^ ! T l l ",
"l l V l T l T T B ! b T l l ~ :.q.AXGXHXBX| $.+.} o.l.l.3.<.2.4.2.o.o.d.=XAXJX+X%X#XQ.' l j z / ^ ^ ",
"^ T T h l k T T k ^ j Y ! l n &.<.:X8X8X].@.@.+.4.1.l.l.<.<.2.4.@.2.2.f.).3X5X+X+X@X' ! ! ^ V ( ! ! ",
"G ( V C ^ z l ! V l C h ! J D &.$.#. .| 5.|.:.> d.k.v.l.1.1.}.`.@.@.>.{ * * = 3XvXzX) T B C V ! T ! ",
"G l h V ^ G l x h T V ~ m m a K.d.|  .5.p.x.q.: I.<Xk.c.a.a.x.h.X.&.%.%.{ &.8.0.F.M z / T V ! K l l ",
"T l k V k G ( V W z b N - 3 : ].].|  .}.}.z.w.: 5XJXoXc.c.c.k.h.1 r * %.m.].4X= +   & G / ! l / l l ",
"^ ! l ! k T V j x a 0 B.e.d.d.r.e.: 1 ].[.h.8.3 L.;Xh.h.5.5.7.7.w.0.7 7 r -.0.V.B.- % f x z ^ ^ T G ",
"V ^ Z ^ G ! j n < 2 : i.{.x.|...e ; : *X'.K.-.1 r.].K.S.*.r w.y.*Xe.r * ; , 2 3X(.= #   & b j C ^ T ",
"V Z z ! ! b p c 0.e.h.h.z.p.:.2 9 2 3 J.9.r -.8.y.e.S.Z.6 ; u t K.e.9.0., # = t u 9 0 q w @ x C l l ",
"T h x T l m 0 e e.U.].*X*X-.r - - i 3 t.t., A.K.9.P.S.Z.6 8 y c V.V.S.t 0 O O 9 d y 0 0 8 O g b ^ ^ ",
"T l l T p p N.I.J.V.J.*.t e 6 o O C.B.V.a 5 u V.9.S.t y   # # < i N.G.V.(.y q $ O 5 9 0 0 8 & @ h z ",
"! T T b q y Z.Z.B.Z.Z.0.y 5 % @ . G.P.B.c 5 y P.S.P.u y $ o # 8 q N M G.Z.u y o o @ $ d y q 8 O n L ",
"G G l j q 0 Z.V.G.u = = - . X X o B.B.i e # q V.J.V.< -     o o   O 5 c Z.y w   . o O # 8 w q q @ @ "
};
