/* XPM */
static char *_2827a26a4c440eab201dadb75ee307b[] = {
/* columns rows colors chars-per-pixel */
"50 50 210 2 ",
"   c #191A1A",
".  c #201E16",
"X  c #1E221E",
"o  c #222018",
"O  c #171C28",
"+  c #0C1F33",
"@  c #1A2226",
"#  c #16212D",
"$  c #192536",
"%  c #1C2A3B",
"&  c #232523",
"*  c #242927",
"=  c #22252A",
"-  c #242A2A",
";  c #2C2D2B",
":  c #312F2D",
">  c #36342E",
",  c #282A34",
"<  c #322D33",
"1  c #2D3131",
"2  c #25323C",
"3  c #2C333F",
"4  c #343339",
"5  c #383938",
"6  c #44393A",
"7  c #0F2A4F",
"8  c #152844",
"9  c #1D314E",
"0  c #0E2F57",
"q  c #212E41",
"w  c #233646",
"e  c #383E44",
"r  c #263B56",
"t  c #393F59",
"y  c #17366B",
"u  c #173C6E",
"i  c #113973",
"p  c #1A3A71",
"a  c #153C7B",
"s  c #1B3F79",
"d  c #253E64",
"f  c #233B69",
"g  c #223F77",
"h  c #463D49",
"j  c #433D57",
"k  c #2E414D",
"l  c #3F454A",
"z  c #2B4155",
"x  c #2B455C",
"c  c #364154",
"v  c #3C4C5C",
"b  c #1C446C",
"n  c #194477",
"m  c #16427C",
"M  c #1B437D",
"N  c #294665",
"B  c #26436E",
"V  c #2B456C",
"C  c #354868",
"Z  c #3D5466",
"A  c #3B5469",
"S  c #3F596E",
"D  c #234475",
"F  c #2B4674",
"G  c #2D4C74",
"H  c #22467B",
"J  c #244B7D",
"K  c #2A4C7B",
"L  c #344D74",
"P  c #364B7A",
"I  c #395576",
"U  c #3D5A7A",
"Y  c #45424B",
"T  c #49484A",
"R  c #454757",
"E  c #4A5555",
"W  c #555456",
"Q  c #57595A",
"!  c #5A5E5D",
"~  c #5C605F",
"^  c #495767",
"/  c #43526A",
"(  c #4B5A6B",
")  c #545D66",
"_  c #435572",
"`  c #435C75",
"'  c #4A5F72",
"]  c #445C7A",
"[  c #495C7A",
"{  c #605B61",
"}  c #576262",
"|  c #5E6261",
" . c #5E656C",
".. c #486376",
"X. c #47637C",
"o. c #4B647D",
"O. c #536373",
"+. c #556377",
"@. c #5A6A7B",
"#. c #616564",
"$. c #646867",
"%. c #626668",
"&. c #656A6A",
"*. c #6A6E6E",
"=. c #6C706F",
"-. c #646B72",
";. c #696F71",
":. c #6C7173",
">. c #69757E",
",. c #6C747C",
"<. c #717577",
"1. c #71767B",
"2. c #71797B",
"3. c #163C83",
"4. c #193F87",
"5. c #1B4384",
"6. c #1B458B",
"7. c #1B4B88",
"8. c #1C4C8D",
"9. c #1D528F",
"0. c #194793",
"q. c #194990",
"w. c #1F5091",
"e. c #254786",
"r. c #224C82",
"t. c #2A4C84",
"y. c #244C8C",
"u. c #294D8D",
"i. c #344E83",
"p. c #2B5284",
"a. c #255588",
"s. c #2C528A",
"d. c #325384",
"f. c #335A84",
"g. c #375588",
"h. c #3C5C8A",
"j. c #234F92",
"k. c #295997",
"l. c #2B569B",
"z. c #335B94",
"x. c #385E94",
"c. c #3B628D",
"v. c #2C619F",
"b. c #396499",
"n. c #305EA1",
"m. c #3964A4",
"M. c #3668A8",
"N. c #3D70AE",
"B. c #3F76B1",
"V. c #405B84",
"C. c #436483",
"Z. c #486486",
"A. c #486886",
"S. c #4E6B8B",
"D. c #566B85",
"F. c #5A7287",
"G. c #5C768A",
"H. c #496A91",
"J. c #506E97",
"K. c #5E7490",
"L. c #6A7A88",
"P. c #767D84",
"I. c #767F88",
"U. c #617C96",
"Y. c #7C7F93",
"T. c #5277A8",
"R. c #527AB5",
"E. c #607EA2",
"W. c #7B8185",
"Q. c #77858C",
"!. c #7B8389",
"~. c #6C8499",
"^. c #738291",
"/. c #7A8A99",
"(. c #7F8FA5",
"). c #838486",
"_. c #838E94",
"`. c #889398",
"'. c #8A97A8",
"]. c #929CB0",
"[. c #A09FA7",
"{. c #9CA1A6",
"}. c #8CA0B5",
"|. c #8EA4BA",
" X c #92A0B7",
".X c #94A4BC",
"XX c #8FA6CC",
"oX c #8FAACE",
"OX c #94A9C5",
"+X c #96A8C4",
"@X c #94AACA",
"#X c #99AECD",
"$X c #9CB0CB",
"%X c #B2BDC7",
"&X c #A8B6D3",
"*X c #B7C1C5",
"=X c #ACC1D8",
"-X c #C8CBD2",
";X c #CFD4D4",
":X c #D7DDE6",
">X c #DADCE3",
",X c #D6E4E7",
"<X c #DCE2E6",
"1X c #D5E4E9",
"2X c #DDE3EC",
"3X c #DDE4F0",
"4X c #E0E4E9",
"5X c #E4EBEC",
"6X c #E7ECF6",
"7X c #EBF0F5",
/* pixels */
"~ | ! #.| | | ! ! Q Q ! $.$.~ | Q ! | | | ~ ! ! | ~ | | ~ | | | | ~ | ~ ! Q ! ~ ! | ! ! ~ | ! ! ! ! ",
"$.| ! | | | | | ~ | | ! ! | Q Q | | $.| ! ~ ~ | | ! ! ! ! ! ~ ~ ~ ! $.$.| ~ | ! ! $.~ ~ | #.| ! ~ | ",
"! | | | #.| | ! ~ ! $.#.| | | | #.~ ! #.#.! ! | | ~ #.~ ! | | #.| ! ! ! ! ! #.! Q | | #.! ! | ! ! ~ ",
"| $.#.| $.! | ~ ! ! ! | | $.| | ! $.| ! | ! | ! ~ ! ~ | ! #.| ! | #.| ~ ! ! ! | ~ ! ! | Q Q ! W Q | ",
"! | ! | ~ #.~ $.~ ~ ! | ! | | | ! Q | ~ | Q | ! | ~ ! ~ | ! | | ! | ~ ! #.#.| ! ! ~ ! | #.| | ! ! | ",
"| | | | ! ! ! | ~ ~ ! | | ~ | $.| ! | ! _.^.@.,.).).1.@.^.P.| ~ ! ! ! ~ Q Q ! ! ! | ~ | | | | ~ $.#.",
"~ #.&.| ! ! ~ ~ | $.! | #.~ ~ | #.! P. .) L P +X>X:X}.G H f D.2.~ ! ! ! ! ! | ! ! ! | | ! ! | ! | $.",
"~ | $.| | #.$.~ | | ~ ! ! ~ ! $.| W.*.f D g i.&X6X6X+XH 5.r.b A :.#.! | ~ | $.~ ! ! ! | ! Q ! ! ! ~ ",
"~ ! #.$.| ~ $.| ! ! $.| #.| #.| | %.` M p.f.H.=X7X7X&XJ.z.7.n I L.~ ! | ~ ! | | ! ! ! ! | | ~ ! ! ! ",
"| | | | | | ! #.| | | | | ~ | | | %.K k.c.A.o./.{.[.Y._ h.a.a.a.K.| | ! | ~ ! ~ | ! | ~ ! $.| | | ! ",
"| $.$.| | #.~ ! | | ! | ~ #.! $.<.-.J B.G z k e 4 < , $ 8 b v.7.Z.%.! ~ Q | ! ! #.~ #.| Q ! ~ | | #.",
"$.$.| | | | $.| $.| ! $.| $.| ! !.>.a.N.V c l 5 1 ; = # + 0 M.8.c.P.! $.! #.| ! ~ Q ! | | ! ! ! Q | ",
"! ! | | | $.#.! | | | | | ! | | Q.F.r.m.C j h 5 : * @ @ $ 7 z.q.c.I.| ! ~ ~ | ! ~ $.! | $.| ! | Q ! ",
"| $.| ~ | | | | | | | ! ! ! | ~ Q.S.a.b.t h 6 > ; & X   O 8 g.6.x.L.| | | ! | | ! ! | ! ! | ! ~ ~ ! ",
"#.| #.| | #.| ~ ~ ! ~ #.! | | | ^.S.J C.t h 6 > ; & X .   $ g.y.h.L.! | #.| ~ | | Q ~ #.! ~ ! ! | ! ",
"$.$.$.$.| $.$.#.| | ! ! ~ | ! #./.H.f.X.e 5 5 > & &   o   O L t.V.2.~ ! ! #.! ! | ! ! | ! | ~ ~ ~ | ",
"! | $.| | | ~ $.#.#.$.| ! $.| | /.H.I ` r k 2 , - = O   O $ G D U ,.! | ! | | | ! | ! ! ! ! ! #.#.$.",
"$.| ! ~ | ~ #.| ! | | ~ | | | | /.S.I Z.B F L (.%X%X/.N f y p.b ..2.! | ! ~ #.| ! | | #.! | Q ~ ! ~ ",
"$.#.| ! #.| | | ~ | #.| | | | | _.U.S S.H e.d.#X:X1X+Xd.u.r.p.B ..<.! ! ! ! | ! | ! ~ | ! | ! ! ~ | ",
"| $.$.| | ! #.| ! #.#.#.$.| | ! `.~.Z D.H 6.s.@X>X>X.Xt.7.J d.V +.*.| | ! | | | | ! ! | | ! ! ! ~ ! ",
"| | #.$.| ~ #.#.| | | ! | #.! ~ _.U.Z A.M 6.u.@X<X<X.Xr.7.7.d.d O.=.~ | Q | | | | ! ! ~ ~ ~ ! ! Q ! ",
"~ | #.#.| $.#.| ! | ~ | | | ! | `.F.A Z.M 6.u.XX<X<X|.r.q.6.t.d O.<.! | ~ ! ! #.| ! ! ! ! ~ ! ! | ! ",
"#.| $.| | ! | | | #.| | #.~ ! | `.F.S C.M 6.u.oX,X,X|.r.0.6.t.d O.<.! ! | #.Q ! | ! | | ! | | ~ Q ~ ",
"| ! ~ ! $.| ~ ! ! #.! ! $.$.$.| _.G.` C.M 5.u.oX1X1X|.r.0.4.t.N O.:.! Q ! | ! ! | ~ ! ~ ! ! ~ ~ ! | ",
"! ~ | | | #.| ! | $.| ! | | #.#.Q.F...C.n H t.@X1X1X|.K y.5.K N O.:.! Q | | Q ! | ~ ! ~ ! ! ~ | ! ~ ",
"#.| | | | ! | ~ | ! ~ ! ! ! ~ | !.D.` ] B K P +X2X2X.XG t.D L x O.<.! | ! | ! ! ~ ! Q Q ! ~ Q Q ! ! ",
"$.$.| | #.| | | | | $.&.$.$.$.| !.@.' ' A S _ ].-X-X'.C V r N x ( :.! ! ~ | ! | | | ! ! ! ! ~ ! Q | ",
"| | ~ $.| $.#.~ ! | | | $.~ ! &._.,.( ( v v R R T Y 3 % % # w x / -.! ! ! ! ! ! ! ~ ! #.| ! | ! ! Q ",
"! ~ ! ~ ! ! $.! ! | ~ ! | ~ | W.W.^ / ^ E T Y e 5 4 , , $ @ 2 z / -.! | #.| ~ ! | $.Q ! ~ ! ! ~ | | ",
"#.| $.#.| #.~ $.#.| | | | ! ~ <.P.) / ^ E E T Y e 4 < , * * 2 r / :.! ! ~ $.~ ! ! | ! | ~ ! ! ! ! #.",
"$.| | | $.&.| ! ! | ! | ! | Q #.<.&.( O.} ! W T Y 5 < ; * - 2 C +.*.| ! ~ #.! | ! | ! ! | | ~ | Q ~ ",
"~ | #.#.$.*.$.! ! #.~ | ! $.~ | &.$.v ^ } ! { W l 5 : ; 1 1 % N +.:.! ! | #.! ~ | #.| Q #.| ~ | ! ~ ",
"$.#.$.$.| #.#.| | $.#.| ! ! #.| | | C r z c R l 5 4 3 3 2 q 9 F D.*.! ! ! $.~ ! ~ | ! ! | | #.| ! #.",
"! ~ | | | ~ | | ! | | | $.#.| | ! ) h.H p p B '.*X*X/.B y p s x.o.:.~ | ~ ! ~ Q ! | ! ! ! ! ! | ! ! ",
"$.$.| | | ! ~ #.| ~ ~ ! ~ $.$.| ! ' p.n.4.6.s.@X2X<X|.H 6.3.l.k.] ;.! ! #.#.! | | | Q | | ! ! | | | ",
"~ ~ | | | ! | | | ! | ~ ! ! $.| ! A n N.6.5.s.+X<X2X.XM 6.a m.M U ;.| ~ ! | ~ #.| | ! | $.~ ! | ~ | ",
"| $.$.| | | ! ! | | | | $.! ! $.| S u M.8.m s.+X>X4X XJ 5.5.m.m U :.! $.| ~ Q ! ! | ! ~ | ! ! ! ! ! ",
"| ! | $.| | | ! | | ~ $.| | ! $.| ` n v.9.m p.@X<X4X.XK 3.5.l.a C.,.Q ~ ~ | | | | ~ ! Q ! | | | | ~ ",
"! | | | ~ $.#.| ! | ! | ! | ! | | ] s k.k.n p.#X2X2X.XK a j.l.m C.:.Q Q ~ ! ! | $.#.| ! ! ! | #.! | ",
"! | | ! ! | | #.| | | ~ ~ ~ ! ! $.[ M w.M.i f.#X2X2X.XK a n.j.M U %.#.| $.| | | | | | | #.| Q | ~ ~ ",
"| ! | | ! $.| | #.| | | | ~ ~ | | +.H y.M.i p.#X2X3X+XD i m.j.J o.! ! | | ! | | | ! ~ ! ! $.| | ! ! ",
"! ~ | $.| | | ~ ! | ! | | | | ~ ~ | ] b.M.M s.#X5X2X|.K M l.T.A.-.! Q | $.Q Q | $.| ~ ~ | ! ~ ~ ! ! ",
"| #.| ~ ! | | | | ~ | | | ! | | ~ ! ! E.R.e.z.#X<X4X.XK 5.R.E. .Q Q Q ! $.| ! | | | | ! | | ~ ! ! | ",
"| #.#.| ~ $.| ~ $.| ! | | ~ ! $.~ | ~ | D.g.h.$X5X5X+XI f.Z.! $.| ~ ~ ! | $.| #.! | $.| ! ! ! ! ! ~ ",
"| ~ $.| | | ~ ! #.$.| | | #.#.#.| | | | ~ ! _ ].;X;X'.Z ) | ! Q Q Q ! | $.~ | $.! ~ #.$.~ ! | | ~ | ",
"~ | ! $.| ~ ! ~ ! ! | ! ~ ! ! | | ! ! ~ #.| | | ~ $.| ! #.| ~ | #.! ! ! ! ! | ! $.| ! | | ! | | ! #.",
"| #.~ | | | | | | #.! ! | ~ ! ! | #.| ! #.#.! ! ~ | $.| ! | ! | #.| ! #.#.! $.! | $.~ #.$.Q ! | ~ | ",
"$.$.| | ! ! | | ~ $.| ! | ~ | | ! | | ! | ! ! ! ! ! ! $.| | ! ! #.! ! | | ! | | | | ! | #.! ! | ~ ! ",
"| | | #.| ! | | | ~ $.| | ~ $.$.| | | | | | | ! ! | ! ! | | ~ ~ ! | ~ ! | ! | ! ! | ~ ! | $.| ~ ! ! ",
"| $.~ $.$.| | ! | | ~ | | | ! | | ~ ! | $.| | | ! | ! Q ! | | | ! ! ! | $.! | $.| Q | | | | #.! ! ! "
};
