/* XPM */
static char *_c03284b704b42fee0343aa0165d8200nlaSmKmFAdhLiKE2[] = {
/* columns rows colors chars-per-pixel */
"50 50 224 2 ",
"   c #0F0E0C",
".  c #17140F",
"X  c #0B1119",
"o  c #171918",
"O  c #1D221D",
"+  c #20221F",
"@  c #0B1729",
"#  c #131C22",
"$  c #1A1C24",
"%  c #081A35",
"&  c #141F36",
"*  c #231E2E",
"=  c #1D2423",
"-  c #18262D",
";  c #172537",
":  c #1D2D3A",
">  c #242927",
",  c #23242B",
"<  c #242B2E",
"1  c #2A2828",
"2  c #2C2B2B",
"3  c #302F2F",
"4  c #37312C",
"5  c #282C37",
"6  c #2D3233",
"7  c #24333C",
"8  c #353334",
"9  c #343A3A",
"0  c #393838",
"q  c #423637",
"w  c #3D433E",
"e  c #0B1E41",
"r  c #182B47",
"t  c #18304E",
"y  c #022754",
"u  c #2A3D4C",
"i  c #353A42",
"p  c #233D55",
"a  c #263D56",
"s  c #343E54",
"d  c #343B5E",
"f  c #0B306A",
"g  c #1A3A6A",
"h  c #012F75",
"j  c #0C3473",
"k  c #043778",
"l  c #043C7C",
"z  c #0C3C7C",
"x  c #183C76",
"c  c #133D7D",
"v  c #233C66",
"b  c #2F3E6D",
"n  c #203D72",
"m  c #443A48",
"M  c #413A58",
"N  c #3B434D",
"B  c #24435D",
"V  c #3B485C",
"C  c #1B436A",
"Z  c #0C457B",
"A  c #134174",
"S  c #14427C",
"D  c #1D437B",
"F  c #1C4B7B",
"G  c #2D4767",
"H  c #26436D",
"J  c #364969",
"K  c #385365",
"L  c #35536A",
"P  c #3A536A",
"I  c #244474",
"U  c #284976",
"Y  c #21457B",
"T  c #234A7D",
"R  c #304D74",
"E  c #324B7C",
"W  c #2D547D",
"Q  c #3C5474",
"!  c #3C5873",
"~  c #35567B",
"^  c #3D5C7C",
"/  c #3F6178",
"(  c #434144",
")  c #46444D",
"_  c #484753",
"`  c #485455",
"'  c #545356",
"]  c #545857",
"[  c #565A5A",
"{  c #5A5E5D",
"}  c #5C605F",
"|  c #485667",
" . c #42526A",
".. c #49596C",
"X. c #535D67",
"o. c #445776",
"O. c #435C73",
"+. c #425D7B",
"@. c #605A61",
"#. c #5E6261",
"$. c #5B6469",
"%. c #4D6374",
"&. c #49637D",
"*. c #526274",
"=. c #54647A",
"-. c #596A7C",
";. c #616564",
":. c #646867",
">. c #626668",
",. c #656A6A",
"<. c #696D6E",
"1. c #646B71",
"2. c #676D74",
"3. c #6C7173",
"4. c #63727F",
"5. c #6B737B",
"6. c #707577",
"7. c #717679",
"8. c #727A7C",
"9. c #063986",
"0. c #0C3D83",
"q. c #0C3D8C",
"w. c #113D88",
"e. c #0C3F91",
"r. c #0C4283",
"t. c #0B448E",
"y. c #134484",
"u. c #1C4481",
"i. c #144986",
"p. c #1A4A85",
"a. c #12448D",
"s. c #1E458A",
"d. c #194D88",
"f. c #17538F",
"g. c #064494",
"h. c #0B4193",
"j. c #0E4C93",
"k. c #154691",
"l. c #154D95",
"z. c #1D4A93",
"x. c #1A569C",
"c. c #234B83",
"v. c #2B4D86",
"b. c #244C8C",
"n. c #2C4F89",
"m. c #23528A",
"M. c #295488",
"N. c #2B558B",
"B. c #365989",
"V. c #244C92",
"C. c #245899",
"Z. c #345C96",
"A. c #3F6186",
"S. c #3D628A",
"D. c #346399",
"F. c #2759A6",
"G. c #265CA4",
"H. c #315FA7",
"J. c #2B65A6",
"K. c #3264AA",
"L. c #2E6CB2",
"P. c #356EB2",
"I. c #3975B6",
"U. c #436484",
"Y. c #456489",
"T. c #4A6988",
"R. c #556A86",
"E. c #577289",
"W. c #5B748B",
"Q. c #4A6B95",
"!. c #5D7493",
"~. c #6D7985",
"^. c #757E87",
"/. c #787E84",
"(. c #607B95",
"). c #5C7CA6",
"_. c #4A77B6",
"`. c #7D8386",
"'. c #74818D",
"]. c #7B848A",
"[. c #6B859C",
"{. c #738393",
"}. c #7B8A98",
"|. c #7B8DA1",
" X c #7F90A8",
".X c #848587",
"XX c #838E94",
"oX c #869097",
"OX c #89949A",
"+X c #8C97A5",
"@X c #909DAE",
"#X c #8194B1",
"$X c #939DB3",
"%X c #9DA2A8",
"&X c #8EA5BC",
"*X c #94A3BD",
"=X c #A1A0A9",
"-X c #8FA7CF",
";X c #94A5C2",
":X c #97A9C4",
">X c #93AACC",
",X c #99ADCB",
"<X c #9DB1CE",
"1X c #8FABD1",
"2X c #99B0D0",
"3X c #A1AFC2",
"4X c #B3BEC9",
"5X c #A9B7D6",
"6X c #B8C2C7",
"7X c #ADC2DA",
"8X c #C9CCD4",
"9X c #D0D5D5",
"0X c #D7DEE7",
"qX c #DADDE5",
"wX c #D6E4E7",
"eX c #DDE3E6",
"rX c #D6E5EA",
"tX c #DCE4EB",
"yX c #DEE4F1",
"uX c #E0E3EB",
"iX c #E4EBED",
"pX c #E6ECF7",
"aX c #EAEDF7",
"sX c #EBF0F6",
/* pixels */
"{ { { ;.#.#.#.#.[ #.:.#.{ :.#.{ { { #.#.#.[ [ { #.{ #.#.#.;.#.{ } #.#.{ #.#.#.} #.#.{ #.#.;.;.} ;.#.",
"{ { } #.;.#.{ } #.[ { #.{ #.{ } #.{ } } #.#.{ { #.[ { #.#.#.#.#.#.#.;.;.} #.#.;.} #.#.#.{ #.;.#.#.#.",
"{ } #.{ { ;.#.{ #.#.#.#.[ #.#.[ { ;.{ { #.#.:.{ { { { { { #.{ #.#.{ #.#.} #.{ #.;.} #.#.[ { #.#.;.;.",
"#.} #.{ [ ;.;.} ;.#.{ ;.{ ;.;.{ #.;.#.{ #.{ #.;.#.} { { ;.;.{ #.;.#.{ { } #.{ [ ;.#.#.#.#.#.#.} ;.#.",
";.{ #.#.{ #.#.{ #.;.{ #.{ { { [ { ;.#.} #.;.{ #.;.{ #.#.#.;.} { { #.#.{ { } [ #.{ { } { } #.;.[ #.} ",
"#.} #.#.{ } :.;.} { ;.#.} ;.#.{ [ [ [ { #.X.P +X9X9X@Xo.[ } #.#.#.#.;.;.;.#.#.#.;.;.{ } #.#.#.;.} #.",
"} { { { { { #.;.#.{ ;.#.;.#.{ } } #.;.{ Y.N.W 3XiXiX<XB.n.E.#.} #.} ;.[ } #.#.{ #.;.} #.;.} #.;.;.#.",
"#.{ { } #.#.{ #.#.#.#.[ #.;.{ [ [ [ $.)._.y.c.:XiXeX2XZ.s._.).{ { } #.#.{ #.#.#.} #.#.#.#.{ } #.;.#.",
"{ { } } { #.} } #.;.#.[ [ ;.#.[ { 1.Y._.G.0.Y &XtXiX2Xb.0.K.D.^ #.} } #.#.#.#.{ #.{ } #.#.#.;.#.} { ",
"{ { #.#.;.{ { } { #.#.#.{ #.#.{ { &.i.l.G.h D ;XyXtX2Xm.h L.l.D =.#.#.} } #.#.#.#.;.#.#.;.{ #.#.{ #.",
"} } #.[ #.;.#.#.#.#.#.#.#.;.#.;.,.B.r.l.F.k T ;XyXtX2XN.k L.l.c +.;.{ { } } } #.#.#.;.#.#.{ { #.#.{ ",
"#.{ ;.#.{ { [ #.;.;.#.{ { } [ [ 3.S.0.x.z.k Y ;XuXuX,XN.l x.x.z o.#.#.{ #.{ #.[ #.{ #.;.;.} #.#.#.{ ",
"} #.#.#.#.{ ] { } #.#.#.#.} } [ 5.S.l C.w.9.c.*XuXuX,Xc.l j.G.z ! #.;.{ #.#.;.} #.#.{ #.#.#.;.#.{ #.",
"[ { { { { #.} [ #.{ { [ } #.;.[ 2.B.z H.0.q.u.*XuXqX,Xb.0.j.J.j Q #.;.{ { ;.#.#.#.#.{ { #.#.#.;.;.#.",
"#.} #.{ } ;.#.{ #.#.;.} #.{ } #.2.^ y.K.9.h.S *XuXeX>Xb.r.t.P.S P { #.;.{ [ } #.{ #.#.#.{ #.#.#.} } ",
"#.#.#.{ { #.#.[ #.#.#.{ ;.;.{ { 2.+.V.F.9.h.u.*XtXtX>Xb.q.9.G.m.O.{ #.;.;.} { } } #.;.} { #.#.#.;.;.",
"{ { #.{ [ { { { #.{ [ } { } #.} 3.U.Z.c j j I |.6X6X#Xn j j c B.X.{ #.#.;.;.#.#.#.{ #.#.} #.#.#.} { ",
";.{ #.;.#.#.{ { #.} { } ;.{ { { <.R.I t r : 7 6 6 9 N V s a t G #.#.#.;.{ { #.;.;.#.#.;.;.#.;.;.;.;.",
"} { #.} #.;.[ #.;.#.} { ;.#.{ { 3.=.v ; < < > 2 8 w ' @.{ $.| V ;.,.#.} ;.{ #.} ;.{ { ;.<.;.;.;.#.} ",
"} [ #.} #.#.[ [ #.{ #.{ ;.} { #.<.=.G 7 > = 1 2 8 ( ) ' [ #.*...,.6.#.[ #.{ #.{ #.{ { #.,.;.#.#.#.;.",
";.{ { [ { } #.{ #.{ { } ;.} [ { 5. .p : = = < 2 8 0 ( _ ` ` |  .X./.6.} { #.#.#.#.;.;.} ;.#.;.:.#.;.",
"#.#.} { { } { [ ;.#.{ } #.;.#.{ 2.P p : # - - * 3 0 i ) N ` |  .| ].`.#.} #.{ } #.{ { ;.{ { } { } { ",
"] { { #.{ #.;.{ } { { [ [ { { { 1. .B r @ ; ; 5 ) ) _ V V V ....5.XX,.{ } ;.#.#.#.{ } ;.;.#.;.} #.#.",
"#.[ [ } { { [ { #.#.#.{ #.} { [ 3...B G v H J +X8X8X$Xo.Q L O.O.-.].#.:.;.;.,.;.#.#.#.#.#.;.#.#.;.;.",
"[ { [ [ } { [ [ { } { { #.[ #.{ 6.%.B U D c.U *XtXtX,XE T C +.O.R.].#.} { { { } { #.} #.{ #.#.#.#.;.",
"} { #.} [ [ } { } #.{ [ #.#.[ { 3.%.C c.w.k.T &XrXrX>Xc.y.x U.+.E.XX;.;.#.#.{ #.;.#.{ #.;.#.#.#.} { ",
"#.{ } } { { } { } #.{ { #.{ [ { 3.*.C s.q.h.p.&XrXrX1Xb.q.z A.+.W.XX#.;.;.;.{ { ;.{ { } #.;.} #.{ #.",
"} [ } #.#.{ #.#.[ #.{ [ ;.#.{ { 6.*.g b.q.g.i.&XwXrX1Xz.e.0.U.! E.oX#.{ } ;.#.#.;.#.#.#.{ #.#.:.#.;.",
"{ #.{ { } [ [ { { #.;.[ [ } #.[ 7.*.g b.a.g.p.&XeXeX-Xz.e.r.U.L E.oX#.{ #.#.#.} #.{ #.;.;.#.;.;.#.} ",
"{ [ { { } } } { { #.#.#.#.[ #.} 3.*.v v.i.t.p.*XuXeX>XV.h.y.T.K (.oX} { ;.#.{ #.#.#.;.;.} #.;.;.#.#.",
"{ } { { { #.#.{ { #.#.#.#.{ #.#.3.=.H N.y.t.c.;XqXqX>XV.a.S T.P [.OX{ #.#.;.;.;.;.{ #.;.{ #.#.;.;.#.",
"#.} { { #.{ #.} { #.{ #.{ [ { { 6.%.C N.p.z.v.:XrXqX,Xn.s.u.T.! (.XX#.#.#.#.#.;.#.} #.#.#.;.{ #.;.;.",
"} [ } [ #.{ ;.#.#.{ #.;.} { #.{ 8./ A c.f g v |.4X4X XR I x Y.~ T.}.} #.#.#.} #.#.{ #.;.} #.} { #.;.",
";.;.;.{ { { { { #.{ #.#.#.{ #.{ 5.~ A U % @ X # = , < 7 u p ^ ~ Q.}.#.#.;.{ #.;.;.;.;.} #.#.#.;.#.{ ",
"#.} } } #.{ #.[ { #.{ { ;.[ { } ~.B.s.E @   . o o + 3 0 9 u U.B.Q.}.;.{ #.} { { #.#.;.;.;.;.;.:.;.;.",
"{ #.[ { } [ ;.} [ #.#.} #.;.#.{ ~.B.a.B.& . . o O 1 4 q m s S.F Q.{.#.#.#.{ ;.} { } } #.;.;.#.;.#.;.",
"{ } } [ #.[ { #.{ { #.#.{ #.#.#.~.Z.t.N.e X o o O 1 4 q m d D.d.T.'.} #.{ { { #.#.#.#.#.#.#.} #.;.#.",
"[ [ #.{ #.;.#.{ ;.} { #.} } [ #.'.Z.g.C.y % # # = 2 8 m M b K.d.W.'.#.#.{ #.#.#.#.#.{ ;.;.#.#.#.{ { ",
"#.[ { { [ #.#.{ [ } [ #.;.{ ;.{ ^.Z.j.K.y % # $ > 2 9 N s H P.d.4.].{ #.;.#.;.{ #.;.#.;.#.#.#.#.;.;.",
";.#.#.} [ [ #.;.} ;.{ { #.[ } { ,.Y.a.J.A e ; , 2 6 i u p I I.p.1.6.;.{ ;.} #.{ #.#.{ } ;.#.#.:.;.#.",
"{ #.#.#.;.[ } #.{ #.} [ } #.{ #.#.!.m.f.C.B.Q {.=X%X}.U.Y.D.C.T ,.#.#.#.} #.#.#.#.#.;.{ #.#.#.#.#.#.",
"{ { { } #.#.[ [ [ [ #.#.{ } #.[ } ^.W Z i.C.Q.5XaXsX7XQ.N.c.S ! >.#.#.;.#.;.#.;.{ { #.;.} #.;.;.{ } ",
"} { { { [ { #.[ { { } ;.#.} #.{ ;.3.L g i.0.D ,XpXpX5Xv.x x g <.`.#.;.{ } { { } #.#.} ;.;.#.#.;.#.} ",
":.#.{ #.{ { #.#.{ { [ #.{ { { { { } 8.R.g D I &X0XqX;XE U X.$./.{ ;.#.} } ;.#.[ ;.#.} } { { #.,.;.} ",
";.;.} #.#.#.#.} #.{ { { [ [ } { [ { } #./.{.-.8..X.X~.R.{.oX[ #.{ #.;.#.} #.#.{ } } #.{ { [ #.#.#.#.",
"#.{ { #.#.;.#.{ } [ { #.;.;.{ } #.[ #.#.{ #.} { } #.{ #.[ #.} #.[ { #.#.#.{ #.{ } } ;.} ;.} #.{ #.[ ",
"#.] ] { [ [ #.{ { } #.{ { { } #.;.#.{ #.;.{ #.} [ } { #.} #.{ #.;.{ #.#.;.#.#.{ [ { } #.{ ;.#.;.;.#.",
"} { { #.{ { ;.#.#.[ { ;.{ [ { { { #.;.#.#.{ } ;.} #.#.{ { ;.;.{ } ;.#.#.#.#.;.;.{ } { #.#.;.#.#.#.{ ",
"#.} { #.;.#.} } ;.{ [ #.} #.;.;.{ } } } { [ { { { #.#.} } } #.;.#.#.[ [ #.{ { #.#.} #.#.#.#.#.{ #.:.",
"{ { { { #.} { { #.{ } { [ { } #.} #.#.#.#.} #.#.} #.{ { } #.#.#.{ [ #.} ;.;.{ [ [ { { #.#.#.;.{ #.} "
};
