/* XPM */
static char *f85c699fc3c14db185ffde52be266f21[] = {
/* columns rows colors chars-per-pixel */
"50 50 210 2 ",
"   c #191A1A",
".  c #201E16",
"X  c #1E221E",
"o  c #222018",
"O  c #171C28",
"+  c #0C1F33",
"@  c #1A2226",
"#  c #16212D",
"$  c #192536",
"%  c #1C2A3B",
"&  c #232523",
"*  c #242927",
"=  c #22252A",
"-  c #242A2A",
";  c #2C2D2B",
":  c #312F2D",
">  c #36342E",
",  c #282A34",
"<  c #322D33",
"1  c #2D3131",
"2  c #25323C",
"3  c #2C333F",
"4  c #343339",
"5  c #383938",
"6  c #44393A",
"7  c #0F2A4F",
"8  c #152844",
"9  c #1D314E",
"0  c #0E2F57",
"q  c #212E41",
"w  c #233646",
"e  c #383E44",
"r  c #263B56",
"t  c #393F59",
"y  c #17366B",
"u  c #173C6E",
"i  c #113973",
"p  c #1A3A71",
"a  c #153C7B",
"s  c #1B3F79",
"d  c #253E64",
"f  c #293F61",
"g  c #233B69",
"h  c #223F77",
"j  c #463D49",
"k  c #433D57",
"l  c #2E414D",
"z  c #3F454A",
"x  c #2B4155",
"c  c #2B455C",
"v  c #364154",
"b  c #3C4C5C",
"n  c #1C446C",
"m  c #194477",
"M  c #16427C",
"N  c #1B437D",
"B  c #294665",
"V  c #26436E",
"C  c #2B456C",
"Z  c #354868",
"A  c #3D5466",
"S  c #3B5469",
"D  c #3F596E",
"F  c #234475",
"G  c #2B4674",
"H  c #2D4C74",
"J  c #22467B",
"K  c #244B7D",
"L  c #2A4C7B",
"P  c #344D74",
"I  c #364B7A",
"U  c #395576",
"Y  c #3D5A7A",
"T  c #45424B",
"R  c #49484A",
"E  c #454757",
"W  c #4A5555",
"Q  c #555456",
"!  c #57595A",
"~  c #5A5E5D",
"^  c #5C605F",
"/  c #495767",
"(  c #43526A",
")  c #4B5A6B",
"_  c #545D66",
"`  c #435572",
"'  c #435C75",
"]  c #4A5F72",
"[  c #445C7A",
"{  c #495C7A",
"}  c #605B61",
"|  c #576262",
" . c #5E6261",
".. c #5E656C",
"X. c #486376",
"o. c #47637C",
"O. c #4B647D",
"+. c #536373",
"@. c #556377",
"#. c #5A6A7B",
"$. c #616564",
"%. c #646867",
"&. c #626668",
"*. c #656A6A",
"=. c #6A6E6E",
"-. c #6C706F",
";. c #646B72",
":. c #696F71",
">. c #6C7173",
",. c #69757E",
"<. c #6C747C",
"1. c #717577",
"2. c #71767B",
"3. c #71797B",
"4. c #163C83",
"5. c #193F87",
"6. c #1B4384",
"7. c #1B458B",
"8. c #1B4B88",
"9. c #1C4C8D",
"0. c #1D528F",
"q. c #194793",
"w. c #194990",
"e. c #1F5091",
"r. c #254786",
"t. c #224C82",
"y. c #2A4C84",
"u. c #244C8C",
"i. c #294D8D",
"p. c #344E83",
"a. c #2B5284",
"s. c #255588",
"d. c #2C528A",
"f. c #325384",
"g. c #335A84",
"h. c #375588",
"j. c #3C5C8A",
"k. c #234F92",
"l. c #295997",
"z. c #2B569B",
"x. c #335B94",
"c. c #385E94",
"v. c #3B628D",
"b. c #2C619F",
"n. c #396499",
"m. c #305EA1",
"M. c #3964A4",
"N. c #3668A8",
"B. c #3D70AE",
"V. c #3F76B1",
"C. c #405B84",
"Z. c #436483",
"A. c #486486",
"S. c #486886",
"D. c #4E6B8B",
"F. c #566B85",
"G. c #5A7287",
"H. c #5C768A",
"J. c #496A91",
"K. c #506E97",
"L. c #5E7490",
"P. c #6A7A88",
"I. c #767D84",
"U. c #767F88",
"Y. c #617C96",
"T. c #5277A8",
"R. c #527AB5",
"E. c #607EA2",
"W. c #7B8185",
"Q. c #77858C",
"!. c #7B8389",
"~. c #6C8499",
"^. c #738291",
"/. c #7A8A99",
"(. c #7F8FA5",
"). c #838486",
"_. c #838E94",
"`. c #889398",
"'. c #8A97A8",
"]. c #929CB0",
"[. c #A09FA7",
"{. c #9CA1A6",
"}. c #8CA0B5",
"|. c #8EA4BA",
" X c #92A0B7",
".X c #94A4BC",
"XX c #8FA6CC",
"oX c #8FAACE",
"OX c #94A9C5",
"+X c #96A8C4",
"@X c #94AACA",
"#X c #99AECD",
"$X c #9CB0CB",
"%X c #B2BDC7",
"&X c #A8B6D3",
"*X c #B7C1C5",
"=X c #ACC1D8",
"-X c #C8CBD2",
";X c #CFD4D4",
":X c #D7DDE6",
">X c #DADCE3",
",X c #D6E4E7",
"<X c #DCE2E6",
"1X c #D5E4E9",
"2X c #DDE3EC",
"3X c #DDE4F0",
"4X c #E0E4E9",
"5X c #E4EBEC",
"6X c #E7ECF6",
"7X c #EBF0F5",
/* pixels */
"~  .^  . .$.%.^ ~ ~ $. .~ ~ ~  .$.^  .~ ~ ~ ^  .^ ~  .!  .$.^ ^ $.~  . .~ ^  .^ ~ ~  .^  .$. .~ ~ ~ ",
"~ ^ ~ ! ~ $. .~ ~  . .! ! ^  .^ $.~ ^ ^ !  .! ~ ~ ~ ! ~  .~ ! ~ ~ ~  .^ ~  .~ ^ ~ ~ ~ ~ ^ ~ ^ ^ ~ ~ ",
"~ ~ ~ ! ~ ^ ~ ~ ~  . .~  .^ ~ ^ $.^ ~ ~ ~ ~ ^ ^  .! ~ ~ ^ ~  . . . . . .~  .$. . .^ ~ ~  . . . .^ ~ ",
"~  . .~  . . .~ ^  .^ ~ ~ ~ ~ ^ ~ ! ~ ~ ~ ~  .^ ^ ! ^  .~ ~ ^ ^ $.~ ~ ~ ~  . .!  .^ ^ ~  . .~ ~  .$.",
" .$.~ !  . .~ !  .$.~ ~  . .^  .~  . .~ ^ ^  .~ ~ ^ ~ ~ ~ ~  . . .~ ~ ^ ~  .~  .$.~  .~ ~ ~ ! ~ $. .",
"^  .~ ! $. .~ ~  .~ !  .$.~ ~ ~ ~ ~ ~  .^ ~ ~ ~ ~ ~ ~  .^ ^  .$. .~  .$. .~ ~ $.~  . .~ ^  .$.$. . .",
"~ ^ $. . . . . .~ ^  . . .~ $. .~ $. . .^ ~  .^ ^ ! ~ $.~  .~ ! ~ ~  . .^ ! ~  .~ ^ ~  .%. .$. .~  .",
"~ ^  .~ ~ ^  .~ ~  .$.~ ~  .^ ~ ~  .^ ~ ~ ~  .~ ~ ! ~ ~ ! ~ ~  .~ ~ ! ~ ~ ~  . .^ ^  .$.$.~ ^ ~ ^  .",
" .$. .~ ^  .~ ~ ~ ~ ^ ! $.~ ! ~  . .~ ~ ~ ~ ~ ^ ^ ~  .^ $. . .$. . . . . .^ $. .~  . . .^  .$. . .! ",
"~ ~ ! ^ ~ ~ ~ ~ ~  .$.^ ^ ~  . .~ ~  . . . . . . .^  .~  .~ ~  .^ ~  . .~  .$. . .$. .~ ~ $. . .~  .",
"^ ~ ~  .~ ~ ~ ^  .^ ~ ~ ~  . .~  . .~  . .$.~ ~ ~ ~  .~ ~ ~  .^ ~ !  .$.~  . . . . . .$.$.~ ~  .~ %.",
"~  .$.~  .~  .$. .~ ~  . . .^ ~  .$. . . .~ ! ~ ! ~ ~ ~ ^ ^ ~ ~ ^ ^ ~ ^ !  .~  . .! ~  . . .$. . . .",
"! ^ ~ ~ $.! ~  .~ ^  .$.^ ~  .$. .^ ~  . .~ $. . . . .~  .$.$.$.$.~ $. .^  .~  .~ !  .$.^ ~ ~ ~ ~ ~ ",
"~  .~ ~ $.! ~ ^ ^  .! ~ ^  .$.~ ~ ~ ~ ~ ! ^  .~  .~ ^ ~ $.^ ^  .~ ^ $.~  .^ ^ $. .$.$. .$.~ $. . .%.",
"^ $.~ ^ ~ ^ ~  . .~ ^ $.~  . .~  . .~  . . .~ ! !  .~ ~  .~ ~ ~ ~  .~ ^ $.^ !  . . .~ ~  .~ $. .~  .",
" .$.~  .^ ~ ~ ~ ~  .~ ~  . .~ ^ ~ ~ ~  .^ ~ ~ ~ ~ ~ ~ ~ ~ ~  .~ ~ ^ ~  .~ ! ! $.~ ! ! ^ ~ ~ ~ ~ ^ ~ ",
"^ ~ ~ $. .~ ~ $.^  .*.I.U.P.P.3.<.3.1.=.-.1.1.>.>.1.>.;.;.>.=.>.=.>.:.:.>.<.>.*.~ ~ ! ^ ! ~  .~  .~ ",
" .^  . .~ ~ ^ >.P.L.A.v.c.c.j.C.Y X.X.@.+.+.+.+.+.+.) ( ( ( @.@.F.A.[ Y Y Z.Z.Y O.;.!  .! $.$.$.~ ~ ",
" .^ $.~  .^ 3.S U s.8.9.w.7.u.y.F n V C d d d B B c c c x r Z f G c.l.6.M a M N K S...$.!  . .~ ^  .",
" .^  . . . .F.n m s.b.N.x.h.h.I H a.d.f.f.y.y.y.L P B w 2 2 2 % 9 s z.M.M.z.l.k.k.T.E.~ ~ ^ ~ ~ ^  .",
" .~  .$.~ I.g t.8.s.n 0 7 8 $ O $ y t.t.8.7.7.5.6.F r # @ - - 1 q p 4.a 6.6.k.m.M.z.R.A. . . . . . .",
"^ ~ ~ ~  .^.J 6.x.j.8 + # O     O g i.8.9.w.q.q.u.y.C % $ - * 1 2 y 7.7.6.4.a a i N 6.g._ $.~  . .~ ",
" .~ ^  .^ #.H J K.` $ # @   . o   B a.y.t.t.t.t.L H Z % , 1 ; ; 3 C J J K L L L F L L U A ~  .$.~ ! ",
" .~ $.^ ~ 2.}.OX&X^., = @ X X   O /.OX.X.X|.|.|.|..X'.3 , < < : 4 /.|..X X.X.X.XOX|..XOX'. .$.~ ~ ~ ",
"^ ~ ^ ~ ^ ).:X6X6X[.< ; * * & & = %X1X>X<X<X,X1X1X2X-XT 4 4 5 5 4 *X<X4X4X2X2X2X3X2X4X5X;X$. .~  . .",
" . . .^  .).>X6X7X{.4 1 : ; ; & - %X:X>X<X<X,X1X1X2X-XR 5 e T z 5 *X2X<X>X2X2X2X2X5X<X5X;X~ ^ ~ ~ ~ ",
"~  . .~ ~ <.OX&X=X/.e 5 5 > > > , (.#X@X@XXXoXoX@XOX].E e T R Q z '.@XOXOX@X@X#X#X#X#X$X]. .~ ~ ~  .",
"~ ^ ~  . .#.I p.J.o.l z j 6 6 5 2 P f.d.i.i.i.i.y.I ` E T R Q } E V d.a.a.a.a.g.a.a.x.j.`  .~ ~  . .",
"^ ^ ~ ~ ! ^.P h g.S.x v k j j 5 l G r.7.7.7.7.6.J L D b T W ~ ~ v p 7.6.M M M i i N r.h.~  .$.~  . .",
" .^ $. . ._._ F a.v.H C Z t v e r V J J N N N N F C S b W W | | x p 5.7.9.0.l.B.N.N.R.F.^ $.$. . .$.",
" . .$.~ ^ ~ ..g N l.V.B.M.n.Z.o.' A.D.F.S.Z.Z.Z.o.[ ] ) / / +./ 9 J m.B.N.b.l.e.u.n.E. . .^ ~ ~  . .",
" .$.~  . . .I.=.' L t.s.t.s.K g.U Y D A A S D ' X.' ] ) ( ( ) b Z j.d.m u m s N J [ ~ ^  .~  . . .~ ",
"~  .^ $.! ~ ~ W.&.*.;.,.G.D.D.K.J.D.Y.~.Y.G.G.H.G.F.#.<./ _ *.$. ._ ] S D ' [ { @. .~  . .~ $. . .^ ",
"!  .$.~ ~  .$. . . .1.!.Q.Q.^./././._.`._.`.`._.Q.!.!._.W.I.1.*. .~ ~ ~  . . .$. .^ ^ ^  . . .~  . .",
" .!  . . .$. .$. . .$.~  .^  .$. . . .~ ^  .^  .$. . .*.W.1. . . . . . .$.$. .~  .^  .$.$. .~  .$. .",
"^ !  . . . .^ ~ $. .~  . . . .~  . . . .~ ~ ~ $.$.^ %.~  .^ ! ^ $. .$.$.~ ~ ~ ~ ^  . .! $.~ ~  .$.~ ",
"$. . .$. .^ ^ ^  .^ $.$.~ ~  . .$. . . .$. .^ $. .~ $.^ ^ ~  .$.~ $.$.~ ~  . .^ ^  .~ ^ $.~ ^ ^ ^  .",
"$.~  . .~  .$.~ $. .^  . .~ ~ ^ ~  . .$. . .$.$. .~ $.$. . .~ ~ ~ $.^ ~ $. .~ ^  . . . . .^  . . . .",
"~ ~ $. . . . .~  . . .$. .~ $.~  .^  .$.~  . .~ ~ ~ *. .~  . . . . .~ ^  .$. .^  . . . . .~ ~ ~  . .",
"!  .$.~ ~ ~ ~ ^ $. .~ ~  . .^ ~ $. .$.$. .^  .~  .^ $. .^  .~ ^ $. .^  . .^ ~  . .~  .~  . .~  .$.^ ",
"!  .~ ~ ^ ^ $. .~  . . . . .~  .$. . .$. . .$.$.$.~  . . . . .$.$. .^ ~  . . . . . .^  .$.~ $.$.^  .",
"~ ^ ^ ~ ^ ^  . .~  . .$. . .^  .$.~ ^ ~  .~  .~  . . .~ ~ $.~ ~  .~  . . . .~  .$.~  .$.$.~  .^  . .",
"~  .~ ^ $. .^ ^  .$.~  .~  .^ $.$. . . .$. . .~ ~ ^  .^ ~ $.~ ~  . .$. .~ ~  .$. .^  .^ ~ ^  . . .~ ",
" . . . .^ ~ ^ $.$.~ ^ $.$. . .$.^ $. .$.$.$. .^  . . .$.$.^  .$.$. .^  .~  .$. . . . . .^ ~  . . . .",
" . . .~ $.~ ~ $.^  .$. .$. .$.$. .^  .~ ^ $.~  .$.~  .$.~ $.*.=.$.^ ~ ~  . .$. .$. . .$. .^  .~ ~  .",
" . .$.$.^ ~ ~  . . . . . . .$.$. . .$. . . . .$. . .$. .~  .$.$. . . . . . .^ ~ ~  .~ ^  . . .~  .$.",
"$. . . . . . . .$. . . . .^  .$. .^ ~  .$.$. .^  . . .$.^ $. .$.$. . . . .$. .~  .$.^  . .$. . .$.$.",
"~ ~  .$.~  .*.$.$. .%. . . .$.%.$.~  .$.$.$.%. . . . .^ ~ %. .$.$. . . .$. . . . . . .$.$.~ ^  . .^ ",
" . . .$. . .$. .~  .$.$.~ $. .$. . .$.$. . . .~ ^  .$. .^  . . .$.^ $.^ $.~  . .~ ^ $.$.^  .$.$. .$.",
"^ %.~  .~  .^ ^ ^  . .$.~  .$.$.~ $.$. . .^ $. .~ $.$. .~ $.$.^ $.~ $.^  . .~ ~  .~  . . .^  .$. . ."
};
