/* XPM */
static char *_a8ba73d80ea42d2b682c2ce1e483e7bHVLFIa60Anse8MxB[] = {
/* columns rows colors chars-per-pixel */
"50 50 200 2 ",
"   c #181A1E",
".  c #25241F",
"X  c #1C1E23",
"o  c #1E2025",
"O  c #1F262C",
"+  c #232324",
"@  c #2A2924",
"#  c #23262C",
"$  c #24282D",
"%  c #2A2B2D",
"&  c #302F23",
"*  c #393726",
"=  c #252D35",
"-  c #2C2D32",
";  c #272F38",
":  c #2E3036",
">  c #27303A",
",  c #2C333A",
"<  c #313236",
"1  c #363935",
"2  c #343439",
"3  c #32383C",
"4  c #3A3A3E",
"5  c #45381D",
"6  c #493E1E",
"7  c #423D24",
"8  c #4A3D20",
"9  c #453F29",
"0  c #3B423D",
"q  c #57481E",
"w  c #6A561F",
"e  c #4A4427",
"r  c #534521",
"t  c #554922",
"y  c #564F2D",
"u  c #5D5024",
"i  c #5C542B",
"p  c #484934",
"a  c #545235",
"s  c #5D5A34",
"d  c #654C23",
"f  c #6B5B24",
"g  c #645829",
"h  c #665A31",
"j  c #6E612E",
"k  c #7A6426",
"l  c #73632E",
"z  c #7A6A29",
"x  c #6E663A",
"c  c #766C36",
"v  c #2E3740",
"b  c #333C44",
"n  c #3A3C41",
"m  c #3B4245",
"M  c #3C444A",
"N  c #3F4750",
"B  c #464B49",
"V  c #44494D",
"C  c #444B52",
"Z  c #4A5254",
"A  c #4C555B",
"S  c #575A55",
"D  c #545857",
"F  c #575A59",
"G  c #5A5E5D",
"H  c #655F45",
"J  c #625F53",
"K  c #5C605F",
"L  c #6B6246",
"P  c #6D6940",
"I  c #6E664B",
"U  c #746A42",
"Y  c #746B4F",
"T  c #7E7045",
"R  c #696454",
"E  c #62645C",
"W  c #6A6B5E",
"Q  c #726F59",
"!  c #7D7957",
"~  c #74735B",
"^  c #7B775A",
"/  c #525A60",
"(  c #5E6261",
")  c #5B646A",
"_  c #616564",
"`  c #646866",
"'  c #666A69",
"]  c #696C68",
"[  c #6E7062",
"{  c #666D70",
"}  c #747A7B",
"|  c #816C28",
" . c #906929",
".. c #85762C",
"X. c #8F762A",
"o. c #95792B",
"O. c #937737",
"+. c #A3792B",
"@. c #826F43",
"#. c #82744C",
"$. c #88754C",
"%. c #837B4B",
"&. c #987F43",
"*. c #827F58",
"=. c #807E64",
"-. c #93852D",
";. c #9E843B",
":. c #A8882D",
">. c #AC8F2E",
",. c #B28D2F",
"<. c #AB902F",
"1. c #B7942F",
"2. c #BF942E",
"3. c #A48A34",
"4. c #AB8A39",
"5. c #A79134",
"6. c #AF923E",
"7. c #B69636",
"8. c #BB9C32",
"9. c #BBA538",
"0. c #C1942F",
"q. c #C39D32",
"w. c #C99931",
"e. c #CAA22F",
"r. c #C6A233",
"t. c #CBA332",
"y. c #CAAB34",
"u. c #C9A439",
"i. c #D3A433",
"p. c #D4AB34",
"a. c #DAAC34",
"s. c #D6A939",
"d. c #D6B537",
"f. c #DBB234",
"g. c #DCB936",
"h. c #D4B53A",
"j. c #DDBB3A",
"k. c #E1AD36",
"l. c #E2B435",
"z. c #E3BB35",
"x. c #E4B939",
"c. c #DEC138",
"v. c #EBC237",
"b. c #E5C53A",
"n. c #ECC639",
"m. c #E6CA3B",
"M. c #EECA39",
"N. c #E9D239",
"B. c #F2D23B",
"V. c #F0DF3E",
"C. c #9A854A",
"Z. c #9B8C4D",
"A. c #9F914C",
"S. c #85805A",
"D. c #948B57",
"F. c #9F9655",
"G. c #A08A4A",
"H. c #AB9544",
"J. c #A59148",
"K. c #AD9A4A",
"L. c #B39543",
"P. c #B69C45",
"I. c #B49C48",
"U. c #A39754",
"Y. c #AEA24E",
"T. c #BAA545",
"R. c #BEAA45",
"E. c #B4A64D",
"W. c #BFB14C",
"Q. c #BDAB5B",
"!. c #8F8E6D",
"~. c #979367",
"^. c #B5A879",
"/. c #C19F44",
"(. c #C4AC42",
"). c #CCAD43",
"_. c #D1AA44",
"`. c #CBB548",
"'. c #D6BC46",
"]. c #C2B559",
"[. c #D1B955",
"{. c #C3B664",
"}. c #CBBF66",
"|. c #D0BE65",
" X c #D9C149",
".X c #CFC255",
"XX c #E2C545",
"oX c #E5CA48",
"OX c #ECD647",
"+X c #E6CF59",
"@X c #EBD858",
"#X c #CDC063",
"$X c #D8CB72",
"%X c #E5D369",
"&X c #F0DE6D",
"*X c #7C8285",
"=X c #888785",
"-X c #8B8C8C",
";X c #949699",
":X c #B1B1AF",
/* pixels */
"G G G _ ( ( ( ( F ( ` ( G ` ( G G G ( ( ( F F G ( G ( ( ( _ ( G K ( ( G ( ( ( K ( ( G ( ( _ _ K _ ( ",
"G G K ( _ ( G K ( F G ( G ( G K ( G K K ( ( G G ( F G ( ( ( ( ( ( ( _ _ K ( ( _ K ( ( ( G ( _ ( ( ( ",
"G K ( G G _ ( G ( ( ( ( F ( ( F G _ G G ( ( _ G G G G G G ( G ( ( G ( ( K ( G ( _ K ( ( F G ( ( _ _ ",
"( K ( G F _ _ K _ ( G _ G _ _ G ( _ ( G ( G ( _ ( K G G _ _ G ( _ ( G G K ( G F _ ( ( ( ( ( ( K _ ( ",
"_ G ( ( G ( ( G ( _ G ( G G G F G _ ( K ( _ G ( _ G ( ( ( _ K G G ( ( G G K F ( G G K G K ( _ F ( K ",
"( K ( ( G K ` _ K G _ ( K _ ( G F F F G ( ( G G _ ( G K G K ( ( ( ( _ _ _ ( ( ( _ _ G K ( ( ( _ K ( ",
"K G G G G G ( _ ( G _ ( _ ( G K K ( _ G G ( G G _ _ ( ( K ( ( K ( K _ F K ( ( G ( _ K ( _ K ( _ _ ( ",
"( G G K ( ( G ( ( ( ( F ( _ G F F F G _ K ~ F.].#X}.{.~.[ K ( G G K ( ( G ( ( ( K ( ( ( ( G K ( _ ( ",
"G G K K G ( K K ( _ ( F F _ ( F K ( F E D. XoX5.Q.|.H.%X$X~.` ( ( K K ( ( ( ( G ( G K ( ( ( _ ( K G ",
"G G ( ( _ G G K G ( ( ( G ( ( G F _ _ *..XOX8.w P.[.f K.&X$X!._ ( ( ( K K ( ( ( ( _ ( ( _ G ( ( G ( ",
"K K ( F ( _ ( ( ( ( ( ( ( _ ( _ ( K ! ].@Xm.j.h.j.oX X`.+X+X{.=._ _ G G K K K ( ( ( _ ( ( G G ( ( G ",
"( G _ ( G G F ( _ _ ( G G K F F K ~ R.OXOXb.m.b.z.b.OXOXoXoXXX].^ K ( G ( G ( F ( G ( _ _ K ( ( ( G ",
"K ( ( ( ( G D G K ( ( ( ( K K F K C.m.V.m.z.g.d.h.h.'.oXm.b.g.XXU.E _ G ( ( _ K ( ( G ( ( ( _ ( G ( ",
"F G G G G ( K F ( G G F K ( _ F G 6.N.N.d.>.z j x U #.Z.9.c.f.g.W.` _ G G _ ( ( ( ( G G ( ( ( _ _ ( ",
"( K ( G K _ ( G ( ( _ K ( G K ( G 6.m.g.o.9 1 m Z ' =XD a 5.p.p.(.E ( _ G F K ( G ( ( ( G ( ( ( K K ",
"( ( ( G G ( ( F ( ( ( G _ _ G G ( 3.g.>.e , M A ( } :X-XM a <.e.T.E ( _ _ K G K K ( _ K G ( ( ( _ _ ",
"G G ( G F G G G ( G F K G K ( K ( ;.y.l < m Z / { *X;X;X{ B c 8.H.K ( ( _ _ ( ( ( G ( ( K ( ( ( K G ",
"_ G ( _ ( ( G G ( K G K _ G G G G &.r.h 3 M A / ) ) ) ) A N P 8.J.E ( _ G G ( _ _ ( ( _ _ ( _ _ _ _ ",
"K G ( K ( _ F ( _ ( K G _ ( G G W C.2.j 3 M A A A / C C M m c q.G.E ( K _ G ( K _ G G _ ] _ _ _ ( K ",
"K F ( K ( ( F F ( G ( G _ K G E F.6.:.l 1 b N M m b b v > 0 c ,.P.S.( F ( G ( G ( G G ( ' _ ( ( ( _ ",
"_ G G F G K ( G ( G G K _ K F E S.&.+.g p , , n : = = = = p l +.L.D._ K G ( ( ( ( _ _ K _ ( _ ` ( _ ",
"( ( K G G K G F _ ( G K ( _ ( G _ #. .u e # # - $ # # O # a h  .$.R K ( K ( G K ( G G _ G G K G K G ",
"D G G ( G ( _ G K G G F F G G G ( L d r r . X o 4 3 X X + a y d I K ( G K _ ( ( ( G K _ _ ( _ K ( ( ",
"( F F K G G F G ( ( ( G ( K G F ( H 5 e t .   o n 4 X   @ i e 8 H K ( ` _ _ ' _ ( ( ( ( ( _ ( ( _ _ ",
"F G F F K G F F G K G G ( F ( G F L 5 6 u * + + < 2 o X * i 8 6 L K ( K G G G K G ( K ( G ( ( ( ( _ ",
"K G ( K F F K G K ( G F ( ( F G D P r r g 7 + + - < % % p g r q I ( _ _ ( ( G ( _ ( G ( _ ( ( ( K G ",
"( G K K G G K G K ( G G ( G F G G T k k f e   # < 2 % % y f f | %.K ( _ _ _ G G _ G G K ( _ K ( G ( ",
"K F K ( ( G ( ( F ( G F _ ( G G ( Z.q.o.k u # - : 2 < % i k X.r.Z.` ( G K _ ( ( _ ( ( ( G ( ( ` ( _ ",
"G ( G G K F F G G ( _ F F K ( F ( K.z.,.o.j @ $ : < % % l X.>.n.K.` ( G ( ( ( K ( G ( _ _ ( _ _ ( K ",
"G F G G K K K G G ( ( ( ( F ( K G I.n.q.:.z @ X - - X @ ..<.y.B.Y.K K G _ ( G ( ( ( _ _ K ( _ _ ( ( ",
"G K G G G ( ( G G ( ( ( ( G ( ( ( I.n.p.1...& o $ # X & -.9.c.B.E.` G ( ( _ _ _ _ G ( _ G ( ( _ _ ( ",
"( K G G ( G ( K G ( G ( G F G G ( P.v.l.t.3.* # # # o * 7.j.M.B.E.` ( ( ( ( ( _ ( K ( ( ( _ G ( _ _ ",
"K F K F ( G _ ( ( G ( _ K G ( G ( T.z.z.a.8.p = ; = O e y.v.n.M.E.` ( ( ( ( K ( ( G ( _ K ( K G ( _ ",
"_ _ _ G G G G G ( G ( ( ( G ( G F T.z.z.f.y.s > > = # s d.z.z.M.(.E ( ( _ G ( _ _ _ _ K ( ( ( _ ( G ",
"( K K K ( G ( F G ( G G _ F G K E (.f.a.f.d.%.3 > = , %.j.f.p.z.`.E _ G ( K G G ( ( _ _ _ _ _ ` _ _ ",
"G ( F G K F _ K F ( ( K ( _ ( G R s.p.1.p.x.U.B , = V A.z.t.1.g.'.W ( ( ( G _ K G K K ( _ _ ( _ ( _ ",
"G K K F ( F G ( G G ( ( G ( ( ( R u.p.,.t.l./.R C V R 8.l.r.8.g.).W K ( G G G ( ( ( ( ( ( ( K ( _ ( ",
"F F ( G ( _ ( G _ K G ( K K F ( ] 4.p.a.a.k.k.C.=X-XC.a.l.a.f.f.6.E ( ( G ( ( ( ( ( G _ _ ( ( ( G G ",
"( F G G F ( ( G F K F ( _ G _ G ` @.2.p.i.a.l._.^.^.s.k.a.i.p.2.@._ G ( _ ( _ G ( _ ( _ ( ( ( ( _ _ ",
"_ ( ( K F F ( _ K _ G G ( F K G G R O.w.0.0.i.s._.).i.w.0.0.0.O.J ( _ G _ K ( G ( ( G K _ ( ( ` _ ( ",
"G ( ( ( _ F K ( G ( K F K ( G ( ( G Y 4.i.p.p.s.s.p.p.a.f.p.4.R K G ( ( K ( ( ( ( ( _ G ( ( ( ( ( ( ",
"G G G K ( ( F F F F ( ( G K ( F K F K Y H.(.'.XXXXXX X`.T.Z.Q K K ( ( _ ( _ ( _ G G ( _ K ( _ _ G K ",
"K G G G F G ( F G G K _ ( K ( G _ _ ( F E W Q ^ ! ^ ~ R E G K _ _ ( _ G K G G K ( ( K _ _ ( ( _ ( K ",
"` ( G ( G G ( ( G G F ( G G G G G K K G ( G ( ( G F K ( ( _ G G G _ ( K K _ ( F _ ( K K G G ( ' _ K ",
"_ _ K ( ( ( ( K ( G G G F F K G F G K ( _ ( G G K F G F G ( F ( G ( _ ( K ( ( G K K ( G G F ( ( ( ( ",
"( G G ( ( _ ( G K F G ( _ _ G K ( F ( ( G ( K G K ( G ( F ( K ( F G ( ( ( G ( G K K _ K _ K ( G ( F ",
"( D D G F F ( G G K ( G G G K ( _ ( G ( _ G ( K F K G ( K ( G ( _ G ( ( _ ( ( G F G K ( G _ ( _ _ ( ",
"K G G ( G G _ ( ( F G _ G F G G G ( _ ( ( G K _ K ( ( G G _ _ G K _ ( ( ( ( _ _ G K G ( ( _ ( ( ( G ",
"( K G ( _ ( K K _ G F ( K ( _ _ G K K K G F G G G ( ( K K K ( _ ( ( F F ( G G ( ( K ( ( ( ( ( G ( ` ",
"G G G G ( K G G ( G K G F G K ( K ( ( ( ( K ( ( K ( G G K ( ( ( G F ( K _ _ G F F G G ( ( ( _ G ( K "
};
