/* XPM */
static char *_d56b4c9abd346b6bcd2dd8e74a8d0fdCJ2RiA3urY3Yfk8o[] = {
/* columns rows colors chars-per-pixel */
"50 50 204 2 ",
"   c #1D1F24",
".  c #1E2124",
"X  c #222325",
"o  c #2D2C26",
"O  c #232528",
"+  c #292729",
"@  c #252A2F",
"#  c #2A2B2D",
"$  c #32322C",
"%  c #3A372B",
"&  c #262C30",
"*  c #2A2D31",
"=  c #2D3035",
"-  c #2C333A",
";  c #313235",
":  c #3C3D34",
">  c #333539",
",  c #38373B",
"<  c #33393D",
"1  c #393B3C",
"2  c #463A25",
"3  c #4B3E26",
"4  c #443F2A",
"5  c #3E443F",
"6  c #4A4127",
"7  c #46422E",
"8  c #4B4329",
"9  c #574927",
"0  c #534629",
"q  c #554A2A",
"w  c #5C502D",
"e  c #484837",
"r  c #4E4C34",
"t  c #584F32",
"y  c #545136",
"u  c #5C5634",
"i  c #54523A",
"p  c #5F5C3D",
"a  c #644D2C",
"s  c #65552C",
"d  c #6A5B2E",
"f  c #645A34",
"g  c #685931",
"h  c #6E6136",
"j  c #756333",
"k  c #7A6532",
"l  c #7C6B34",
"z  c #75693B",
"x  c #7E7236",
"c  c #353C42",
"v  c #3D3E42",
"b  c #3E4343",
"n  c #3C4449",
"m  c #43494B",
"M  c #44494B",
"N  c #434A50",
"B  c #484B51",
"V  c #4B5255",
"C  c #4D555A",
"Z  c #4F585E",
"A  c #585A56",
"S  c #565959",
"D  c #5A5E5D",
"F  c #655F48",
"G  c #625F55",
"H  c #5C605F",
"J  c #6E6543",
"K  c #6C6845",
"L  c #6B634A",
"P  c #756E45",
"I  c #7E6F4A",
"U  c #7F764F",
"Y  c #676255",
"T  c #6C6552",
"R  c #62645D",
"E  c #67685C",
"W  c #6B6B5E",
"Q  c #756D56",
"!  c #7D7857",
"~  c #72705C",
"^  c #7A765C",
"/  c #535B60",
"(  c #5E6261",
")  c #5B6469",
"_  c #5D6569",
"`  c #616564",
"'  c #646866",
"]  c #6B6C62",
"[  c #666B6B",
"{  c #696D6C",
"}  c #7B7A63",
"|  c #73797A",
" . c #8E6834",
".. c #877637",
"X. c #8D7436",
"o. c #977637",
"O. c #92763C",
"+. c #A27B39",
"@. c #826E47",
"#. c #8F7540",
"$. c #827B4F",
"%. c #967D4A",
"&. c #806F51",
"*. c #867450",
"=. c #837E5C",
"-. c #91833A",
";. c #A7833B",
":. c #A28C3D",
">. c #AA8C3D",
",. c #B18E3E",
"<. c #BD8E3E",
"1. c #B1913F",
"2. c #BC933F",
"3. c #BB983F",
"4. c #9C8248",
"5. c #938757",
"6. c #9A8351",
"7. c #958B54",
"8. c #9C8B53",
"9. c #9D945B",
"0. c #A38643",
"q. c #AA8B43",
"w. c #AC8F48",
"e. c #AC9447",
"r. c #AB934C",
"t. c #B59540",
"y. c #B79A42",
"u. c #BD9A42",
"i. c #B2924C",
"p. c #B4994E",
"a. c #BD9D4C",
"s. c #A38F50",
"d. c #AD9752",
"f. c #A59958",
"g. c #B49C51",
"h. c #B6A24D",
"j. c #BCA249",
"k. c #AFA257",
"l. c #B3A456",
"z. c #BBA551",
"x. c #BEAD54",
"c. c #8D8C6F",
"v. c #95916A",
"b. c #BDAC63",
"n. c #BEB265",
"m. c #B3A67B",
"M. c #C19540",
"N. c #C49D42",
"B. c #CB9B43",
"V. c #D09E44",
"C. c #CBA544",
"Z. c #C9A546",
"A. c #C7AB46",
"S. c #CFA24C",
"D. c #C5A94E",
"F. c #CCAA4D",
"G. c #D3A545",
"H. c #D8A647",
"J. c #D4AA46",
"K. c #DAAD46",
"L. c #D5AA49",
"P. c #DFAB4A",
"I. c #D6B247",
"U. c #DDB047",
"Y. c #D4B34A",
"T. c #DCB549",
"R. c #DCBB4A",
"E. c #C1AD55",
"W. c #CDAB53",
"Q. c #CDB555",
"!. c #CFB65F",
"~. c #D5BA54",
"^. c #DABE55",
"/. c #D3BD59",
"(. c #E0AB46",
"). c #E3AF4A",
"_. c #E2B649",
"`. c #E3BA4A",
"'. c #E8BD4B",
"]. c #E1BF50",
"[. c #C7B864",
"{. c #CBBC6C",
"}. c #DFC255",
"|. c #E4C44D",
" X c #EBC24D",
".X c #E5CA4E",
"XX c #ECC94F",
"oX c #E7D04F",
"OX c #E2C555",
"+X c #E7CB57",
"@X c #EDCF54",
"#X c #E2C459",
"$X c #F0CE50",
"%X c #ECD758",
"&X c #F2D151",
"*X c #D6C878",
"=X c #E4CC65",
"-X c #E9D565",
";X c #E9D674",
":X c #7B8184",
">X c #878684",
",X c #8A8B8B",
"<X c #939597",
"1X c #AFAFAE",
/* pixels */
"D ( H ( ( ` ' H D D ` ( D D D ( ` H ( D D D H ( H D ( S ( ` H H ` D ( ( D H ( H D D ( H ( ` ( D D D ",
"D H D S D ` ( D D ( ( S S H ( H ` D H H S ( S D D D S D ( D S D D D ( H D ( D H D D D D H D H H D D ",
"D D D S D H D D D ( ( D ( H D H ` H D D D D H H ( S D D H D ( ( ( ( ( ( D ( ` ( ( H D D ( ( ( ( H D ",
"D ( ( D ( ( ( D H ( H D D D D H D S D D D D ( H H S H ( D D H H ` D D D D ( ( S ( H H D ( ( D D ( ` ",
"( ` D S ( ( D S ( ` D D ( ( H ( D ( ( D H H ( D D H D D D D ( ( ( D D H D ( D ( ` D ( D D D S D ` ( ",
"H ( D S ` ( D D ( D S ( ` D D D D D D ( H D D D D D D ( H H ( ` ( D ( ` ( D D ` D ( ( D H ( ` ` ( ( ",
"D H ` ( ( ( ( ( D H ( ( ( D ` ( D ` ( ( H D ( H H S D ` D ( D S D D ( ( H S D ( D H D ( ' ( ` ( D ( ",
"D H ( D D H ( D D ( ` D D ( H D D ( H D D D ( D D S D D S D D ( D D S D D D ( ( H H ( ` ` D H D H ( ",
"( ` ( D H ( D D D D H S ` D S D ( ( D D D D D H H D ( H ` ( ( ` ( ( ( ( ( H ` ( D ( ( ( H ( ` ( ( S ",
"D D S H D D D D D ( ` H H D ( ( D D ( ( ( ( ( ( ( H ( D ( D D ( H D ( ( D ( ` ( ( ` ( D D ` ( ( D ( ",
"H D D ( D D D H ( H D D D ( ( D ( ( D ( ( ` D D D D ( D D D ( H D S ( ` D ( ( ( ( ( ( ` ` D D ( D ' ",
"D ( ` D ( D ( ` ( D D ( ( ( H D ( ` ( ( ( D S D S D D D H H D D H H D H S ( D ( ( S D ( ( ( ` ( ( ( ",
"S H D D ` S D ( D H ( ` H D ( ` ( H D ( ( D ` ( ( ( ( D ( ` ` ` ` D ` ( H ( D ( D S ( ` H D D D D D ",
"D ( D D ` S D H H ( S D H ( ` D D D D D S H ( D ( D H D ` H H ( D H ` D ( H H ` ( ` ` ( ` D ` ( ( ' ",
"H ` D H D H D ( ( D H ` D ( ( D ( ( D ( ( ( D S S ( D D ( D D D D ( D H ` H S ( ( ( D D ( D ` ( D ( ",
"( ` D ( H D D D D ( D D ( ( D H D D D ( H D D D D D D D D R R D D H D ( D S S ` D S S H D D D D H D ",
"H D D ` ( D D ` H ( D ' ] E R R D ( ( ( D ( ( D S D ( ( ( =.9.W D ( ( D D H D ( D D D H S D ( D ( D ",
"( H ( ( D D H ` S D Y @.q.Z.F.D.z.g.g.g.g.d.6.I J L F L &.%.i.4.%.4.0.w.e.6.~ H ` ( S ( S ` ` ` D D ",
"( H ` D ( H H ( H T O.2.L.L.G.K._.`.'. X X`.u.k 0 2 2 a  .o.;.2.N.Z.T..X.X.Xz.! ` S D ` S ( ( D H ( ",
"( H ( ( ( ( D D Q q.M.G.L.,.t.L._._.T.J.N.>.o.j q 6 8 0 w g j h f j >.R.oX%X%X[.=.` ` D D H D D H ( ",
"( D ( ` D ` ( R r.Z.2.G.G.N.J.U.K.K.Z.1.;.O.k d s w q q r e : < < > 7 O.I..X%X-X[.5.H D ( ( ( ( ( ( ",
"H D D D ( ( D E D.G.<.H.P.).U.Y.Z.y.:...l h w 6 4 % o O # > c m n n > 7 >.R.|.OX@X/.~ ( ( ` D ( ( D ",
"( D H ( H D ( W ~.L.V.).P.a.s.$.p r : $ o # # X + + . X & < m C C V n 1 l T.|.Y.y.OX9.H D D ( ` D S ",
"( D ` H D D ( ^ }.L.H.S.6.Y B c - - @ O O * ; # O O O O = v m C / / C b h Y.|.Y.s q.n.D H ( ` D D D ",
"H D H D H H D ^ OXL.W.m.>XB < - - - * * ; > > > ; > v 1 * > n Z _ [ ) V J Y.R.T.p.b.{.` ` ` ( D ( ( ",
"( ( ( H ( S D ^ }.G.W.m.,XB = - - - # # ; > > > > , v 1 * = n / _ :X| [ P Y.].#X!.{.{.` ( D H D D D ",
"D ( ( D D D H ~ ^.G.G.S.6.Y M < & @ O X O * > = * O X O & - c V _ <X1X>XU ^.+X~.d r.n.( D ( D D D ( ",
"D H D ( ( D ( E Q.L.B.(.K.a.8.$.u 7 % $ o $ ; ; * X   X & = c N ) <X,XA 7.OX+XQ.d.;Xv.( H ( D D ( ( ",
"H H D H S D ( R z.K.M.G.K.U.T.T.Y.A.y.-.x h u y e % o # & * - n C [ M i h..X+X=X;X*X] H D ( ` D ( ( ",
"( H ` ( ( ( ` D 8.Z.2.G.K.N.Z.U.`. XR.j.:.X.k d f u y i i e 5 n N M y :.R.|.OX-X*Xv.H ( H ` ` ( ( ` ",
"( ( ` D H D D H ~ 0.2.G.K.y.1.J.`. XXXR.A.>.X.d 0 6 8 t f h z P K z >.J.I.T.#X[.c.' ( ( ( H D D ( ( ",
"( ` D ( ( ( D ` H T #.2.K.T.T.`. XXX$X&X@X|.Z.l 9 3 3 a  .+.,.u.u.3.N.Z.T.OXb.} ` ( D H ( D ( ( ( D ",
"D ( H ` S D D ` H H G I w.F.~.Q.E.l.l.k.f.f.7.$.L L F T *.i.p.8.s.r.h.x.x.f.} ` H H D ( ( D ` ( ( H ",
"S ( ` D D ( ` ( ( D ( ` R E ] R R ' ' ' H ' ' H H H H H E 5.=.R R H R R ' R H ` ( H H H ( ( ( D ( ( ",
"( S ( ( ( ` ( ` ( ( ` D ( H ( ` ( ( ( D H ( ( ( ` ( ( ( H ` ( ( ( ( ( ( ` ` ( D ( H ( ` ` ( D ( ` ( ",
"H S ( ( ( ( H D ` ( D ( ( ( ( D ( ( ( ( D D D ` ` H ' D ( H S H ` ( ` ` D D D D H ( ( D ` D D ( ` D ",
"` ( ( ` ( H H H ( H ` ` D D ( ( ` ( ( ( ` ( H ` ( D ` H H D ( ` D ` ` D D ( ( H H ( D H ` D H H H ( ",
"` D ( ( D ( ` D ` ( H ( ( D D H D ( ( ` ( ( ` ` ( D ` ` ( ( D D D ` H D ` ( D H ( ( ( ( ( H ( ( ( ( ",
"D D ` ( ( ( ( D ( ( ( ` ( D ` D ( H ( ` D ( ( D D D [ ( D ( ( ( ( ( D H ( ` ( H ( ( ( ( ( D D D ( ( ",
"S ( ` D D D D H ` ( D D ( ( H D ` ( ` ` ( H ( D ( H ` ( H ( D H ` ( H ( ( H D ( ( D ( D ( ( D ( ` H ",
"S ( D D H H ` ( D ( ( ( ( ( D ( ` ( ( ` ( ( ` ` ` D ( ( ( ( ( ` ` ( H D ( ( ( ( ( ( H ( ` D ` ` H ( ",
"D H H D H H ( ( D ( ( ` ( ( H ( ` D H D ( D ( D ( ( ( D D ` D D ( D ( ( ( ( D ( ` D ( ` ` D ( H ( ( ",
"D ( D H ` ( H H ( ` D ( D ( H ` ` ( ( ( ` ( ( D D H ( H D ` D D ( ( ` ( D D ( ` ( H ( H D H ( ( ( D ",
"( ( ( ( H D H ` ` D H ` ` ( ( ` H ` ( ` ` ` ( H ( ( ( ` ` H ( ` ` ( H ( D ( ` ( ( ( ( ( H D ( ( ( ( ",
"( ( ( D ` D D ` H ( ` ( ` ( ` ` ( H ( D H ` D ( ` D ( ` D ` [ { ` H D D ( ( ` ( ` ( ( ` ( H ( D D ( ",
"( ( ` ` H D D ( ( ( ( ( ( ( ` ` ( ( ` ( ( ( ( ` ( ( ` ( D ( ` ` ( ( ( ( ( ( H D D ( D H ( ( ( D ( ` ",
"` ( ( ( ( ( ( ( ` ( ( ( ( H ( ` ( H D ( ` ` ( H ( ( ( ` H ` ( ` ` ( ( ( ( ` ( D ( ` H ( ( ` ( ( ` ` ",
"D D ( ` D ( [ ` ` ( ' ( ( ( ` ' ` D ( ` ` ` ' ( ( ( ( H D ' ( ` ` ( ( ( ` ( ( ( ( ( ( ` ` D H ( ( H ",
"( ( ( ` ( ( ` ( D ( ` ` D ` ( ` ( ( ` ` ( ( ( D H ( ` ( H ( ( ( ` H ` H ` D ( ( D H ` ` H ( ` ` ( ` ",
"H ' D ( D ( H H H ( ( ` D ( ` ` D ` ` ( ( H ` ( D ` ` ( D ` ` H ` D ` H ( ( D D ( D ( ( ( H ( ` ( ( "
};
