/* XPM */
static char *_d08b689dbee44738258c3ad27ae17c41WesrYry4rP1ja15[] = {
/* columns rows colors chars-per-pixel */
"50 50 204 2 ",
"   c #1D1F24",
".  c #1E2124",
"X  c #222325",
"o  c #2D2C26",
"O  c #232528",
"+  c #292729",
"@  c #252A2F",
"#  c #2A2B2D",
"$  c #32322C",
"%  c #3A372B",
"&  c #262C30",
"*  c #2A2D31",
"=  c #2D3035",
"-  c #2C333A",
";  c #313235",
":  c #3C3D34",
">  c #333539",
",  c #38373B",
"<  c #33393D",
"1  c #393B3C",
"2  c #463A25",
"3  c #4B3E26",
"4  c #443F2A",
"5  c #3E443F",
"6  c #4A4127",
"7  c #46422E",
"8  c #4B4329",
"9  c #574927",
"0  c #534629",
"q  c #554A2A",
"w  c #5C502D",
"e  c #484837",
"r  c #4E4C34",
"t  c #584F32",
"y  c #545136",
"u  c #5C5634",
"i  c #54523A",
"p  c #5F5C3D",
"a  c #644D2C",
"s  c #65552C",
"d  c #6A5B2E",
"f  c #645A34",
"g  c #685931",
"h  c #6E6136",
"j  c #756333",
"k  c #7A6532",
"l  c #7C6B34",
"z  c #75693B",
"x  c #7E7236",
"c  c #353C42",
"v  c #3D3E42",
"b  c #3E4343",
"n  c #3C4449",
"m  c #43494B",
"M  c #44494B",
"N  c #434A50",
"B  c #484B51",
"V  c #4B5255",
"C  c #4D555A",
"Z  c #4F585E",
"A  c #585A56",
"S  c #565959",
"D  c #5A5E5D",
"F  c #655F48",
"G  c #625F55",
"H  c #5C605F",
"J  c #6E6543",
"K  c #6C6845",
"L  c #6B634A",
"P  c #756E45",
"I  c #7E6F4A",
"U  c #7F764F",
"Y  c #676255",
"T  c #6C6552",
"R  c #62645D",
"E  c #67685C",
"W  c #6B6B5E",
"Q  c #756D56",
"!  c #7D7857",
"~  c #72705C",
"^  c #7A765C",
"/  c #535B60",
"(  c #5E6261",
")  c #5B6469",
"_  c #5D6569",
"`  c #616564",
"'  c #646866",
"]  c #6B6C62",
"[  c #666B6B",
"{  c #696D6C",
"}  c #7B7A63",
"|  c #73797A",
" . c #8E6834",
".. c #877637",
"X. c #8D7436",
"o. c #977637",
"O. c #92763C",
"+. c #A27B39",
"@. c #826E47",
"#. c #8F7540",
"$. c #827B4F",
"%. c #967D4A",
"&. c #806F51",
"*. c #867450",
"=. c #837E5C",
"-. c #91833A",
";. c #A7833B",
":. c #A28C3D",
">. c #AA8C3D",
",. c #B18E3E",
"<. c #BD8E3E",
"1. c #B1913F",
"2. c #BC933F",
"3. c #BB983F",
"4. c #9C8248",
"5. c #938757",
"6. c #9A8351",
"7. c #958B54",
"8. c #9C8B53",
"9. c #9D945B",
"0. c #A38643",
"q. c #AA8B43",
"w. c #AC8F48",
"e. c #AC9447",
"r. c #AB934C",
"t. c #B59540",
"y. c #B79A42",
"u. c #BD9A42",
"i. c #B2924C",
"p. c #B4994E",
"a. c #BD9D4C",
"s. c #A38F50",
"d. c #AD9752",
"f. c #A59958",
"g. c #B49C51",
"h. c #B6A24D",
"j. c #BCA249",
"k. c #AFA257",
"l. c #B3A456",
"z. c #BBA551",
"x. c #BEAD54",
"c. c #8D8C6F",
"v. c #95916A",
"b. c #BDAC63",
"n. c #BEB265",
"m. c #B3A67B",
"M. c #C19540",
"N. c #C49D42",
"B. c #CB9B43",
"V. c #D09E44",
"C. c #CBA544",
"Z. c #C9A546",
"A. c #C7AB46",
"S. c #CFA24C",
"D. c #C5A94E",
"F. c #CCAA4D",
"G. c #D3A545",
"H. c #D8A647",
"J. c #D4AA46",
"K. c #DAAD46",
"L. c #D5AA49",
"P. c #DFAB4A",
"I. c #D6B247",
"U. c #DDB047",
"Y. c #D4B34A",
"T. c #DCB549",
"R. c #DCBB4A",
"E. c #C1AD55",
"W. c #CDAB53",
"Q. c #CDB555",
"!. c #CFB65F",
"~. c #D5BA54",
"^. c #DABE55",
"/. c #D3BD59",
"(. c #E0AB46",
"). c #E3AF4A",
"_. c #E2B649",
"`. c #E3BA4A",
"'. c #E8BD4B",
"]. c #E1BF50",
"[. c #C7B864",
"{. c #CBBC6C",
"}. c #DFC255",
"|. c #E4C44D",
" X c #EBC24D",
".X c #E5CA4E",
"XX c #ECC94F",
"oX c #E7D04F",
"OX c #E2C555",
"+X c #E7CB57",
"@X c #EDCF54",
"#X c #E2C459",
"$X c #F0CE50",
"%X c #ECD758",
"&X c #F2D151",
"*X c #D6C878",
"=X c #E4CC65",
"-X c #E9D565",
";X c #E9D674",
":X c #7B8184",
">X c #878684",
",X c #8A8B8B",
"<X c #939597",
"1X c #AFAFAE",
/* pixels */
"( ( ' ( H ( ( ( D ( D D ( ( H ' D ' H ' ` D ( ' ` D ( ` H ( ( ' ' D ' ` ( D ' ( ( H H H ( D ( D ' H ",
"' ( ' ` ( H ` ` H D ( ( D ' H ' H ` ( ( ( H ( ' ( H D ( ( ( ' ` ( ( ' ( ' D ' ' ( D ( ` ( ( ' ( ( ( ",
"H ( ( H D ' ` ( ( ( ( ( ( ' ( ( ( ' ` ( ' D H ( ( ( ( ' ` ` ' ( D ' ' ` ( ( ( ' ( ` ' [ ( D ` ( D D ",
"' ` ( ( ' ( ( H ' ( D ( ' ( ( ( ( ' ` ( ` H ' ( ( ( H ( ` ' ( D H ( ' ( H ( ( ( ( ' ( ( ( ( ( ( ( ` ",
"' ( D ( ( ( H D ( D D H ( ( ( ( ( ( ' ' ( D ( ` ( ( ' ( ( ( ( ( ( ( ` ` ( ( ( ( ( ( ( D D H ' ` ( ( ",
"( D D ( H ( ' ( ( ' ( ' ( ( D D H ` { [ ` D ' ( D ` ( D ' H D ( H ( ' ` ( ' ( ` ( H ` D D ` D ( ( ( ",
"( ( ( ( D H ( ( ( ( ( ` ( D ( H ( ` ' ( H ' ` ( ( ( H ( ` ` ` ( ` H ' ( ( ` ' H D ' ' H D H ( ( ( ( ",
"D ( ( ( H D H ( H ( ` ( D D ( ` ( ( D D ' D H ( H D D ( ( ` ( ( ( ' ` H ( D ( D ` ( H H ( ' H D ( D ",
"( ( H ( D ` ' ( D ` ( D ( ( ( ( D ( D D ` D D ( ( ( D ( D ( D H D ` ( H ( ( ' ( ( D ( ( H H D H H D ",
"( H ' ` D ' ( H ( ( ( ( ( ( D H ( ' ` ( ( ( ( ( D ' ` ` ( ( ` ( ( ` ( D ( ( ( ( ( D ( ' H H D D ( S ",
"H ' ( D ( ( D ( D ( ( D H ( ( H ( ` H D ( H ( ' H ( D ( H ( ` ` ( ' D H ( ( D D ( ' H D D D D ' ( S ",
"( ( D D D ( ( ( ( ( H ( ' ( H D ( ( ( ( ( D ( [ D D D ( ( D ` ( H ( D ` D ( ' ( ( ( D ( ( ( ( ` D D ",
"( ( ( ( H ( ( ( ( ( H D ( ' D H ' D D D ( ( ' ' D ( ' ` ( ( ' ( ( D H D D ( ( H ( ` D ` ( D ( ( D ' ",
"( H H H D ` H D ( H H ( ( D D ' ` D ' ( D H H ' D ( ' H ( ` ( ( ( ' ( ( D D ' ` H ( H H H ( ' ( ( ' ",
"D ' ( D D ` D ( ( H D D D D ' ' ( ` H S H ( D ' H ` ' D D D ( ( ( ( D ( ( ( ( D ( ` D H ( ( ( ( S H ",
"( ' ( D ( ` ' ( H ( D ( ' ' ( ( ( ( ( ( ` H ( ( ( ` ( ( ( H D ( ( ( ` ( H ( D ' ( ( ' ( ' ( ( ( S ( ",
"( ( D ( ( ( H H ( ( ' H R ' R R H R R =.5.E H H H ( H ' ' H ' ' ' R R ] E R ` ( D ( ( ` ( D D ` ( S ",
"H ( ( ` D ( ( D ( H ` } f.x.x.h.r.s.8.p.i.*.T F L L U 7.f.d.k.l.l.E.Q.~.F.w.I G H H ` D D S ' H ( D ",
"D ( ( ( D ( H D ( ` } b.OXT.Z.N.3.u.u.,.+. .a 3 3 9 l Z.|.@X&X$XXX X`.T.T.K.2.#.T H ` D ( ( ( D ' ( ",
"( ( D D H ( ( ( ' c.[.#XT.I.J.>.z K P z h f t 8 6 0 d X.>.A.R.XX X`.J.1.y.K.G.2.0.~ H D D H D ` ( ( ",
"' ( ( ` ` H ( H v.*X=XOX|.R.:.y M N n 5 e i i y u f d k X.:.j.R. X`.U.Z.N.K.G.2.Z.8.D ` ( ( ( ` H ( ",
"( ( D ` ( D H ] *X;X=X+X.Xh.i M [ C n - * & # o % e y u h x -.y.A.Y.T.T.U.K.G.M.K.z.R ( D S H D H H ",
"( ( D D ( H ( v.;Xd.Q.+XOX7.A ,X<X) N c = & O   X * = ; $ o $ % 7 u $.8.a.K.(.B.L.Q.E ( D ( ( D H D ",
"( D D D ( D ( n.r.d ~.+X^.U >X1X<X_ V c - & O X O * = > * O X O @ & < M Y 6.S.G.G.^.~ H D D D ( ( D ",
"D D D H D ( ` {.{.!.#X].Y.P [ | :X_ / n = & 1 v , > > > > ; # # - - - = B ,Xm.W.G.}.^ D S ( H ( ( ( ",
"( ( D ( ' ` ` {.b.p.T.R.Y.J V ) [ _ Z n > * 1 v > ; > > > ; * & - - - < B >Xm.W.L.OX^ D H H D H D H ",
"D D D ' ( D D n.q.s Y.|.Y.h b C / / C m v = O O O O # ; & O O @ - - c B Y 6.S.H.L.}.^ ( D D H ` D ( ",
"S D ' ( D D D 9.OXy.Y.|.T.l 1 n C C C m < & X . + + X # o o $ : r p $.s.a.P.).V.J.~.W ( D H ( H D ( ",
"D ( ( D ` ( ( ~ /.@X.X|.R.>.7 > n n m c > # O o % 4 6 w h l ..:.y.Z.Y.U.).P.H.<.G.D.E D ( ( D D D H ",
"( ( ( ( ( ( D H 5.[.-X%X.XI.O.7 < < < : e r q q w s d k O.;.1.Z.K.K.U.J.N.G.G.2.Z.r.R ( ' D ` ( D ( ",
"( H D D H D D ' ` =.[.%X%XoXR.>.j f h j g w 0 8 6 q j o.>.N.J.T._._.J.t.,.J.G.M.q.Q D D ( ( ( ( H ( ",
"( H D ( ( S ' D S ` ! z..X.X|.T.Z.N.2.;.o. .a 2 2 0 k u.`. X X'.`._.K.G.J.J.2.O.T H ( H H ( D ` H ( ",
"D D ` ` ` S ( S ( ` H ~ 6.e.w.0.4.%.4.i.%.&.L F L J I 6.d.g.g.g.g.z.D.F.Z.q.@.Y D S ' H D D ( ( H ( ",
"D ( D ( D S H S D D ( D H D D ( ( D W 9.=.( ( ( D S D ( ( D ( ( ( D R R E ] ' D ( H ` D D ( ` D D H ",
"D H D D D D H S S D ` S S D ( D H D D R R D D D D D D D D H ( D D D H D ( ( D D ( D D D D H ( D ' ( ",
"( D ( ` D ( D D ( ( ( S H ' H D ( D D D D ( D D ( S S D ( ( ( D ( ( D ( ( D ' H D ( ( D H D H D ' H ",
"' ( ( ` D ' ( ' ' ( ' H H ( D ` H D ( H H ` D H D ( D ( H S D D D D D ` ( H D S ( H H D S ` D D ( D ",
"D D D D D H ' ( S D ( D ( H ( ` D ' ` ` ' ( D ( ( ( ( ` D ( ( D H ( ` ( D H ` ( H D ( D S ` D D H S ",
"( ( ( ' ( ( ( D S ( ( D ( S H D H H D D H H D D D S D S D ( ( ( ` ( D H ( ( ( D D ( ' ( D ( D ` ( D ",
"' D ( D D ' ` ( ( ( ( ( ( D ` ( S D H ( D D D ( D D D D ` ( ( D ( ( D ( ( D D D H ( H D D D ( D D H ",
"( D ( ( ' D D ( ' ( ( ' ( D ( ( D H ( D D ( D ( H ( ( ( ( ( ( ( D D ( ( D H H ` ( D D D D D H S D D ",
"S ( ( ' ( H ( ( ( D ( ` H ( ( ( ( ( ` ( ( ' H ( D H H D D D D D ( ( D S D ' S H D D D D ( H D ( ' ( ",
"( H D H D ` ' ( H H ( ( D D D S D D ( D D S D D S D D ( D D D H ( D D H ( D D ` ( D D ( H D D ( H D ",
"( D ( ` ( ' ( D H D ( D S H ( ( D D S D ( D ` D S H H ( D H ( ( ` D ( ` D ( ( ( H D ( ( ( ( ( ` H D ",
"( ( ` ' ( H D ( ( D ` D D ( ' ( D ( ` ( H H ( D D D D D D H ( D D D D D D ' ( S D ( D D ( ` S D ( H ",
"( ' D S D D D ( D ' ( D ( D H D D ( ( ( D D D D H D D ( H H D ( ( D ( H ( ( D D ' ( S D ( ( S D ` ( ",
"` ( D D ( ( D H H ( S ( ( D D D D ` H H D D ( H S H H ( D D D D S D H D D D D H ( H D ( ( ( D ( ( D ",
"D H ( ( ( ( D D H ( ( ` ( D ( ( ( ( ( ( D H D D S ( H H D D D D H ` H D H ( D ( ( D D D H D S D D D ",
"D D H H D H D D D D H D ( D H ( D D D S D ( D S D D D S ( S H H D ` H ( H S S ( ( D D ( ' D S D H D ",
"D D D ( ` ( H ( D D H ( H D ( ( D ` H H ` ( S ( D H ( H D D D ( H ' ( D D D ( ` D D H ' ` ( ( H ( D "
};
