/* XPM */
static char *_d9f4e5508794bc082bd90bb6e1c5cd9mBJKDr4WtbWbUZwQ[] = {
/* columns rows colors chars-per-pixel */
"50 50 160 2 ",
"   c #03070A",
".  c #060A0D",
"X  c #080C0F",
"o  c #030D13",
"O  c #0A0E12",
"+  c #050F18",
"@  c #100F15",
"#  c #051117",
"$  c #0D1316",
"%  c #061518",
"&  c #0C151A",
"*  c #0D181E",
"=  c #101115",
"-  c #12151B",
";  c #19171C",
":  c #121A1D",
">  c #1D1B1C",
",  c #221B1C",
"<  c #071A21",
"1  c #0B1B22",
"2  c #0E1F29",
"3  c #131D22",
"4  c #1B1D23",
"5  c #151F28",
"6  c #201E23",
"7  c #0C2123",
"8  c #0B2429",
"9  c #122026",
"0  c #1A2225",
"q  c #14242B",
"w  c #1A262D",
"e  c #132B2D",
"r  c #1B292D",
"t  c #1D2730",
"y  c #1C2B34",
"u  c #212123",
"i  c #23252B",
"p  c #22292D",
"a  c #232C34",
"s  c #2F2D31",
"d  c #342E30",
"f  c #223136",
"g  c #2C3136",
"h  c #203139",
"j  c #2A333A",
"k  c #333135",
"l  c #33363B",
"z  c #323A3F",
"x  c #223641",
"c  c #253944",
"v  c #283944",
"b  c #343B41",
"n  c #3A3D41",
"m  c #3C4043",
"M  c #45474B",
"N  c #454A4D",
"B  c #4B4C4F",
"V  c #504D4E",
"C  c #454C52",
"Z  c #4B4D53",
"A  c #524F52",
"S  c #4C5256",
"D  c #4C535A",
"F  c #4E585A",
"G  c #545857",
"H  c #535559",
"J  c #59565D",
"K  c #565B5A",
"L  c #5A5E5D",
"P  c #5C605F",
"I  c #60615F",
"U  c #535A62",
"Y  c #5D5E62",
"T  c #5E6261",
"R  c #5C6269",
"E  c #5E6A76",
"W  c #616564",
"Q  c #646867",
"!  c #63656B",
"~  c #68676C",
"^  c #666A6A",
"/  c #696B6D",
"(  c #6C706F",
")  c #646C74",
"_  c #6B6C72",
"`  c #676F78",
"'  c #706F75",
"]  c #6E7274",
"[  c #64707C",
"{  c #6B7279",
"}  c #717376",
"|  c #74757A",
" . c #79777D",
".. c #76797D",
"X. c #797B7E",
"o. c #6C7781",
"O. c #6E7A86",
"+. c #737782",
"@. c #747B85",
"#. c #7B7D82",
"$. c #727E8A",
"%. c #7B7F8A",
"&. c #817E83",
"*. c #7E8185",
"=. c #7D828B",
"-. c #818385",
";. c #82858A",
":. c #86898C",
">. c #8B8C8E",
",. c #808992",
"<. c #8A8D91",
"1. c #8E8E98",
"2. c #928F94",
"3. c #8E9294",
"4. c #929495",
"5. c #94969B",
"6. c #969A9D",
"7. c #9A9B9D",
"8. c #9A9DA1",
"9. c #A29DA4",
"0. c #9EA1A4",
"q. c #A2A3A6",
"w. c #A6A7AB",
"e. c #A3A6AA",
"r. c #A4A8A9",
"t. c #A7ABAE",
"y. c #A4A8AB",
"u. c #AAABAE",
"i. c #A9ADB0",
"p. c #ABACB0",
"a. c #ABAFB3",
"s. c #ADACB1",
"d. c #AEACB1",
"f. c #AEAFB1",
"g. c #AAAEB2",
"h. c #AEB1B5",
"j. c #B1B1B6",
"k. c #B1B5B8",
"l. c #B6B7BB",
"z. c #B5B6BA",
"x. c #B2B5BA",
"c. c #B4B9BD",
"v. c #B6BBBF",
"b. c #B6BABD",
"n. c #BABBBF",
"m. c #B8BCBF",
"M. c #BAB9C1",
"N. c #BEBCC1",
"B. c #BDBEC2",
"V. c #BABDC3",
"C. c #BFC2C7",
"Z. c #C0C1C5",
"A. c #C0C0C8",
"S. c #C1C5C8",
"D. c #C3C5C9",
"F. c #C7CBCE",
"G. c #CCCBD1",
"H. c #CCD0D3",
"J. c #CED2D5",
"K. c #DADEE1",
/* pixels */
"W T W P W L L L W T P T L W W ~ Q W / Q W W ^ T W T W W / / Y W T L K L P P L P P W K K T L K P T P ",
"T W W T T T P K K W W W I W >.#.T K K K Y K L L Y K W K Q } :.T T P P T T P L L P W K G L K K T W W ",
"L W P T L W T L K T L P T Q d.| K Y K K H V V A A Z Y K K ! y./ T P P T T L L L L W L P W L L T L L ",
"T T K L K W T T T W P P P | N.~ W H l u ; > , , 6 i l K Y Y t...L L L L L L L T L W T W W T T W W W ",
"Q P L K T L T T L L W T K :.l.W Y k - O > s k d 4 ; @ n / K 0.3.L K K L L L L P P T L L L K W Q T P ",
"^ T T T Q L P T L K T T Y q.q.! } 4 $ 0 g g s s g i - 4 *.Y 5.i.P L L T T P L L L L K L K K P T T T ",
"W T T W W T P T Q T T T / l.8.+.2.- O & * $ & 4 & - - 4 e...:.l.W T P T T T L K L L L W T L P K T P ",
"T W P T L W T T P T W P _ l.5.1.q.= O o # o + + # & o 4 v.5.-.Z.^ W L L L P P L P L L W T L T L T T ",
"^ W T T T L L T L T T T _ n.5.d.5.& 7 7 8 8 8 8 8 7 * 3 i.v.:.M.] L K T L L W P T T K L K T T W W W ",
"W T T W W T T W L W T W ] l.7.N.4.. & r y y y t e q 0 $ q.H.>.M.} T L T L L T L T T L T L P L L W W ",
"T P T W W T T W W W K T } i.0.G.2.; 4 w 0 3 4 4 q 0 i 4 7.K.8.j.( T L T T P T L L T L W L T K K L L ",
"T P T T T P L P L P K L ] k.i.A.9.J Y H Z N B Z S H Y ! 0.S.j.d./ P L T T P T L T T L T K P L L W W ",
"W T T T T T P P P ^ Q L W i.3.| <.| -.} } / W ~ / | &.&.;.#.3.w.^ T P T T L L K T T L P K L L L T T ",
"W W W W W W W W L K K P W y.*.R *.+.*.| | / Y ! ~ } #. .#.! _ i.W T L T T P L L L L K T L T P T W W ",
"T W W W W W W W ^ P P Q ^ 0.{ ` =...#.| | / ! _ _ }  .+.=.{ R y.T P L T W T L T L L K T L T T W L L ",
"L P T T T T T P K W P L W e.) ` ;.#.&. ._ ~ _ ! / |  .%.{ { R 0.T T P T W T L T W W L P K L L T W W ",
"T P T T T T T T W T T P I 0.R E :.#.#...' / ! ~ _ } #.+.+.` K 0.T L K L T L L T L P P L L L T T W W ",
"W T T T W T T T T T W P W 0.R E :.#.#. .' / ! ! _ } X.+.@.{ H 8.W T L L T T P T T T T P L L L L W W ",
"W T T T T T T P T T T P W 7.Y [ <.#.#. .' _ ! ! _ | #.+.%.o.D 6.W T L L T W T L L L L L L L L L P P ",
"W T T T T T T T T T T P L 4.U o.<.#.#. .' _ ! ! _ | X.+.=.@.C 4.T T L L L T T K L L L L P T P L T T ",
"W T T T T P T W T T T P I 4.U O.<.#.+. .} _ ! ! _ | ..+.%.$.C <.P L P L K L T L T T L L L P P L W W ",
"T T T T P L T W P T T W W 3.D O.<.-.#.#.| ' / ~ _  .&.#.=.=.C <.P L T T K L T L T P L L L P T T P P ",
"T T T T T L T T P P P W W >.S @.>.*.-.#.| ' / ~ } | &.;.=.,.S <.W K P T K L T L K L L L L L P T L L ",
"T T P T T P P T T L K P L :.Z $.;.+.#.+.} _ ! ! _ _ ..#.+.=.C ;.W K L T K L T K K L L L K K K K T T ",
"T W W T T P T W W / ^ T Q >.N .._ } }  ..._ ! / ~ ] _ | R { M #.L P T T T L P W L K L L T L G L W W ",
"L T T W T T P L Q L Q ^ / #.N F i g z z z j j j b b j a p C N | Q T K K K L L K P T T L L P K L T T ",
"T T T T T T T T L T P } u.5.N N 1 9 r w q y h y w w y t 9 a Z ..7.X.W W T L W ^ K T T K L T L T L L ",
"W W T T T T T W T T T T -.q.^ w 1 1 1 < 1 y c x 1 1 q q 3 0 G 6.;.W K W T K K P K L T L L T P W T T ",
"T T W ^ W T L P W K T L B 4./ : 9 1 1 1 2 y v v q 2 q q 9 3 N 8.W K P W L T W P L L T T T L K T W W ",
"T W W ^ W P P T L W K W ~ >.S 0 a t t a a y y y q * q v f 3 N h.W P T T K K T W T L T T W P K T T T ",
"Q W W W T L T W W Q T L L >._ $ a a a a a t 9 9 p 3 1 y 3 o K v.P K L ^ W K K W L L T P T T L T W W ",
"T P P T T P L T W L Q W Q >.6.p o & - * 5 3 3 5 : : % % % r <.S.Q W L L L L L T L P T K L W L L L L ",
"W T L L P W T L L L P T Q :.<._ N p $ X . .   O . . O 0 N ..5.V.^ L W W T T T T K P T T L T W W W W ",
"T T T L P T T T T P L P W 4.<.~ *.| ~ K B N m n M S T ] *.;.5.V.^ T W T L T T T L T T T L L L L T T ",
"T W W T L P T T W T L T T 0.4./ _ #.X.*.X.*.*.*.#.#.*.;.:...6.C./ T W P K P T P K L P P T T P L T T ",
"T W W T P L P T L W T W K e.7._ | *...=.#.#.+.#.*.*.+.*.*...8.C./ L T T L T P L K K L L T T T T T T ",
"T T T T T T P L K T P T K q.8.] ..#.#.*.#.#.#.#.+.#.+.<.;.#.0.S./ L L T T W T T T L L L T T P L L L ",
"T L L T W T T P T T L L L 7.q._ } ..:.#...#.#.#.*.*.#.:.| | 8.J.} T P T T T T T T P L P T P P P P P ",
"T T P T T T T T W T T L W <.t.} ~ ~ :.#...*.*.#.#.*.;...~ ..0.F.] W W P K T T L P L L T T P P T T T ",
"W T T T T P P T P T W L W -.t...~ H #.#.#.#.#.#.#.*.*.T T :.i.m.T L W L K W W L T P T T T L L L L L ",
"T P L T T T P P T T T L W / q.X._ ~ #.;.#.*.#.#.#.#.1.| ..:.h.6.K K Q P L W K W P L L L T L L T T T ",
"W T T T T T W W T L T T L T ;.>._ | :.<.#.#.*.#.#.;.*.#...<.k.X.L P W T T W L T W W T P P L K L W W ",
"T T T T T P T W W L P T L W ^ :.*. ...;.*...#.*.;.;.;.#.*.4.>.K L T T P T T L L T W T L P P L T T T ",
"P T T T P L P T L L P T L Q L } 0.<...;.;.#.*.#.%.#.#.*.6.3./ L K T L L T P T T L T T L P T T T P L ",
"P T T T T T T T K L T T K P P W *.;.#.X.....*.| ..;.| #.4.] W P L W P P T P W W L W T L P T P P W W ",
"T T P L P T W W W L L W T P W P T / ] ] } | X.X.#.| } _ ( L T L L T T L P T P W L T T L T P L L W W ",
"T T T P L T T W ^ T L T W W T T T L P T W W T ^ ^ K ^ P K W L T L L W L P T K P L T P T T P L P T T ",
"T W Q W P P T T L W W P L W K T P T ^ P P W L T G T G T W T K L P L W P T ^ K L T T T T W L K L W W ",
"L W T T T L T P L L W P K L L T W W T T W W W W T T P P T T P L W W T L L L L T L P T T T P P P W W ",
"L W T T T L T L K L W W T P K L T T L L P T T T T T P P T T P L T T L K L L L T L L T T P L L P L P "
};
