/* XPM */
static char *_670be3aec7043d7e5575e16fd9ebbbbognzrX6yoVrXrBEm[] = {
/* columns rows colors chars-per-pixel */
"50 50 168 2 ",
"   c #03070A",
".  c #060A0D",
"X  c #080C0F",
"o  c #030D13",
"O  c #0A0E12",
"+  c #050F18",
"@  c #100F15",
"#  c #051117",
"$  c #0D1316",
"%  c #061518",
"&  c #0C151A",
"*  c #0D181E",
"=  c #101115",
"-  c #12151B",
";  c #19171C",
":  c #121A1D",
">  c #1D1B1C",
",  c #221B1C",
"<  c #071A21",
"1  c #0B1B22",
"2  c #0E1F29",
"3  c #131D22",
"4  c #1B1D23",
"5  c #151F28",
"6  c #201E23",
"7  c #0C2123",
"8  c #0B2429",
"9  c #122026",
"0  c #1A2225",
"q  c #14242B",
"w  c #1A262D",
"e  c #132B2D",
"r  c #1B292D",
"t  c #1D2730",
"y  c #1C2B34",
"u  c #212123",
"i  c #23252B",
"p  c #22292D",
"a  c #232C34",
"s  c #2F2D31",
"d  c #342E30",
"f  c #223136",
"g  c #2C3136",
"h  c #203139",
"j  c #2A333A",
"k  c #333135",
"l  c #33363B",
"z  c #323A3F",
"x  c #223641",
"c  c #253944",
"v  c #283944",
"b  c #343B41",
"n  c #3A3D41",
"m  c #3C4043",
"M  c #45474B",
"N  c #454A4D",
"B  c #4B4C4F",
"V  c #504D4E",
"C  c #454C52",
"Z  c #4B4D53",
"A  c #524F52",
"S  c #4C5256",
"D  c #4C535A",
"F  c #4E585A",
"G  c #545857",
"H  c #535559",
"J  c #59565D",
"K  c #565B5A",
"L  c #5A5E5D",
"P  c #5C605F",
"I  c #60615F",
"U  c #535A62",
"Y  c #5D5E62",
"T  c #5E6261",
"R  c #5C6269",
"E  c #5E6A76",
"W  c #616564",
"Q  c #646867",
"!  c #63656B",
"~  c #68676C",
"^  c #666A6A",
"/  c #696B6D",
"(  c #6C706F",
")  c #646C74",
"_  c #6B6C72",
"`  c #676F78",
"'  c #706F75",
"]  c #6E7274",
"[  c #64707C",
"{  c #6B7279",
"}  c #717376",
"|  c #74757A",
" . c #79777D",
".. c #76797D",
"X. c #797B7E",
"o. c #6C7781",
"O. c #6E7A86",
"+. c #737782",
"@. c #747B85",
"#. c #7B7D82",
"$. c #727E8A",
"%. c #7B7F8A",
"&. c #817F84",
"*. c #7E8185",
"=. c #7D828B",
"-. c #818385",
";. c #82858A",
":. c #86898C",
">. c #8B8C8E",
",. c #808992",
"<. c #8A8D91",
"1. c #8E8E98",
"2. c #928F94",
"3. c #8E9294",
"4. c #919597",
"5. c #929394",
"6. c #93969B",
"7. c #94979C",
"8. c #94969A",
"9. c #979B9E",
"0. c #95989D",
"q. c #969A9C",
"w. c #98999D",
"e. c #9B9C9E",
"r. c #9A9B9D",
"t. c #999DA0",
"y. c #9B9EA2",
"u. c #9C9DA1",
"i. c #9A9CA1",
"p. c #A29DA4",
"a. c #9FA0A2",
"s. c #9FA2A7",
"d. c #9EA2A5",
"f. c #9EA1A4",
"g. c #A2A3A5",
"h. c #A2A3A7",
"j. c #A1A5A4",
"k. c #A4A5A7",
"l. c #A1A2A6",
"z. c #A3A6AA",
"x. c #A5A9AB",
"c. c #A8A9AD",
"v. c #AAABAF",
"b. c gray68",
"n. c #A9ADB0",
"m. c #ACADB1",
"M. c #ACB0B3",
"N. c #AFB2B7",
"B. c #B1B1B6",
"V. c #B2B5BA",
"C. c #B5B6BA",
"Z. c #B6BABD",
"A. c #B5BABE",
"S. c #B8BCBF",
"D. c #BABBBF",
"F. c #B9BCC1",
"G. c #BBBEC5",
"H. c #BCBBC1",
"J. c #BFC2C7",
"K. c #BEC1C6",
"L. c #C0C1C5",
"P. c #C3C5C9",
"I. c #C1C3C8",
"U. c #C7CBCE",
"Y. c #CCCBD1",
"T. c #CED2D5",
"R. c #CCD0D3",
"E. c #DADEE1",
/* pixels */
"L K L W T T T T L K ^ T P W L P L K T W T G T G T L W P P ^ T P T K W L P W W L T T P P W Q W T W W ",
"P L P T T P T L P K T P L W L L T L W K P ^ K ^ ^ T W W T P L T T T W W T L T ^ W T T L P T T T T T ",
"L L P T L T T L W P T P L T T L L T L ( _ } | #.X.X.| } ] ] / T T W P T W L L W W W T P L P T T W W ",
"P P T P L T W L W W P T P P W L P W ] 4.#.| ;...| *.....X.#.;.*.W P P K T T L K T T T T T T T P W W ",
"T T T P L T T L T T P T L L T K L / 3.q.*.#.#.#.#.*.#.;.;...<.s.} L Q L T P L L T P L P T T T P P L ",
"T L P P L T W T L L T T P T T L K >.4.*.#.;.;.;.*.#...*.;.....*.:.^ W L T P L W W T P T T T T T T T ",
"L K L P P T W W T L W T T W P L X.V.<...#.*.;.#.#.*.#.#.<.:.| _ >.-.T L T T L T W W T T T T T W W W ",
"T L L T L L L P W K W L P Q K K 9.N.:...| <.#.#.#.#.*.#.-.#.^ _ X.h./ W L T T T P P T T T L P T T T ",
"L L L T T T P T L W W K L W L T S.n.:.T Y *.*.#.#.#.#.#.#.#.H ! X.c.-.W L W T P T P P T T T T W L L ",
"T P P T T L L P L T T K P W W ] U.s...^ ..;.*.#.#.*.*...#.:.! ^ } c.<.W L T T W T T T T T P T T T T ",
"P P P T P L P T T T T T T P T } T.t.| | :.#.*.*.#.#.#...#.:...} _ l.e.L L L T T P T T W T L L T P P ",
"L P T T L L L T T T W T T L L / P.t.#.;.<.#.#.#.#.#.#.#.*.#.#...} u.l.K T P T K L P T T T T T T L L ",
"T T T T L L K K L P T L T T L / K.t...*.*.#.*.*.#.#.#.#.;.+.*.| _ w.k.K W T W L T P L P T W W T T T ",
"L P T T P P L K P T P K P W T / K.9...:.;.*.#.#.*.*.*.X.*.X.#._ / 5.a.T T L T W T T P L T W W T T T ",
"L L L L T T T L T T T L T W T ^ F.7.;.*.] T S M n m M B K ^ | *.^ <.5.W P L P T T T T P L T T T T T ",
"W W T L T T P K T T T T W W L ^ G.6...N 0 O . . O   . . X $ p N _ <.:.Q T P L L L T W P L L T W W W ",
"L L W L K T P L T L L L L L W Q P.<.r % % % : : 3 3 3 3 * : & o p 9.>.Q W Q L W T L P T T P P T L L ",
"T L T T P T L L W K K W ^ L K P Z.K o 3 y 1 3 p 5 q t a a a a a $ _ >.L L T W W W T L T W W W Q W W ",
"T K P W T T L T W T K K T T P W M.N 3 f v q * q y y y a a t t a 0 S >.~ W K W L T P P W ^ W W T T T ",
"T K L T T T L L P W T L W P K W t.N 3 9 q q 2 q v v y 2 1 < < 9 : / 5.B L T K W P L T W ^ W T T W W ",
"W P T L L T L K P K K T W K W -.9.H 0 3 q q < < x c y < < 1 < 1 w ^ l.-.T T T T W T T T T T W W T T ",
"T L T L K T T K ^ W L T W W X.e...Z a 9 r t r r y h y q r r q 1 N N w.b.} P T L T T T T T T T T L L ",
"L K P L L T T P K L L K K K T Q | N C p a j b b j j j z z z g p F N #./ ^ Q L Q L P T T W T T L T T ",
"L G L T L L K L W P L T T T P L #.M { R | _ ] ^ / ! _ ....} } _ ..N >.Q T ^ / W W T P T T W W T W W ",
"K K K K L L L K K T L K T L K W ;.C =.+.#. ._ _ ! ! _ } #.#.#.;.$.Z :.L P K L T T P P T T P T T T T ",
"T P L L L L L K L T L K T P K W <.S ,.=.;.&.| ' ^ ^ ' | #.-.*.:.O.S >.W W P P P T T L T T T T T L L ",
"T T P L L L P T L T L K T T L P <.C =.=.#.&. ._ ^ / ' | #.#.*.<.O.D 3.W W T T P W T L P T T T T P P ",
"L P P L L L T T L T L K L P L P <.N @.%.#.X.| _ ! ! _ } ..#.#.<.O.U 5.I P T T T W T P T T T T W W W ",
"L P T P L L L L K T T L L L T T 3.C @.=.#.X.| _ ! ! _ ' ..#.#.<.o.U 4.L P T T T T T T T T T T W T T ",
"L L L L L L L L L T W T L L T W 9.D o.%.#.#.| _ ! ! _ '  .#.#.<.[ R e.W P T T T P T T T T T T W P P ",
"L L L L P T T T T P T T L L T W t.F { @.#.X.} _ ! ! / '  .#.#.:.E R a.W T W T T T T T W T T T W W W ",
"T T L L L P P L T L L T L K L T s.K ` +.#.#.} _ ! ! / '  .#.#.:.E R a.I P T T W T T T T T T P T W W ",
"T L L K P L W W T L T W T P T T s.R { { #. .| / ! ~ ~ _  .&.#.;.` ) z.W L P W K P T T T T T P L W W ",
"W T T L T K L L T L T W T L P T z.R { =.#. .} _ _ ! / | | #.X.=.` { s.^ Q P P ^ W W W W W W W T L L ",
"T P T L T K L L L L P T T L T W n._ ! #. .#.} ~ ! Y / | | *.#.*.R *.z.W P K K L W W W W W W W W W W ",
"L L L K P L T T K L L T T P T ^ x.3.#.;.&.#.| / ~ W / } } -.| <.| 3.n.W L Q ^ P P P T T T T T W T T ",
"L L P K T L T T L T P T T L P / m.B.P.s.! Y H S Z B N Z H Y J p.I.n.V.] L K P L P L P T T T P T W W ",
"K K T L W L T L L T P T T L T ( B.t.E.w.4 i 0 q 4 4 3 0 w 4 ; 2.Y.s.n.} T K W W W T T W W T P T L L ",
"L L P L T L T T L T L L T L T } H.>.R.h.$ 0 q e t y t y r & . 5.H.w.C.] W T W L W T T W W T T W W W ",
"W T T K L K T T P W L L T K L ] H.:.Z.n.3 * 7 8 8 8 8 8 7 7 & 6.m.8.D._ T T T L T L L T T T W ^ W W ",
"L T L T W L L P L P P L L L W ^ L.-.6.Z.4 o & # + + o # o O = l.1.7.C._ P W T P T T W L T P W T T T ",
"K P L T W L L L K L T T T P T W C.:...z.4 - : & 4 & $ * & O - 2.#.i.C./ T T T Q T P T W W T T W T P ",
"T P K K L K L L L L P T T L L P n.8.Y *.4 - p g s s g g 0 $ 4 } ! h.l.Y T T K L T P L Q T T T ^ T T ",
"Q W K L L L T P P L L L L K K L 3.s.K / n @ ; 4 d k s > O - k Y W C.:.K T W L L T T L T K L P Q T P ",
"W T T W W T W L T L L L L L L L X.c.Y Y K l i 6 , , > ; u l H W ! H.| P P P W T T T W K L K T T W W ",
"T L L W P L W L L L L T T P P T / z.! K K Y Z A A V V H K K Y K | m.Q T P L T K L T W L T P W L L L ",
"T K K L G K W P L L P T T P P T T :.} Q K W K Y L L K Y K K K T #.>.W I W W W K K P T T T W W T W W ",
"P K L T K K W P P L P P L K L T W Y / / W W T W T ^ W W Q / W Q ~ W W L T P T W L L L W P W T W T P ",
"P P P T T T P L T L L L L T W W L P T T P P T T W W W W T T W W W L L K P W L L P T L T T T W L W W ",
"P L L P T T L L T L L L K L T T L P T T P P T T T T T P L L T T L K P T W W L K L T L T T T W L L P "
};
