/* XPM */
static char *_ed022880232406f8a0e97efdc738e53vhmhL1l03zkViYoy[] = {
/* columns rows colors chars-per-pixel */
"50 50 168 2 ",
"   c #060A0D",
".  c #080C0F",
"X  c #030D13",
"o  c #0A0E12",
"O  c #050F18",
"+  c #100F15",
"@  c #051216",
"#  c #0C1317",
"$  c #061518",
"%  c #0C151A",
"&  c #0D181E",
"*  c #101316",
"=  c #12151B",
"-  c #19171C",
";  c #121B1D",
":  c #1D1B1C",
">  c #221B1C",
",  c #071A21",
"<  c #0B1B22",
"1  c #0E1F29",
"2  c #131D22",
"3  c #1B1E23",
"4  c #151F28",
"5  c #201E23",
"6  c #0C2123",
"7  c #0B2429",
"8  c #132026",
"9  c #1A2225",
"0  c #14242B",
"q  c #1A262C",
"w  c #132B2D",
"e  c #1B292D",
"r  c #1D2730",
"t  c #1C2B33",
"y  c #1D2E38",
"u  c #212123",
"i  c #23252B",
"p  c #22292D",
"a  c #232C34",
"s  c #2F2D31",
"d  c #342E30",
"f  c #223136",
"g  c #2C3136",
"h  c #203139",
"j  c #2A333A",
"k  c #333135",
"l  c #33363B",
"z  c #32393F",
"x  c #223641",
"c  c #253944",
"v  c #283944",
"b  c #343B41",
"n  c #3A3D41",
"m  c #3C4043",
"M  c #45474B",
"N  c #454A4D",
"B  c #4B4C4F",
"V  c #504D4E",
"C  c #454C52",
"Z  c #4B4D53",
"A  c #524F52",
"S  c #4C5256",
"D  c #4C535A",
"F  c #4E585A",
"G  c #545857",
"H  c #535559",
"J  c #59565D",
"K  c #565B5A",
"L  c #5A5E5D",
"P  c #5C605F",
"I  c #60615F",
"U  c #535A62",
"Y  c #5D5E62",
"T  c #5E6261",
"R  c #5C6269",
"E  c #5E6A76",
"W  c #616564",
"Q  c #646867",
"!  c #63656B",
"~  c #68676C",
"^  c #666A6A",
"/  c #696B6D",
"(  c #6C706F",
")  c #646C74",
"_  c #6B6C72",
"`  c #676F78",
"'  c #706F75",
"]  c #6E7274",
"[  c #64707C",
"{  c #6B7279",
"}  c #717376",
"|  c #74757A",
" . c #79777D",
".. c #76797D",
"X. c #797B7E",
"o. c #6C7781",
"O. c #6E7A86",
"+. c #737782",
"@. c #747B85",
"#. c #7B7D82",
"$. c #727E8A",
"%. c #7B7F8A",
"&. c #817E83",
"*. c #7D8185",
"=. c #7D828B",
"-. c #818385",
";. c #82858A",
":. c #86898D",
">. c #8B8C8E",
",. c #808992",
"<. c #8A8D91",
"1. c #8E8E98",
"2. c #928F94",
"3. c #8E9295",
"4. c #919395",
"5. c #94969A",
"6. c #969A9D",
"7. c #98989A",
"8. c #9A9A9E",
"9. c #9B9C9E",
"0. c #9A9D9E",
"q. c #9B9BA3",
"w. c #9D9EA1",
"e. c #9A9DA1",
"r. c #A29DA4",
"t. c #9FA0A2",
"y. c #9FA1A6",
"u. c #9FA4A7",
"i. c #9DA1A5",
"p. c #A2A3A5",
"a. c #A2A3A7",
"s. c #A1A1A5",
"d. c #A1A5A4",
"f. c #A4A5A7",
"g. c #A0A4A7",
"h. c #A2A3A8",
"j. c #A4A7AB",
"k. c #A4A8AB",
"l. c #A6AAAC",
"z. c #A8A9AD",
"x. c #AAABAF",
"c. c gray68",
"v. c #A9ADB0",
"b. c #ABACB0",
"n. c #AEAFB1",
"m. c #ADAEB3",
"M. c #AEACB1",
"N. c #ABADB1",
"B. c #AEB1B5",
"V. c #B1B1B6",
"C. c #B1B5B8",
"Z. c #B6B7BB",
"A. c #B5B6BA",
"S. c #B4B7BA",
"D. c #B5BABE",
"F. c #BABBBF",
"G. c #B8BCBF",
"H. c #BDBCC1",
"J. c #BDBEC2",
"K. c #BABBC2",
"L. c #BFC2C7",
"P. c #C0C1C5",
"I. c #C0C0C8",
"U. c #C2C5C8",
"Y. c #C6CACD",
"T. c #CCCBD1",
"R. c #CDD1D4",
"E. c #DADEE1",
/* pixels */
"T T T P L T W T W T T T T T T W T Q T T W T L T T T T W W W W T L T W W T T W ^ T W ^ Q T L T W L L ",
"W T T T T T T P T T L T W W T T P W W T W T T W T T T T T T T P P W W T P P T W W T T P T W W T W W ",
"Q T P T T T T L T P L T W W T L P W W W T T T W P T T T T T T T T W W T T T T T P T T L K P W W T T ",
"W P L T T T T T T T T T T T L L T W ^ ^ T T W T T T T T T T T T T W W T T W W T T W T K L T T P T T ",
"P L P T P T T T T T W T P L P P T T W W T T T T T T P T T T W T T W W T T W W T L W Q T K L T W T T ",
"P T T T L P T T P T T T L P T W P L P T T T T P P L L P T T T T T W W T P T T L W T L L W W T L L L ",
"T T W T P T W P P T T P P T T T L T P L T T P T P T T T T T T T T W W P L T T L T P P T T T P L T T ",
"T W W T T W W P T T P L T T T L T W T P W T L W T T W W T P T T P W W P P W W T T T T T T L K L P L ",
"L ^ W K L W T T P W T K L W T L W W L W P L Q W T P P T T T T W K ^ L P L W L L P Q L L T K K W L K ",
"W T L L L P L T T T T T T W P L L W W K T P L / L P T T T T T T W P K ^ P W W T T T K P W T W T L L ",
"W L L T P P T T W T L P T L L P Q T K T T P Q ^ K P T T T T W T P P K Q K K T T W T T W P L W P W W ",
"P T W T P T T L L L L T W T P W W L W L T } ^ T P W W P P P T P L Q P L L T W T P T T T P P W T P W ",
"L W T K L L L W T T L K K T W Q Q L ^ B -.c./ Q L W W I L W W I W ^ W W ] } ] _ _ / Y K L W I L K T ",
"W W P P Q W T / -.<.9.a.f.t.4.:.>.>.>.4.a.7.#.>.:.>.3.4.5.9.t.t.j.u.k.v.C.v.Z.F.Z.Z.a.:.| Q W W L P ",
"K T W L L ^ ;.d.x.x.a.w.8.4.<.<.6._ S / ^ N N N Z S D U U Y R R ) { *.3.M.i.8.5.5.q.h.Z.J.M.>.W L K ",
"T T T W } :.>.X...} _ ] _ / ~ _ p # 9 ; q N F ..$.O.O.O.o.[ E E ` ` R | I.T.J.M.1.#.! W ! | #.^ T L ",
"P T R *.i.*._ _ ! ~ } ..| _ *.N X a a 8 < < p _ ;.:.<.<.<.<.:.:.;.=.*.<.r.2.4.5.a.2.} Y W K W Q W T ",
"T L / ;.:...| ~ H ! ..#.*.#.| i % a r < < 8 g } #.*.*.#.#.#.#.#.#...#.| J - . % * = 3 k H Y K W W T ",
"^ P ] #.....:.#.#.:.:.#...X.~ * = a r < < e z } #.-.#.#.#.#.#.#.&.#.#.-.Y 3 % 6 o o # = l K K / T L ",
"P T ] X.;.;.<.;.#.#.#.*.;.*.K . & a a < , q z ..#.#.#..... . ... .} | } H q q 6 X % 9 o u K K Q T L ",
"P W } ..;.*.#.#.#.....#.*.X.B . 2 a a 1 < 0 z ..} | | } ' ' ' ' _ | | } Z 9 t 7 @ & g : - H Y W W P ",
"W W | ..#...#.*.#.*.#.#.#.*.M . 2 r t y t t j _ _ ' ' _ _ _ / / _ / / / N 2 r 7 X # g s : V K W W T ",
"L T X.*.*.#.*.#.#.*.#.#.X.*.m   2 8 y v c h j ! ! ~ / ! ! ! ! ! _ ! Y W B 3 t 7 O % s k > V L ^ W T ",
"T ^ X.| #.*.#.#.#.#.#.#.#.*.n o 2 4 y v x t j / ! ~ ~ ! ! ! ! ! ! _ ! ~ Z 3 r 7 O 3 s d > A L T W T ",
"G ^ #...#.;.#.#.#.#.#.#.*.#.M . ; p 8 0 < q b ~ _ } _ _ _ _ _ _ / _ ^ / S 0 w 7 @ % g 3 5 A Y W T T ",
"T L | ;.#.;.;.#.*.*.*.#.*.#.S . ; 2 & 1 < q b ] _ |  .| | | } } | } } | H 9 0 6 % = p - i Z K R T T ",
"G ^ } | #.;.*.<.*.;.#.#.#.*.R o $ < 0 0 0 r j _ ..&.&...#.#.X.#. . .#.&.Y i 9 & X = = + k Y W W P P ",
"T L _ #.*.#.#.| Y ..:.<.*.;.] 9 $ t v 0 0 q a | #.;.#.#.#.#.#.#.#.#. .&.! 3 # 2 3 3 3 n K K K W P P ",
"W K ( 4.5.;.....R ~ | ;.*.:.*.N $ 2 f 8 2 8 p R +.=.=.=.=.%.@.+.{ =.#.;.i.8.d.v.D.j.*./ Y K Q / T T ",
"T W L ] 3.4.<.:.:...| #.....;...e X 2 2 9 a C { =.,.=.@.@.o.{ ` { { ! #.U.E.R.D.5...Y K Y ! ] / T T ",
"K L T W / >.C.B.v.i.e.e.e.6.5.5.<.K N N H Z N M C S C N C D F K R R _ 3.V.e.>.:.-.:.5.i.z.k.:.Y P P ",
"L T L P L K X.6.G.Y.R.U.L.L.K.J.U.D.B.e.6...| #.;.<.<.<.3.6.e.i.i.j.v.k.M.V.K.K.P.Z.v.3.../ T T L L ",
"P L L L K L L K T ] } / / / ^ ^ Q P W W ;.9.Q L W W P P T W W T T T W ^ / ( } ] ^ W P L L T T T W T ",
"L L T T T T P K L W T L L T T L W K P K W X.T P K K L L T T T L T P T T P T T L W T L K L P P L W T ",
"W W T P L T W Q W W P L T W W W L L T P K W K T L P T P L L L K P L L P L L L K L P L K L P P K T L ",
"P L L P L P T P L P T T T P T W L ^ T W W W K T T T T L L L L L T T T T T T T T L T T L L T T L L K ",
"T P P T T T T L K K T T L K L T L W K L T T K T K K K K L T T T W W T T T T L L L T T L L T T P L L ",
"^ T P P P T W W W T T W T P T T L K K T K L L L L L L L T W T L T T P L P P L L P T P L L L P P L L ",
"K K P W T L L K W T T T P T T T L K T W K W L L T T T T T T P L L L L L T T T W P L L L L L L L L L ",
"L P W W T P T W L L T T L P T T T W W P P ^ K W K L L L K L T T T T L K L L L P L K L P T L L P T T ",
"T L L L L T W P T P T T K K L K L L T L K K P L K K T T L L T L W L L T T L T T P L L P L L P P L L ",
"T T T W T W W L P L P L K L T P P L L L L T T K L L P T L L T P W L L T T T T T L L P T W W W W P L ",
"T P T T T T T L T L L L L P T T T T T T T T T L L L L L L L T P L K K L L L L K L L K L T L K K T T ",
"T T L L L L P L T T P L L P T T K P T T L K L L L L L L L L P L P T T P T T T L W W L L W P G K T T ",
"W T T P P P P T T T T T T T L L L T W T L L L T K L L L P L L L K L L K K L L K T T K L W W L T T P ",
"L P P T T P L L L P P T T T L T W T P L T T P L K L P P T L L L L T T L P T P T L L K K T L K L P L ",
"K L L P T L K L L P P P T P L W L L K K P L K G K P T P P L L T L T P L L K L T T L P W T L K K P L ",
"L P L P T T L T L T P L T L L W L T T T W T L L K T T L L L L T P W T L L K L W L K T Q W T T P P P ",
"W T W W P T W T L T P L T T T W L W T W T L T W T L P W T P W W W L W T W L W W T T T T W L W T W L ",
"W T W W L T W T L T P L T T T W L W T W T L T W T L P W T P W W W L W T W L W W T P T P W L W P W P "
};
