/* XPM */
static char *_3f2b6ee7d70410eddbe05d55a9e9d66QQjGMed2FG2nLPEf[] = {
/* columns rows colors chars-per-pixel */
"50 50 160 2 ",
"   c #060A0D",
".  c #080C0F",
"X  c #030D13",
"o  c #0A0E12",
"O  c #050F18",
"+  c #100F15",
"@  c #051216",
"#  c #0C1317",
"$  c #061518",
"%  c #0C151A",
"&  c #0D181E",
"*  c #101316",
"=  c #12151B",
"-  c #19171C",
";  c #121B1D",
":  c #1D1B1C",
">  c #221B1C",
",  c #071A21",
"<  c #0B1B22",
"1  c #0E1F29",
"2  c #131D22",
"3  c #1B1E23",
"4  c #151F28",
"5  c #201E23",
"6  c #0C2123",
"7  c #0B2429",
"8  c #132026",
"9  c #1A2225",
"0  c #14242B",
"q  c #1A262C",
"w  c #132B2D",
"e  c #1B292D",
"r  c #1D2730",
"t  c #1C2B33",
"y  c #1D2E38",
"u  c #212123",
"i  c #23252B",
"p  c #22292D",
"a  c #232C34",
"s  c #2F2D31",
"d  c #342E30",
"f  c #223136",
"g  c #2C3136",
"h  c #203139",
"j  c #2A333A",
"k  c #333135",
"l  c #33363B",
"z  c #32393F",
"x  c #223641",
"c  c #253944",
"v  c #283944",
"b  c #343B41",
"n  c #3A3D41",
"m  c #3C4043",
"M  c #45474B",
"N  c #454A4D",
"B  c #4B4C4F",
"V  c #504D4E",
"C  c #454C52",
"Z  c #4B4D53",
"A  c #524F52",
"S  c #4C5256",
"D  c #4C535A",
"F  c #4E585A",
"G  c #545857",
"H  c #535559",
"J  c #59565D",
"K  c #565B5A",
"L  c #5A5E5D",
"P  c #5C605F",
"I  c #60615F",
"U  c #535A62",
"Y  c #5D5E62",
"T  c #5E6261",
"R  c #5C6269",
"E  c #5E6A76",
"W  c #616564",
"Q  c #646867",
"!  c #63656B",
"~  c #68676C",
"^  c #666A6A",
"/  c #696B6D",
"(  c #6C706F",
")  c #646C74",
"_  c #6B6C72",
"`  c #676F78",
"'  c #706F75",
"]  c #6E7274",
"[  c #64707C",
"{  c #6B7279",
"}  c #717376",
"|  c #74757A",
" . c #79777D",
".. c #76797D",
"X. c #797B7E",
"o. c #6C7781",
"O. c #6E7A86",
"+. c #737782",
"@. c #747B85",
"#. c #7B7D82",
"$. c #727E8A",
"%. c #7B7F8A",
"&. c #817E83",
"*. c #7D8185",
"=. c #7D828B",
"-. c #818385",
";. c #82858A",
":. c #86898D",
">. c #8B8C8E",
",. c #808992",
"<. c #8A8D91",
"1. c #8E8E98",
"2. c #928F94",
"3. c #8E9295",
"4. c #919395",
"5. c #94969A",
"6. c #969A9D",
"7. c #9A9B9D",
"8. c #9B9DA1",
"9. c #A29DA4",
"0. c #9EA1A5",
"q. c #A2A3A6",
"w. c #A4A7AC",
"e. c #A3A6AA",
"r. c #A4A8A9",
"t. c #A7ABAE",
"y. c #A4A8AB",
"u. c #AAABAE",
"i. c #A9ADB0",
"p. c #ABAFB3",
"a. c #ABACB0",
"s. c #ADACB1",
"d. c #ACADB1",
"f. c #ACB0B3",
"g. c #AFB2B7",
"h. c #B1B1B6",
"j. c #B2B6B9",
"k. c #B6B7BB",
"l. c #B4B6BA",
"z. c #B4B9BD",
"x. c #B6BBBF",
"c. c #B6BABD",
"v. c #B8BCBF",
"b. c #BABBBF",
"n. c #BAB9C0",
"m. c #B9BCC1",
"M. c #BBBEC5",
"N. c #BDBDC2",
"B. c #BFC2C7",
"V. c #BEC1C6",
"C. c #C0C1C5",
"Z. c #C1C5C8",
"A. c #C2C6C9",
"S. c #C3C4C8",
"D. c #C0C0C8",
"F. c #C6CACD",
"G. c #CCCBD1",
"H. c #CCD0D3",
"J. c #CED2D5",
"K. c #DADEE1",
/* pixels */
"P T T Q Q T K L Q L K L L T W P T L L L L T T K L L T W T T T L Q L L T L P T L T L T T P L P L P P ",
"K K L T W P L T T L K L L P T L T L L P P T P K G K L P K K L L W L P T P P P L L K L T P L L K P L ",
"L K L T K K L L T P T P L T T L L L L T P P L K L P T T L P T W T L T T T P P L L L P T T P P L P L ",
"T L W Q L K T T K L L K K L L K L L L P L L L K T L L L T W T L L L T T T T T T T P P P P T T W T P ",
"K G P Q L L Q W L T T T P T T P L P L L L L L L L L K L T T P K T T P L L P T T L P L L L L T T T T ",
"K K L T L K L L K L L L L K K L P T L L L L L L L T T T T T T T T T P L L L L T L T T T T T P T T T ",
"Q Q W W T P L L T T T T T L L Q P T L L T P L L K T T L L L L P P T L K L P L P L Q Q T W T T T P L ",
"P P L L P L L P T T L T T L L Q L T L L T T K K L P K K L T L L K L K K T T P T P W T L L L L T L L ",
"P L L T P L K L P L L L K L T T T T L K L L L K Q K ^ P P Q W T T T P L T T L L Q T P T Q W P L T T ",
"L L L L L L L P W T T T L L L L L P T T T T T T L L W K Q T K L T T T P T T T Q K L L T W P K K L L ",
"P P L L L P T P L L P P L P T T L T W T L L L L L L L K T K K L T T P T W T T Q W W T P P P T ^ L L ",
"P T T L L T T L L L T T T T W W T T T L K K K K T K T T L K Q L T L K L T T K K L T T T T P P T L L ",
"L T T L L T T L T T T T T T T T L L L L L T T T T K Q Q W T ^ L Q T P T T T P L P T P L P L L P L K ",
"K P P L K L P L K L L L P L L P K L L L P T P L T K Q K P T L L W W W T L P W W Q Q T L P T W Q T L ",
"L P P L K L T W L T T P T T P T L T T T L L K K P T X.W K P K W L T T L L T Q L K P T T T T L L Q T ",
"T T T L L P Q ^ ] } ( / ^ Q T T T W Q T P P W Q L Q 7.-.W W P Q ^ ^ / / / } ] T K L L K L L L P W T ",
"T T / X.3.p.k.C.n.n.h.s.w.p.w.0.0.8.6.3.<.<.<.;.#.| X.6.8.f.c.S.M.m.B.B.S.J.F.v.6.X.K L P L T L L L ",
"Y ;.r.t.0.5.:.-.:.>.8.h.3._ R R K F D C N C S C M N Z G N N K <.5.6.6.8.8.8.0.p.g.j.>.^ Q T L K P P ",
"/ ] ! Y J T X.5.c.H.K.S.#.! { { ` { o.@.$.=.,.=.{ C a 9 2 2 X e X.;.X.X.%.| X.;.:.<.4.3.] L W T T T ",
"/ Q K Y / *.e.c.p.q.7.0.;.#.=.{ +.@.%.=.=.=.=.+.R p 8 2 8 f 2 $ N *.:.*.;.| / T X.X.-.6.4.( K W T T ",
"Q K J J n 3 3 3 2 # 3 ! &. .+.%.#.#.#.#.#.%.;.#.| a q 0 0 v t $ 9 ] ;.*.<.:.X.Y | #.%.*.#._ L T P P ",
"Q Q Y k + = = X & 9 i Y &.#. . .#.X.#.X. .&.&. ._ j r 0 0 0 < $ o T *. . .#.-.*.<.*.;.#.| } ^ G P P ",
"T J Z i - p = @ 6 0 9 H | ' } | } } | | |  .| _ ] b q < 1 & 2 ;   S #.*.#.*.*.*.#.;.;.%.;.| L P T T ",
"Q Y A 5 3 g % @ 7 w 0 S / ~ _ / _ _ _ _ _ _ ' _ / b q < 0 8 p ;   M #.*.#.%.#.%.#.#.;.%.X.X.^ G T T ",
"T L A > d s 2 X 7 r 3 Z ~ ! _ ! ~ ! ! ! ! / / ! / j t x v y 4 4 o n *.#.%.#.#.#.#.#.*.#.| X.^ T Q T ",
"^ L V > k s % O 7 t 3 B W Y ! _ ! ! ! ! ! / ~ ! ! j h c v y 0 2   m *.X.#.%.*.%.#.*.%.*.*.X.T L Q T ",
"Q J V : s g # X 7 r 2 N / / / _ / / _ _ _ ' ' _ _ j t t y t r 2   M *.#.#.#.*.%.*.#.X.#.X.| Q W Q T ",
"Q Y H - : g & @ 7 t 9 Z } | | _ ' ' ' ' ' | | } X.z 0 , 1 a a 4   B X.*.#.X.X.%.#.#.*.;.X.} Q P W P ",
"Q J K u o 9 % X 6 e q H } | |  . . . . . .#.#.#. .z q , < a a & . K *.-.*.%.#.#.-.<.;.;.X.] T P T L ",
"/ K K l = # o o 6 % 3 Y -.*.#.&.#.#.#.#.#.%.-.#.| z e < < r a = * ^ X.X.#.:.:.#.#.:.X.X.#.] P ^ T L ",
"W J Y H k 3 = * %   - J | #. .#.#.#.%.%.#.*.*.#.| g 0 < < r a % i | #.*.%.X.! D / | | :.;./ L T W T ",
"Q T J W Y } 2.q.5.4.2.9.<.*.=.;.:.:.<.<.<.<.:.;._ p < < 8 a a X N *._ | X.{ / ~ _ _ *.0.*.T T P Q T ",
"~ #.| ~ W ! #.1.s.N.G.D.| R ` ` E E [ o.O.O.O.$...F N q ; 9 # p _ / / _ ] _ |  .X.>.;.} Q T T T T L ",
"W >.s.N.k.q.8.6.5.7.0.s.3.*.] ) R R Y U K D S Z N N N ^ / S _ 6.<.<.4.7.8.q.t.t.q.;.^ L L W T K L K ",
"W W Q | ;.q.k.k.b.k.a.j.p.r.0.e.0.8.7.5.4.3.>.;.>.#.6.q.4.>.>.>.:.4.0.e.q.7.<.-./ T Q Q P P Q Q L P ",
"L I T P K Y / _ _ ] } ] Q Q ^ W I W W L I W W L Q / u.-.B ~ L Q Q W T K K L T T W L L L K T W L K T ",
"T W P P T T T P T Q T L L P Q L P T P P P W W P T ^ } T L Q L Q W P T Q T L L L L T T T T W T P P W ",
"P W L P W T T Q T T K K Q K P P T Q T T T T P K ^ Q P T T K T Q P L L T P L T Q T T P P T L L Q W Q ",
"T W T W P K T T T Q Q P ^ K P W T T T T T T P L / K P T K W Q L L P T T T T T T T L L L L L T Q L L ",
"Q K K T L L Q P L L Q L P L ^ K Q T T T T P P T W Q L T W L W W L T W L K T W P T T W L K Q ^ L L K ",
"L K L T T T T T T Q W P P W W P T T P T W Q T T Q L T W P T Q T L T T T L P T T P Q Q T T W W T P L ",
"L P T T T P P T L T T L P W W T T T T T T T T P T P T T L P T L T T T P P T T P P W T P T W T T T T ",
"L T Q W L L T W L T T P T W W T T T T T P L L P P T T T T P L P W T P L T T T P T T P L T T T P L L ",
"W T L K T Q Q L T W Q T T W W T T W T T T P T T T T T T Q Q T T P P L P T W T T T T T P T P L P T T ",
"P T T L K T W T T W W T T Q W T T T T T T T T T T W T T ^ ^ W T L L T T T T T T T T T T T L P W T T ",
"Q W P K L T T P T T T T T Q W T T T T T T T T P Q T T T Q Q W P L T W W T L P T L T T T T P T Q T T ",
"T W W T P T T W Q T L P T Q W P P T T T T T T T Q T T Q T W Q P T T W W T L T T P T T T T T T Q W W ",
"W T L T Q ^ Q T ^ Q T T W Q T L T W Q Q W T T T T L T Q T T Q T W T T T T T T Q T Q T L P T T T L L ",
"T Q L Q T T T T W Q L Q T W L W Q W P T W P L T Q T L T W T W L Q T T T L P T L T Q T P Q Q T Q Q L ",
"P Q L W P T P T T Q L W T W L W Q W P T W P L T Q T L T W T W L Q T T T L P T L T W T L W Q T W Q P "
};
