/* XPM */
static char *_019d9b5e0554b599215ff55b7f150bcmYuxeKG8XaBELAcY[] = {
/* columns rows colors chars-per-pixel */
"50 50 234 2 ",
"   c #191405",
".  c #181812",
"X  c #221502",
"o  c #241E02",
"O  c #251B0C",
"+  c #2A1C07",
"@  c #301D00",
"#  c #241D12",
"$  c #271C16",
"%  c #19221C",
"&  c #2C2105",
"*  c #3A2805",
"=  c #23241F",
"-  c #272419",
";  c #342716",
":  c #3C3718",
">  c #3F360F",
",  c #1B1821",
"<  c #1C2222",
"1  c #272828",
"2  c #2B2C34",
"3  c #292533",
"4  c #322E33",
"5  c #362B39",
"6  c #343534",
"7  c #373239",
"8  c #333128",
"9  c #442B00",
"0  c #432B0B",
"q  c #453205",
"w  c #48390D",
"e  c #5A3F0C",
"r  c #4C3E11",
"t  c #413816",
"y  c #573915",
"u  c #4A3C2D",
"i  c #5C470C",
"p  c #4A441A",
"a  c #594719",
"s  c #684B0D",
"d  c #7B5A0D",
"f  c #644C19",
"g  c #6A5617",
"h  c #755818",
"j  c #61500A",
"k  c #786612",
"l  c #4A4625",
"z  c #544423",
"x  c #524B24",
"c  c #5D4A22",
"v  c #58482F",
"b  c #5B5229",
"n  c #594F39",
"m  c #5D5233",
"M  c #4B4537",
"N  c #654D27",
"B  c #665421",
"V  c #6D5B22",
"C  c #68562A",
"Z  c #795C2A",
"A  c #665439",
"S  c #6A672B",
"D  c #7D6426",
"F  c #7A6432",
"G  c #797536",
"H  c #363744",
"J  c #312940",
"K  c #413D4C",
"L  c #57584B",
"P  c #565C56",
"I  c #5B5B54",
"U  c #565B5A",
"Y  c #5A5E5D",
"T  c #565556",
"R  c #4A4E56",
"E  c #675A47",
"W  c #625D5A",
"Q  c #665D57",
"!  c #5D6356",
"~  c #56625C",
"^  c #5C605F",
"/  c #5A6659",
"(  c #596247",
")  c #716344",
"_  c #796C4A",
"`  c #7D7A47",
"'  c #636354",
"]  c #63635D",
"[  c #6A665A",
"{  c #756D5E",
"}  c #7B6F55",
"|  c #726A57",
" . c #5C5E62",
".. c #585E65",
"X. c #615F63",
"o. c #605E6B",
"O. c #5E6261",
"+. c #5D6963",
"@. c #5D646B",
"#. c #5F696B",
"$. c #616464",
"%. c #646965",
"&. c #63656A",
"*. c #656A6A",
"=. c #6A6C6B",
"-. c #6A6862",
";. c #746F68",
":. c #7A7562",
">. c #7D7A6E",
",. c #767368",
"<. c #757572",
"1. c #676C70",
"2. c #845C15",
"3. c #815F08",
"4. c #95741C",
"5. c #8F640F",
"6. c #A27F1B",
"7. c #856C29",
"8. c #9B7924",
"9. c #957728",
"0. c #8C6D3C",
"q. c #876837",
"w. c #8A7232",
"e. c #8B7836",
"r. c #9A7A3C",
"t. c #957B35",
"y. c #A37E35",
"u. c #897A46",
"i. c #947A44",
"p. c #877956",
"a. c #A97749",
"s. c #897F6D",
"d. c #837D75",
"f. c #98801C",
"g. c #A88416",
"h. c #B48A19",
"j. c #B6911F",
"k. c #9D843D",
"l. c #92843D",
"z. c #AA8829",
"x. c #B38B2B",
"c. c #B78B29",
"v. c #AC9328",
"b. c #BC9525",
"n. c #BD932C",
"m. c #BD9C2C",
"M. c #B69527",
"N. c #A88737",
"B. c #B78835",
"V. c #BB9533",
"C. c #BD9B33",
"Z. c #B69C3D",
"A. c #BA9D3B",
"S. c #B79537",
"D. c #AE963E",
"F. c #BEA23B",
"G. c #BCA12E",
"H. c #C39B2E",
"J. c #C8982A",
"K. c #C38F34",
"L. c #C39532",
"P. c #C29C33",
"I. c #C89B33",
"U. c #C49C3B",
"Y. c #CC9C3A",
"T. c #C6973F",
"R. c #C3A233",
"E. c #C4A33A",
"W. c #9B8443",
"Q. c #9B8843",
"!. c #968958",
"~. c #9C9443",
"^. c #A28D45",
"/. c #A48948",
"(. c #B08D46",
"). c #AA9347",
"_. c #BB9D43",
"`. c #B99848",
"'. c #A48B57",
"]. c #AC9453",
"[. c #AB925A",
"{. c #A89758",
"}. c #B49A5B",
"|. c #B69754",
" X c #BF8B59",
".X c #BBA147",
"XX c #BAA558",
"oX c #8D836C",
"OX c #898367",
"+X c #948766",
"@X c #9A976A",
"#X c #868379",
"$X c #938B79",
"%X c #9D9177",
"&X c #A49465",
"*X c #B49D64",
"=X c #A08F71",
"-X c #A49F7B",
";X c #A28D62",
":X c #BCAC65",
">X c #B2A779",
",X c #C29C42",
"<X c #C29F4E",
"1X c #C7A347",
"2X c #D2AB4A",
"3X c #CAA75B",
"4X c #D5B559",
"5X c #CDAD52",
"6X c #C8A964",
"7X c #CCB36D",
"8X c #E8B461",
"9X c #E5C35F",
"0X c #D9C775",
"qX c #E4C669",
"wX c #F3C56B",
"eX c #E9C873",
"rX c #F5CC75",
"tX c #FFDD79",
"yX c #E8D368",
"uX c #928E87",
"iX c #979486",
"pX c #9B9B94",
"aX c #A39D83",
"sX c #A29F9A",
"dX c #A9A187",
"fX c #B9AF94",
"gX c #B3B1A5",
"hX c #C1AF89",
"jX c #EDBF81",
"kX c #FED785",
"lX c #F0C986",
"zX c #CCC4AB",
"xX c #CBC2A4",
"cX c #D2CAB5",
/* pixels */
"O.O.O.^ Y O.$.O.$.O.O.O.O.O.O.$.O.%.O.O.$.O.Y O.O.O.O.$.$.$.$.O.Y O.$.$.O.O.$.*.O.$.*.%.O.Y O.$.Y Y ",
"$.O.O.O.O.O.O.^ O.O.Y O.$.$.O.O.^ $.$.O.$.O.O.$.O.O.O.O.O.O.O.^ ^ $.$.O.^ ^ O.$.$.O.O.^ O.$.$.O.$.$.",
"%.O.^ O.O.O.O.Y O.^ Y O.$.$.O.Y ^ $.$.$.O.O.O.$.^ O.O.O.O.O.O.O.O.$.$.O.O.O.O.O.^ O.O.Y P ^ $.$.O.O.",
"$.^ Y O.O.O.O.O.O.O.O.O.O.O.Y Y O.$.*.*.O.O.$.O.O.O.O.O.O.O.O.O.O.$.$.O.O.$.$.O.O.$.O.P Y O.O.^ O.O.",
"^ Y ^ O.^ O.O.O.O.O.$.O.^ Y ^ ^ O.O.$.$.O.O.O.O.O.O.^ O.O.O.$.O.O.$.$.O.O.$.$.O.Y $.%.O.P Y O.$.O.O.",
"^ O.O.O.Y ^ O.O.^ O.O.O.Y ^ O.$.^ Y ^ O.O.O.O.^ ^ Y Y ^ O.O.O.O.O.$.$.O.^ O.O.Y $.O.Y Y $.$.O.Y Y Y ",
"O.O.$.O.^ O.$.^ ^ O.O.^ ^ O.O.O.Y O.^ Y O.O.^ O.^ O.O.O.O.O.O.O.O.$.$.^ Y O.O.Y O.^ ^ O.O.O.^ Y O.O.",
"O.$.$.O.O.$.$.^ O.O.^ Y O.O.O.Y O.$.O.^ $.O.Y $.O.O.$.$.O.^ O.O.^ $.$.^ ^ $.$.O.O.O.O.O.O.Y P Y ^ Y ",
"$.] ! P ~ ^ O.^ Y ] ^ U ^ O.^ ^ ^ $. . .@.O.@.*.^ ^ O.@.O.O.$.$.$.$.O.Y ^ $.^ Y $.@.$.Y ^ U Y $.Y U ",
" .&.&.@. . .Y $.$.&.$. .&.&.$.X.-.I %.Y I $.Y =.P P P ^ ^ O.^ ! P ^ $.$.O.O.$.$.O.P O.P $.$.Y $.Y Y ",
"/ ^ O. .&.o. .X.^ ^ P ! ^ ! P !  . . .&. .Y =.$.P ^ $.$.O.$.$.] %.^ P P Y  .O.O.^ %.O.O.&. .Y Y $.$.",
"! ! P I Y $.^ ^ #.O.Y ^ O.O.O.$.*. .@.O. .&.O.O. .@.O.@.O.O.O.O.^ O.O.O.O. .@.&.^ ^ O.@...@.$.$.^ $.",
"..&.%.^ ! ! / / O.Y U I X.$.$.&.$.! / P P ^ P %.@.&.O. . .O.O.O.O.^ I ! ] ] ] Y Y -.T O.O.O.*.Y P O.",
"$.$.^ P ^ O.@.@.~ O.O.^ $.&.@.@. .=.] $.&. .&.=.#XiXpXuX#X>.#XpXpXgXgXzXzXzXxXxXxXxXfXiX' ] ^ ~ Y ^ ",
"! ! ^ O.&.$.Q Q ' { :.:.:.,.] P I ' OX;.W X.] #XdXdX-XaXdXdXaXdX$X%X=X;X'.[.].].^.].}.'.hXcXI &.Y P ",
"O.@.@.@.] ) !.7X4XqXeXeXeX7X6X].!.` S B x x x p r r w r a a p z z c f s d 4.N._.E.2X1X3X'.=X>.O.O.Y ",
"/ O.@.:.W.|.lXkXtXwXwX8X3X6Xf t : : m A } p._ p.F V s i s a a N B V g 7.t.W.!.p.u.e.t.e.{.'.$XU $.O.",
"! O.<.OXXXrXkXqX2X2XY.T.`.q.@ ; 8 - $ X & * c '.}.].).).|.]././.W.^.k.t.7.B b l m B e.j g 6X%X%.O.O.",
"=.Y >.[.E.2X,XA.E.E.P.U.`.f X 6 4 1 1 $ O X e }.`._.Z._..X_.`.`.N.N.N.t.D N E -.' ) F Q.9.(.!.! ^ ^ ",
"U Y oXW.j.I.4.d F.C.m.C.).w # 2 2 2 3 , . X f 3X1XU.C.m.C.C.V.C.x.x.z.N.0.A I $.=.{ C W.4.(.&XI Y Y ",
"@.I oXW.h.c.2.h 1XE.m.A.^.* - 2 2 2 1 , . X h `.Y.I.H.H.H.m.n.b.c.c.z.N.0.A W *.1.[ A t.8.,X'.] O.^ ",
"#.Y oXk.j.n.2.h ,XP.b.C.N.& - 6 7 1 1 < .   Z ,XY.I.H.H.n.n.n.n.V.n.z.y.q.A ' %.%.{ N w.8.x.[.] O.^ ",
"U ] oXt.g.J.B.`.C.b.h.V.r.@ # 6 4 1 = 1 % & w.1XY.I.H.n.V.V.L.V.x.z.6.8.Z n ' -.=.{ A e.4.x.'.] ^ ^ ",
"&.$.s.r.h.J.c.,XH.b.h.U.r.* - 4 5 4 = % . o D S.Y.L.P.C.V.S.V.B.v.v.g.9.F A Q ! [ { u i.f.v.{.! ^ ^ ",
"P Y $Xk.h.h.5.3.U.n.M.Z.k.* = H 3 7 1 % .   h ,XI.H.H.H.H.L.K.K.M.c.z.y.0.v I O.+.| z i.9.x.*XW Y O.",
"P $.oXt.M.c.5.s U.I.R.C.N.9 $ 7 H R 7 1 = o g F.Y.I.m.m.P.P.n.n.c.c.c.N.0.z n L I E C i.z.V.[.-.Y ^ ",
"U &.#Xi.z.M.4.d U.P.m.m.D.i O 4 J K K 2 1 o i .XP.E.R.G.m.m.m.m.V.x.z.y.q.u M L T E A i.9.V.}.' Y Y ",
"!  .d.!.z.R.U.(.1X1XF.A.`.B O 4 7 u u 1 # X i `.<X1X_._.Z.Z.S.S.v.v.z.t.V q : l l p V l.k Z.*Xd.Y ^ ",
"+.P ;.!.).4XrXjX2X1XR.m..X7.0 ; 8 ; + O $ ; C '.[.[.[.[.[.[.[.[.^.Q.Q./.0.C a q * y Z g k :X>X>.Y O.",
"^ O.X.;.!.XX9XtXkXrX9X2X4X|.N 0 t > z ) } ) ) C a w q q r w * * 0 9 9 e h r././.a.a. X}.{.!.aX/ ^ O.",
"U O. .o.&.` ~.XX4XqXyXyXyX0X:X&X@X` G S b l l p l t : p x l p l z c a f i w.).XX.X3X7X{.u.p.sX..Y O.",
"..' ( %.U P ] Q p.+X@X-XOX:.-.$.] Q OX:.[ &. .] U U W ;.d.d.#XuX$X$Xs.>.' ;.-.' +.$.W ] <.uXW ] Y ^ ",
"^ Y Y Y P Y Y U U O.O.U U P Y O.O.Y ^ P Y ^ U Y $.Y Y Y Y O.O.Y Y Y Y O.Y ^ O.Y Y Y Y Y Y ^ ^ Y $.O.",
"Y Y O.O.O.O.^ P O.$.O.Y ^ O.O.^ Y Y ^ Y Y O.P Y U U P Y Y ^ O.Y O.^ O.O.O.O.O.Y O.O.O.Y Y O.^ Y $.O.",
"$.$.O.^ Y O.$.%.O.$.O.Y O.$.O.O.Y Y O.^ O.O.Y O.Y Y O.O.Y Y Y P Y Y Y Y Y Y Y P Y O.O.Y P Y Y Y O.Y ",
"^ Y Y ^ Y ^ O.^ U ^ O.O.Y Y O.O.^ O.$.O.O.O.Y O.O.O.O.Y Y Y Y Y O.O.O.O.O.O.O.Y P ^ O.P U Y ^ Y Y P ",
"O.^ ^ O.O.O.O.Y U Y O.O.Y Y ^ O.Y Y O.^ ^ ^ P ^ P P U U Y O.O.O.O.O.O.O.O.O.O.^ Y O.O.^ Y O.O.O.Y Y ",
"*.O.^ ^ ^ O.$.$.O.O.O.O.O.O.O.^ U P ^ Y Y Y P O.P Y Y Y O.$.O.^ ^ O.Y Y ^ Y Y Y O.O.O.Y Y ^ ^ ^ Y Y ",
"U U ^ $.O.Y Y U $.O.O.$.O.O.O.O.Y Y O.Y ^ O.Y O.O.$.O.O.O.O.Y Y O.O.^ Y O.O.^ O.Y Y Y Y Y Y Y Y Y Y ",
"Y ^ $.$.O.^ O.$.O.Y O.$.Y Y O.$.O.O.$.O.O.$.^ $.U ^ Y Y Y Y Y $.Y ^ Y P Y Y Y ^ ^ P P Y O.O.^ O.O.O.",
"O.Y Y Y Y O.$.^ O.^ O.O.U P Y P Y Y O.Y U P ^ Y P P O.O.Y Y O.Y $.Y Y O.O.Y O.O.^ Y Y ^ Y Y ^ ^ Y Y ",
"O.O.O.$.O.$.$.Y ^ Y ^ Y P Y O.^ ^ Y Y Y Y O.O.U Y Y ^ O.Y Y O.^ $.Y Y O.O.O.O.O.Y Y ^ O.$.$.$.$.^ Y ",
"O.^ O.O.O.O.O.Y O.Y Y Y Y ^ O.O.O.O.O.O.O.O.O.Y Y Y Y Y Y Y O.^ Y P P Y Y Y Y P Y Y P Y O.Y U P O.O.",
"O.O.Y Y Y Y ^ Y O.O.^ Y Y ^ O.O.U ^ O.O.Y P Y Y Y Y Y Y Y Y ^ Y ^ O.O.^ O.O.O.Y $.$.Y Y $.^ P U O.O.",
"$.O.O.^ ^ ^ ^ O.O.O.O.O.O.O.Y Y Y O.$.O.Y Y Y O.P Y Y Y ^ Y Y Y U Y Y U P Y Y U O.O.P Y $.$.Y O.O.^ ",
"Y ^ ^ O.O.^ Y Y Y ^ ^ O.O.O.Y O.$.O.^ Y O.O.^ Y U Y O.^ O.Y Y Y Y O.O.Y ^ O.^ O.Y Y U P O.Y U Y ^ Y ",
"U Y Y ^ O.Y U Y Y ^ ^ ^ O.^ Y $.Y Y U U ^ Y U P U ^ O.O.^ Y Y O.Y O.^ Y Y P Y O.O.Y ^ $.O.Y U U ^ Y ",
"Y ^ Y ^ O.O.Y O.Y O.^ Y O.Y Y $.Y O.O.O.$.O.Y Y P O.O.Y Y Y Y O.^ $.O.Y Y Y Y $.Y U O.%.$.O.O.^ ^ ^ ",
"$.O.$.$.^ O.$.O.Y O.^ Y O.O.O.$.Y $.O.$.O.Y O.$.O.Y ^ $.O.^ $.$.$.Y $.O.$.Y $.$.O.O.O.O.$.Y $.O.$.Y ",
"$.O.$.$.Y O.$.O.Y O.^ Y O.O.O.$.Y $.O.$.O.Y O.$.O.Y ^ $.O.^ $.$.$.Y $.O.$.Y $.$.O.^ O.^ $.Y $.^ $.^ "
};
