/* XPM */
static char *_6af5ea837aa4b6ee9850447de9d8333ahBCI5J0Jo7ZETen[] = {
/* columns rows colors chars-per-pixel */
"50 50 234 2 ",
"   c #191405",
".  c #181812",
"X  c #221502",
"o  c #241E02",
"O  c #251B0C",
"+  c #291D0A",
"@  c #2D1D00",
"#  c #311E00",
"$  c #241D12",
"%  c #271C16",
"&  c #19221C",
"*  c #2C2203",
"=  c #3A2805",
"-  c #23241F",
";  c #27241A",
":  c #342716",
">  c #3C3718",
",  c #3F360F",
"<  c #1B1821",
"1  c #1C2222",
"2  c #272829",
"3  c #2B2C34",
"4  c #292533",
"5  c #322E33",
"6  c #362B39",
"7  c #343534",
"8  c #373239",
"9  c #333128",
"0  c #442B00",
"q  c #432B0B",
"w  c #453205",
"e  c #48390C",
"r  c #5A3F0C",
"t  c #4C3E11",
"y  c #413816",
"u  c #573915",
"i  c #4A3C2D",
"p  c #5C470C",
"a  c #4A441A",
"s  c #594719",
"d  c #684B0D",
"f  c #7B5A0D",
"g  c #644C1A",
"h  c #6A5617",
"j  c #755818",
"k  c #61500A",
"l  c #786612",
"z  c #4A4625",
"x  c #544423",
"c  c #524B24",
"v  c #5D4A22",
"b  c #58482F",
"n  c #5A5229",
"m  c #594F39",
"M  c #5D5233",
"N  c #4B4537",
"B  c #654D27",
"V  c #665421",
"C  c #6D5B22",
"Z  c #68562A",
"A  c #795C2A",
"S  c #665439",
"D  c #6A672B",
"F  c #7D6426",
"G  c #7A6432",
"H  c #7A7436",
"J  c #363744",
"K  c #312940",
"L  c #413D4C",
"P  c #57584B",
"I  c #555C56",
"U  c #5B5B55",
"Y  c #565B5A",
"T  c #5A5E5D",
"R  c #565556",
"E  c #4A4E56",
"W  c #675A47",
"Q  c #625D5A",
"!  c #665D57",
"~  c #5D6356",
"^  c #56625C",
"/  c #5C605F",
"(  c #5A6659",
")  c #596247",
"_  c #716344",
"`  c #796C4A",
"'  c #7D7A47",
"]  c #636354",
"[  c #63635D",
"{  c #6A665A",
"}  c #756D5E",
"|  c #7A6F55",
" . c #726A57",
".. c #555D61",
"X. c #5C5E62",
"o. c #5C5E69",
"O. c #615F62",
"+. c #605E6B",
"@. c #5E6261",
"#. c #5D6963",
"$. c #5D646B",
"%. c #5F696B",
"&. c #616464",
"*. c #646965",
"=. c #63656A",
"-. c #656A6A",
";. c #6A6C6B",
":. c #6A6862",
">. c #746F68",
",. c #7A7562",
"<. c #7D7A6E",
"1. c #767368",
"2. c #747471",
"3. c #676C70",
"4. c #845C15",
"5. c #815F08",
"6. c #96751D",
"7. c #8F640F",
"8. c #A27F1B",
"9. c #856D29",
"0. c #9A7925",
"q. c #957728",
"w. c #8C6D3C",
"e. c #876837",
"r. c #8A7232",
"t. c #8B7836",
"y. c #977B38",
"u. c #A37E35",
"i. c #897A46",
"p. c #937C44",
"a. c #877956",
"s. c #A97749",
"d. c #897F6D",
"f. c #837D75",
"g. c #98801C",
"h. c #A88416",
"j. c #B48A19",
"k. c #B6911F",
"l. c #9D843D",
"z. c #92843D",
"x. c #AA8829",
"c. c #B38B2B",
"v. c #B88B29",
"b. c #AC9328",
"n. c #BC9525",
"m. c #BD942C",
"M. c #BD9C2C",
"N. c #B69527",
"B. c #A88737",
"V. c #B78835",
"C. c #BB9533",
"Z. c #BD9A33",
"A. c #B69C3D",
"S. c #BA9D3B",
"D. c #B79537",
"F. c #AE963E",
"G. c #BEA23B",
"H. c #BCA12E",
"J. c #C39B2E",
"K. c #C8982A",
"L. c #C38F34",
"P. c #C39532",
"I. c #C39C33",
"U. c #C89B33",
"Y. c #C49B3B",
"T. c #CC9C3A",
"R. c #C6973F",
"E. c #C3A233",
"W. c #C4A33A",
"Q. c #9B8443",
"!. c #9E8A43",
"~. c #968958",
"^. c #9C9443",
"/. c #A28D45",
"(. c #A48948",
"). c #B08D46",
"_. c #AA9348",
"`. c #BB9D43",
"'. c #B99848",
"]. c #A48B57",
"[. c #AC9453",
"{. c #AB925B",
"}. c #A89758",
"|. c #B49A5B",
" X c #B69754",
".X c #BF8B59",
"XX c #BBA147",
"oX c #BAA558",
"OX c #8D836C",
"+X c #898368",
"@X c #948766",
"#X c #9A976A",
"$X c #868379",
"%X c #938B79",
"&X c #9D9177",
"*X c #A49465",
"=X c #B49D64",
"-X c #A08F71",
";X c #A49F7B",
":X c #A28D62",
">X c #BCAC65",
",X c #B2A779",
"<X c #C29C42",
"1X c #C29F4E",
"2X c #C7A347",
"3X c #D2AB4A",
"4X c #CAA75B",
"5X c #D5B559",
"6X c #CDAD52",
"7X c #C8A964",
"8X c #CCB36D",
"9X c #E8B461",
"0X c #E5C35F",
"qX c #D9C775",
"wX c #E4C669",
"eX c #F3C56B",
"rX c #E9C873",
"tX c #F5CC75",
"yX c #FFDD79",
"uX c #E8D368",
"iX c #928E87",
"pX c #979486",
"aX c #9B9B94",
"sX c #A39D83",
"dX c #A29F9A",
"fX c #A9A187",
"gX c #B9AF94",
"hX c #B3B1A5",
"jX c #C1AF89",
"kX c #EDBF81",
"lX c #FED785",
"zX c #F0C986",
"xX c #CBC3A6",
"cX c #D2CAB5",
/* pixels */
"T Y T &.@.@.@.@.T Y -.@./ &.T / ..Y ^ #./ Y Y Y =.Y %.$.Y ;./ ( @.] =.o.( ( X.&.@.@./ / &.*.&.@.&.&.",
"/ T / @.@./ @.T / Y @./ T &.T T ] #.@.Y X.=.@.T &./ U U U U @.@.@.~ @.=./ / =.[ &.@.@.T / @.@.@.@.@.",
"T T / @.T @.@.T &./ @./ T @.@.T ) X.O.>.f.$XOX%Xd.OXOXOXOX<.2.$.$.T Y *.I @.=./ &.&.@./ T / @.@.&.&.",
"/ / @./ T @.&.T &.&./ @./ / &.T *.+.2.~.~.p.y.l.y.y.l./.Q.*X+X,.$.@.R / U o.@.I @.@.@.@.@.@.@./ &.&.",
"@.@.@./ T @.@.T @.@./ @.T T @.Y Y =.@X_.x.x.N.j.j.h.k.j.N.W.oXp.[ -.^ ~ T =.X.^ @./ T / @.@.@./ / T ",
"@.T / / T @.&.@.T T @.@./ @.@.T I ' oX5XE.N.n.j.K.K.m.n.U.3XtX X` &.#.( &.+.X./ &.@./ @.@.@.@.@.@.@.",
"T Y T / / @.&.&.@.T &.@.@.&./ T Q ^.0XtXY.6.7.7.v.V.4.4.6.R.lXzX~.! $.^ / o.T @.&.&.@.@.@.@.@.&.&.&.",
"@.T T @.T T T / &.Y &.T / *.Y Y ! 6XyXkX).f d 5.<X'.j j f S.wXlX7X! $.^ ^ O.&./ / / @.@.@.T / @.@.@.",
"T T T @.@.@./ @.@.&.@.Y Y @.@.Y a.5XlX3X2XY.Y.Y.J.Z.<X2XG.W.3XyX5X] ^ @.%./ =.U @./ / @.@.@.@.&.T T ",
"@./ / @.@.T T / T @.@.T / &.&.@.@X0XtX2X2XI.I.C.n.n.I.W.Z.W.3XeXwX} @.T #./ =.[ @.@.@.@.@./ @.@.@.@.",
"/ / / @./ T / @.@.@.@.@.@.@.@.@.#XuX0XE.G.M.E.N.j.j.n.M.M.I.T.eXtX,.@.Y T Y =./ / @.@.&.@.T T @./ / ",
"T / @.@.T T T @.&.&.@.@./ T T Y ;XuX3XM.S.M.Z.A.Y.C.Z.S.Z.Y.R.9XrX,.@.U ^ Y o.Y T / @.@.@.@.@.@.T T ",
"@.@.@.@.T T Y Y T @.@.T T @./ Y @XwX5XXX'.F.B.l.y.y.B./._.'.'.4XrX,.&.O.@./ =./ @./ T / @.&.&.@.@.@.",
"T / @.@./ / T Y T @.@.T T &.@.Y ,.qX X9.V p 0 = = # * = e g e.7X8X1.=.&.@./ =.@.@.@./ T @.&.&.@.@.@.",
"T T T T @.@.@.T @.@.@./ @.@.@.T :.>XB q + + $ ; ; $ ; ; $ X @ g 7X[ $.&.@.I =./ @.@.@./ T @.@.@.@.@.",
"&.&.@.T @.@./ Y &.@./ @.@.@./ @.&.*Xq : 5 5 8 J 5 7 7 3 3 7 : y [.U $.-.&./ =.^ T @.&./ T T @.&.&.&.",
"T T &.T Y @./ T @.T Y T / T T @.[ #Xy > 8 K J 4 6 5 8 3 3 3 9 > ~.U o.&.-.X.*./ @.T / @.@./ / @.T T ",
"@.T @.@./ @.T T @.T Y T @.T T T ! ' , : i L E 8 5 2 2 3 3 2 ; > ' ] ;./ T X.U &.&.@.T @.&.&.&.*.&.&.",
"@.Y / &.@.@.T @.&.@./ @.&.@./ / +XH x + i E J 2 - - 2 2 4 2 % M D +X[ ( @.X.*.X.@./ / &.-.&.&.@.@.@.",
"@.Y T @.@.@.T T @.T T / @./ T Y ,.D _ O ; 3 2 & & 2 1 < < % X S Z >.&.I @.=.U X./ T @.&.-.&.@.@.&.&.",
"&./ @.T T @.T Y @.T T / @.@.T T { n | % % 2 - . . & . . . O + | c Q -.R X.X.U @.&.@.@.@.@.@.&.&.@.@.",
"@.T @.T Y @.@.Y &.@.T / @.@.@./ =.z _ : X o o   o *   X X X = a.c O.o.^ =.T &.@.@.@.@.@.@.@.@.@.T T ",
"T Y / T T @.@./ / T Y Y T T Y Y X.z _ Z p p h j F r.A j g r v ` c { -.I @.;.T @.T / @.@.&.@.@.T @.@.",
"T R T @.T T Y T &.@.@./ @.@.T T Q a Z ].'.XXG.<XD.3X<X'.4X|.].a.a $X;.*.@.=.;.-.&.@./ @.@.&.&.@.&.&.",
"Y Y Y Y T T T Y Y / Y Y @.T Y &.Y z s {.1XI.W.K.T.T.T.T.<X'.|.G t fX$X@.X.Y Y / @./ / @.@./ @.@.@.@.",
"@./ T T T T T Y / &.T Y @.T Y T Y y t {.2XW.I.J.P.U.U.U.Y.`.[.C t fXpX=.@./ Y / @.@.T @.@.@.@.@.T T ",
"@.@./ T T T / @.T @.T Y @.@.Y T Q > w {.`.E.M.J.I.J.J.J.Z.S._.d e ;XaX#.#.&.Y @.&.@.T / @.@.@.@./ / ",
"T / / T T T @.@.Y @.T Y T @.T T >.a w {.`.H.M.J.Z.m.J.J.M.`._.p t sXiXX.@.&./ @.&.@./ @.@.@.@.&.&.&.",
"T / @./ T T T T T @.@.T Y T T T f.c t {.`.M.I.J.C.C.m.J.Z.XX[.g s fX$XX.@.@./ @.@.@.@.@.@.@.@.&.@.@.",
"T T T T T T T T T @.&.@.T T / @.f.z e {.A.M.I.P.D.C.m.M.Z.`.[.s s fX2.@.@.&.@.@./ @.@.@.@.@.@.&./ / ",
"T T T T / @.@.@.T T @.@.T T @.@.$Xa = {.D.M.m.L.C.P.m.m.C.'.(.s a sX$X@.#.&./ &.@.@.@.&.@.@.@.&.&.&.",
"@.@.T T T / / T &.T / @.T Y T T iXz = {.D.M.m.L.V.C.v.n.Z.'.(.B x fXaX@.@.[ / &.@.@.@.@.@.@./ @.&.&.",
"@.T T Y / T &.&.T @./ @.@.T @.T %Xx q /.b.C.v.N.b.c.C.v.c.F.Q.V x %XaX@.^ *.Y =./ @.@.@.@.@./ T &.&.",
"&.@.@.T @.Y T T / @.@.@.@.T / T %Xv 0 !.b.c.v.c.b.x.m.v.c.F./.C v &XhXT @./ / &.&.&.&.&.&.&.&.@.T T ",
"@./ @.T @.Y T T T / T @.@.T @.T d.s 0 !.x.x.c.x.h.8.x.x.x.B.l.h g -XhXU @.Y &.@.&.&.&.&.&.&.&.&.&.&.",
"T T T Y / T @.@.Y T T @.@.T @.@.<.g r (.y.u.B.u.0.0.u.B.B.y.y.9.d :XxX/ @.Y &.T / / @.@.@.@.@.&.@.@.",
"T T / Y @.T @.@.T @./ @.@.T @.T [ p j w.C e.w.w.G A e.w.w.F 9.t.f ].xX[ @.T @.T / T / @.@.@./ @.&.&.",
"Y Y @.T &.T @.T T @.T @.@.T @./ >.r.y.Z w i x b S M S S S B V Q.6.{.xX[ X.X.@.&.&.@.@.&.&.@./ @.T T ",
"T T / T @.T @.@.T / T @.@.T @.@.:._.(.s > N m U ! ! ! Q U W n ~.B.[.xX/ @.@.&./ &.@.@.&.&.@.@.&.&.&.",
"&.@.@.Y T Y @.@./ @.T / T Y T T [ oX(.w z P P @./ *.*.-.=.:.z a.`.[.xXY =.@.&.U @.T T @.@.@.&.-.&.&.",
"T @.T @.&.T T / / T @.T Y T @.T #.XXs.= z R U #.{ ;.*.3.;.[ M i.W./.xXU / / @.&.@.@.&.T @./ &.@.@.@.",
"Y / T @.&.T T T Y T @.@./ @.@.T @.4Xs.u a P W  .} } } { } _ V t.3X[.xX:.^ *.Y =.@./ @.&.&.@.@.&.@./ ",
"@./ Y Y T Y T T Y T @.@.@.@.@.T Q 8X.XA C S Z x i S B S Z G t.t.2X|.gXR @.@.@.&.@./ T *.@.@.@.-.@.@.",
"*.&.Y T T T @./ T T / T Y T T T [ }.|.h z.p.p.i.p.t.r.y.Q.!.k t.4X].pX@.$.#.Y T @.@.T @.Y T / *.@./ ",
"&.@.@.&.&.@.&.T @.T T T Y Y T T 2.i.}.l l q.x.0.g.6.6.0.6.q.h }.(.jX] @...=.&./ @.@.&.Y T Y @.@.&.&.",
"@.T T &./ T &.T / T / @.T T @./ iXa.~.>XA.D.C.c.b.b.c.<X).).7X].-XcX] @.@.X.&.Y T @.&.T @./ &.T T T ",
"@.Y Y T R Y &./ / T / @./ T / / Q dXsX,X=X|.|.=X}.].{.].*X~.&X%X<.U / -.&.T T T Y / @.@.@.&.&.@.&.&.",
"/ Y T @.Y Y &./ @.T / @.T T T T [ ..( <.d.{ :.Q ~ [ [ [ U ~ *.Y @.=.^ T &.T &.&.T T T &./ &.@.&.@./ ",
"/ / / @.@.@./ T @.T T T T @.&.&.T T / T T T T T / / @./ T / @.&.@.T T Y / &.T T / @.T @.@.@.&.T &.&.",
"/ T T / @.@.T T @.T T T Y T @.@./ @.@.@./ T / @./ / / / T / @.@.T Y / @.&.&.T Y T @.T @.@.@.&.T T / "
};
