/* XPM */
static char *_eeaf1c891b947c288650a3bc5ea53284Omaq1LSjmFgciPh[] = {
/* columns rows colors chars-per-pixel */
"50 50 234 2 ",
"   c #191405",
".  c #181812",
"X  c #221502",
"o  c #241E02",
"O  c #251B0C",
"+  c #291D0A",
"@  c #2D1D00",
"#  c #311E00",
"$  c #241D12",
"%  c #271C16",
"&  c #19221C",
"*  c #2C2203",
"=  c #3A2805",
"-  c #23241F",
";  c #27241A",
":  c #342716",
">  c #3C3718",
",  c #3F360F",
"<  c #1B1821",
"1  c #1C2222",
"2  c #272829",
"3  c #2B2C34",
"4  c #292533",
"5  c #322E33",
"6  c #362B39",
"7  c #343534",
"8  c #373239",
"9  c #333128",
"0  c #442B00",
"q  c #432B0B",
"w  c #453205",
"e  c #48390C",
"r  c #5A3F0C",
"t  c #4C3E11",
"y  c #413816",
"u  c #573915",
"i  c #4A3C2D",
"p  c #5C470C",
"a  c #4A441A",
"s  c #594719",
"d  c #684B0D",
"f  c #7B5A0D",
"g  c #644C1A",
"h  c #6A5617",
"j  c #755818",
"k  c #61500A",
"l  c #786612",
"z  c #4A4625",
"x  c #544423",
"c  c #524B24",
"v  c #5D4A22",
"b  c #58482F",
"n  c #5A5229",
"m  c #594F39",
"M  c #5D5233",
"N  c #4B4537",
"B  c #654D27",
"V  c #665421",
"C  c #6D5B22",
"Z  c #68562A",
"A  c #795C2A",
"S  c #665439",
"D  c #6A672B",
"F  c #7D6426",
"G  c #7A6432",
"H  c #7A7436",
"J  c #363744",
"K  c #312940",
"L  c #413D4C",
"P  c #57584B",
"I  c #555C56",
"U  c #5B5B55",
"Y  c #565B5A",
"T  c #5A5E5D",
"R  c #565556",
"E  c #4A4E56",
"W  c #675A47",
"Q  c #625D5A",
"!  c #665D57",
"~  c #5D6356",
"^  c #56625C",
"/  c #5C605F",
"(  c #5A6659",
")  c #596247",
"_  c #716344",
"`  c #796C4A",
"'  c #7D7A47",
"]  c #636354",
"[  c #63635D",
"{  c #6A665A",
"}  c #756D5E",
"|  c #7A6F55",
" . c #726A57",
".. c #555D61",
"X. c #5C5E62",
"o. c #5C5E69",
"O. c #615F62",
"+. c #605E6B",
"@. c #5E6261",
"#. c #5D6963",
"$. c #5D646B",
"%. c #5F696B",
"&. c #616464",
"*. c #646965",
"=. c #63656A",
"-. c #656A6A",
";. c #6A6C6B",
":. c #6A6862",
">. c #746F68",
",. c #7A7562",
"<. c #7D7A6E",
"1. c #767368",
"2. c #747471",
"3. c #676C70",
"4. c #845C15",
"5. c #815F08",
"6. c #96751D",
"7. c #8F640F",
"8. c #A27F1B",
"9. c #856D29",
"0. c #9A7925",
"q. c #957728",
"w. c #8C6D3C",
"e. c #876837",
"r. c #8A7232",
"t. c #8B7836",
"y. c #977B38",
"u. c #A37E35",
"i. c #897A46",
"p. c #937C44",
"a. c #877956",
"s. c #A97749",
"d. c #897F6D",
"f. c #837D75",
"g. c #98801C",
"h. c #A88416",
"j. c #B48A19",
"k. c #B6911F",
"l. c #9D843D",
"z. c #92843D",
"x. c #AA8829",
"c. c #B38B2B",
"v. c #B88B29",
"b. c #AC9328",
"n. c #BC9525",
"m. c #BD942C",
"M. c #BD9C2C",
"N. c #B69527",
"B. c #A88737",
"V. c #B78835",
"C. c #BB9533",
"Z. c #BD9A33",
"A. c #B69C3D",
"S. c #BA9D3B",
"D. c #B79537",
"F. c #AE963E",
"G. c #BEA23B",
"H. c #BCA12E",
"J. c #C39B2E",
"K. c #C8982A",
"L. c #C38F34",
"P. c #C39532",
"I. c #C39C33",
"U. c #C89B33",
"Y. c #C49B3B",
"T. c #CC9C3A",
"R. c #C6973F",
"E. c #C3A233",
"W. c #C4A33A",
"Q. c #9B8443",
"!. c #9E8A43",
"~. c #968958",
"^. c #9C9443",
"/. c #A28D45",
"(. c #A48948",
"). c #B08D46",
"_. c #AA9348",
"`. c #BB9D43",
"'. c #B99848",
"]. c #A48B57",
"[. c #AC9453",
"{. c #AB925B",
"}. c #A89758",
"|. c #B49A5B",
" X c #B69754",
".X c #BF8B59",
"XX c #BBA147",
"oX c #BAA558",
"OX c #8D836C",
"+X c #898368",
"@X c #948766",
"#X c #9A976A",
"$X c #868379",
"%X c #938B79",
"&X c #9D9177",
"*X c #A49465",
"=X c #B49D64",
"-X c #A08F71",
";X c #A49F7B",
":X c #A28D62",
">X c #BCAC65",
",X c #B2A779",
"<X c #C29C42",
"1X c #C29F4E",
"2X c #C7A347",
"3X c #D2AB4A",
"4X c #CAA75B",
"5X c #D5B559",
"6X c #CDAD52",
"7X c #C8A964",
"8X c #CCB36D",
"9X c #E8B461",
"0X c #E5C35F",
"qX c #D9C775",
"wX c #E4C669",
"eX c #F3C56B",
"rX c #E9C873",
"tX c #F5CC75",
"yX c #FFDD79",
"uX c #E8D368",
"iX c #928E87",
"pX c #979486",
"aX c #9B9B94",
"sX c #A39D83",
"dX c #A29F9A",
"fX c #A9A187",
"gX c #B9AF94",
"hX c #B3B1A5",
"jX c #C1AF89",
"kX c #EDBF81",
"lX c #FED785",
"zX c #F0C986",
"xX c #CBC3A6",
"cX c #D2CAB5",
/* pixels */
"&.@.&./ &.T T T &.&.T &.T ^ =.@.Y *.~ U [ [ [ ~ Q :.{ d.<.( ..[ T T T T @./ T @./ &.Y Y @.T Y / @./ ",
"@.&.&.@.@.@./ Y T T T &.;./ U <.%X#X~.:X].{.].}.=X|.|.=X,XsXdXQ / / T / @./ T / / &.Y I T Y Y @.&.&.",
"T &./ @.T &.@.T Y &.X.@.@.] cX-X].7X).).<Xc.b.b.c.C.D.A.>X~.a.iX/ @.T T @./ T / T &.T / &.T T @.T T ",
"@.@.Y T Y &.@.@./ &.=...@.] jX].}.h q.6.0.6.6.g.0.x.q.l l }.i.2.T T Y Y T T T @.T &.@.&.&.@.@.&.&.&.",
"*./ T Y @.T @.@.T Y $.$.@.pX].4Xt.k !.Q.y.r.t.p.i.p.p.z.h |.}.[ T T T Y T / T T / @.T T T Y &.*.@./ ",
"-.@.@.@.*.T / @.&./ @.@.R gX|.2Xt.t.G Z S B S i x Z S C A .X8XQ T @.@.@.@.@.T Y T T Y T Y Y / @.@.@.",
"&.@.@.&.&.@./ @.@.Y *.^ :.xX[.3Xt.V _ } { } } }  .W P a u s.4X@.T @.@./ @.@.T Y T T T &.@.T / Y @./ ",
"@.&./ @.T &.@.@.&.@./ / T xX/.W.i.M [ ;.3.&.;.{ #.U R z = s.XX#.T @.T Y T @.T / / T T &.@.T @.T @.@.",
"-.&.@.@.@.T T @.T &.@.=.Y xX[.`.a.z :.&.-.*.*.~ @.P P z w (.oX[ T T Y T / T @./ @.@.Y T Y @.@.&.&.&.",
"&.@.@.&.&.@.@.&./ &.@.@.[ xX[.B.~.n W U Q ! ! ! U m N > s (._.:.@.@.T @.@.T / T @.@.T @.T / T T &.&.",
"@./ @.&.&.@.@.&.&.@.X.X.[ xX{.q.Q.V B S S S M S b x i w Z y.r.>./ @.T @.@.T @.T T @.T &.T @.Y Y T T ",
"@./ @.@.@./ T / T @.T @.[ xX].f t.9.F w.w.e.A G w.w.e.C w.j p [ T @.T @.@./ @.T @.@.T @.Y / T T &.&.",
"&.@.@.@.@.@./ / T &.Y @.~ xX:Xd 9.y.y.B.B.u.0.0.u.B.u.y.(.r g <.@.@.T @.@.T T Y @.@.T / Y T T T @.@.",
"&.&.&.&.&.&.&.&.@.&.Y @.I hX-Xg h l.B.x.x.x.8.h.x.c.x.x.!.0 s d.T @.T @.@.T / T T T Y @.T @./ @.&.&.",
"@.&.&.&.&.&.&.&.@./ / @.^ hX&Xv C /.F.c.v.m.x.b.c.v.c.b.!.0 v %XT / T @.@.@.@./ T T Y @.T @.@.&.T T ",
"T / @.@.@.@.@./ &.Y &.^ @.dX%Xx V Q.F.c.v.C.c.b.N.v.C.b./.q x %XT @.T @.@./ @.T &.&.T / Y T T @.&.&.",
"@./ @.@.@.@.@.@.&.~ [ @.@.aXfXx B (.'.C.n.m.C.C.L.m.M.D.{.= a iXT T Y T @./ T &.T / / T T T @.@.&.&.",
"&.@.@.@.&.@.@.@.&./ &.$.@.$XsXa s (.'.C.m.m.P.C.L.m.M.D.{.= a $X@.@.T T @.@.T T @.@.@./ T T T T &.&.",
"&.@.@.@.@.@.@./ @.@.&.@.@.2.fXs s [.`.Z.m.m.C.D.P.I.M.A.{.e z f.@./ T T @.&.@.T T T T T T T T T / / ",
"&.@.@.@.@.@.@.@.@.^ @.@.X.$XfXs g [.`.Z.J.m.C.C.J.I.M.A.{.t c f.T T T T T @.@.T T T T T / @./ T @.@.",
"&.@.@.@.@./ @.&.@./ &.@.X.iXsXt p _.`.M.J.J.m.Z.J.M.H.`.{.w a >.T T @.T Y T @.Y @.@.T T T / / T &.&.",
"@.@.@.@./ ^ @.&.@.Y &.$.&.aX;Xe k _.S.Z.J.J.J.I.J.M.E.'.{.w > Q T Y @.@.Y T @.T @./ T T T / @.@./ / ",
"@.@.@.@.@.T @.@./ Y / @.=.pXfXt C [.`.Y.U.U.U.P.J.U.W.2X{.t y R T Y T @.Y T &./ Y T T T T T / @.T T ",
"@.@./ @.@./ / @./ Y Y X.@.$XfXt G |.'.2XT.T.T.T.U.T.I.1X{.s z Y &.Y T @.Y Y / Y Y T T T Y Y Y Y @.@.",
"@.&.&.@.@./ @.&.=.;.&.@.*.;.$Xa a.].|.4X'.<X2XD.<XG.XX'.].Z a [ T T @.@./ @.@.&.T Y T T @.T I T &.&.",
"T @.@.&.@.@./ T @.T ;.@.I -.[ c ` v r g j A r.F j h p p Z _ z X.Y Y T T Y Y T / / @.@.T T / Y T @.@.",
"@.@.@.@.@.@.@.@.@.&.T =./ X.O.c a.= X X X   * o   o o X :  .z =./ @.@.@./ T @.&.Y @.@.Y T @.T @.T T ",
"&.&.@.@.@.@.@.&.&.I X.X.I -.Q c | + O . . . & . . - 2 $ % | n { T T @.@./ T T @.Y T @.T T @./ &.@.@.",
"@.@.&.-.&.@.T / X.T =.@.I &.>.Z S X % < < 1 2 & & 2 3 ; O _ D ,.Y T / @./ T T @.T T @.@.@.T Y @.&.&.",
"@.&.&.-.&./ / @.X.*.X.@.( [ d.D M % 2 4 2 2 - - 2 8 L i + x H +X/ / @.&.@./ @.&.@.T @.@.&./ Y @.@.@.",
"*.&.&.&.@.T @.&.$.I X.T ~ :.] ' > ; 2 3 3 2 2 3 8 E L i : , ' ! T T T @.T Y T @.T T @./ @.@.T @.&.&.",
"@./ / @.@./ T @.^ *.@.-.&.X.U @X> 9 5 3 3 8 5 6 4 J 6 8 9 y #X[ @.T T / T Y T @.T / @.Y T &.T T T T ",
"&.@.T T / &.@.T ^ &.~ &.-.$.U [.y : 7 3 3 7 7 5 J 8 5 5 : q *X&.@./ @.&.@./ @.&.Y / @.@.T @.&.&.&.&.",
"@.@.@.T / @.@.@./ &.I @.&.$.[ 7Xg @ X $ ; ; $ ; ; $ + + q B >X:.T @.&.@./ @.@.@.T @.@.@.T T T T @.@.",
"@.&.&.@.T / @.@.@.=.~ @.&.=.1.8X7Xe.g e = * # = = 0 p V 9. XqX,.Y @.&.^ T @.@.T Y T / / @.@./ T @.@.",
"@.&.&.@./ T / @./ =./ @.O.&.,.rX4X'.'._./.B.y.y.l.B.F.'.XX5XwX@XY / @.T T @.@.T Y Y T T @.@.@.@.@.@.",
"@.@.@.@.@.@./ T Y X.Y ^ U @.,.rX9XR.Y.Z.S.Z.C.Y.A.Z.M.S.M.3XuX;XY T T / @.@.&.&.@.T T T @.@./ T T T ",
"@.T T @.&.@.@./ / =.Y T Y @.,.tXeXT.I.M.M.n.j.j.N.E.M.G.E.0XuX#X@.@.@.@.@.@.@.@.@./ T / @./ / / / / ",
"@.@./ @.@.@.@.@.[ =./ $.T @.} wXeX3XW.Z.W.I.n.n.C.U.I.2X2XtX0X@X@.&.&./ T @.@.T / T T @.@./ / @.@.@.",
"&.@.@.@.@./ / @.T &./ %.@.^ ] 5XyX3XW.G.2X<XZ.J.Y.Y.Y.2X3XlX5Xa.Y @.@.Y Y @.&.@.@./ @.@.@.T T T T T ",
"@./ T @.@.@./ / / &.O.^ ^ $.! 7XlXwXS.f j j '.<X5.d f ).kXyX6X! Y Y *./ T &.Y &./ T T T @.T T @.@.@.",
"&.@.@.@.@.@.&.&.@.T X./ ^ $.! ~.zXlX<X6.4.4.V.v.7.7.6.Y.tX0X^.Q T / &.@.@.&.T @.&.&.@./ / T Y T &.&.",
"@.@.@.@.@./ @.&./ X.+.&.( $.&.`  XtX3XU.n.m.K.K.j.n.N.E.5XoX' I T @.@./ @.@.T T @.&.@.T / / T @.@.@.",
"/ @.@.@./ T / @.^ X.=.T ~ ^ -.[ p.oXW.k.j.k.h.j.j.N.x.x._.@X=.Y Y @.T T @./ @.@.T @.@.T / @.@.@./ T ",
"/ @.@.@.@.@.@.@.I @.o.U ~ I $.$.,.+X{.Q./.l.y.y.l.y.p.~.~.2.+.&.T &./ / @./ &.&.T &.@.T / @./ / &.&.",
"@.@./ T / @.&.&.~ =.@.I *.Y T $.$.2.<.OXOXOXOXd.%XOX$Xf.>.O.X.) T @.@.T / @./ &.T @.@.T @./ T T &.&.",
"@.@.@./ T @.@.&.[ =./ ~ =.@.~ @.@.@.T T I T ~ &.T @.=.X.Y @.$.] T T &.T / @.Y / T @./ @.@./ T / @.@.",
"@.&.*.&./ / @.@.&.X.( ( o.&.] @.( ~ ;.Y $.%.Y =.Y Y Y ~ #.^ Y ../ T &./ @.-.Y T @.@.@.@.&.T Y T &.&.",
"T &.@.@.@.T @./ T T &./ Y T T @.&.@./ T / @./ / T T T T T / T T &.&.@.T T T T @.T / @.@.@./ / / &.&.",
"T &.@.@.@.T @.T Y T &.&.@./ Y T @.@./ T / / / / @./ T / @.@.@./ @.@.T Y T T T @.T T @.@./ T T / T / "
};
