/* XPM */
static char *_5702a0fe02f4f3ebc24a7e41056a27esjEHt58xpbyyHt8y[] = {
/* columns rows colors chars-per-pixel */
"50 50 234 2 ",
"   c #191405",
".  c #181812",
"X  c #221502",
"o  c #241E02",
"O  c #251B0C",
"+  c #2A1C07",
"@  c #301D00",
"#  c #241D12",
"$  c #271C16",
"%  c #19221C",
"&  c #2C2105",
"*  c #3A2805",
"=  c #23241F",
"-  c #272419",
";  c #342716",
":  c #3C3718",
">  c #3F360F",
",  c #1B1821",
"<  c #1C2222",
"1  c #272828",
"2  c #2B2C34",
"3  c #292533",
"4  c #322E33",
"5  c #362B39",
"6  c #343534",
"7  c #373239",
"8  c #333128",
"9  c #442B00",
"0  c #432B0B",
"q  c #453205",
"w  c #48390D",
"e  c #5A3F0C",
"r  c #4C3E11",
"t  c #413816",
"y  c #573915",
"u  c #4A3C2D",
"i  c #5C470C",
"p  c #4A441A",
"a  c #594719",
"s  c #684B0D",
"d  c #7B5A0D",
"f  c #644C19",
"g  c #6A5617",
"h  c #755818",
"j  c #61500A",
"k  c #786612",
"l  c #4A4625",
"z  c #544423",
"x  c #524B24",
"c  c #5D4A22",
"v  c #58482F",
"b  c #5B5229",
"n  c #594F39",
"m  c #5D5233",
"M  c #4B4537",
"N  c #654D27",
"B  c #665421",
"V  c #6D5B22",
"C  c #68562A",
"Z  c #795C2A",
"A  c #665439",
"S  c #6A672B",
"D  c #7D6426",
"F  c #7A6432",
"G  c #797536",
"H  c #363744",
"J  c #312940",
"K  c #413D4C",
"L  c #57584B",
"P  c #565C56",
"I  c #5B5B54",
"U  c #565B5A",
"Y  c #5A5E5D",
"T  c #565556",
"R  c #4A4E56",
"E  c #675A47",
"W  c #625D5A",
"Q  c #665D57",
"!  c #5D6356",
"~  c #56625C",
"^  c #5C605F",
"/  c #5A6659",
"(  c #596247",
")  c #716344",
"_  c #796C4A",
"`  c #7D7A47",
"'  c #636354",
"]  c #63635D",
"[  c #6A665A",
"{  c #756D5E",
"}  c #7B6F55",
"|  c #726A57",
" . c #5C5E62",
".. c #585E65",
"X. c #615F63",
"o. c #605E6B",
"O. c #5E6261",
"+. c #5D6963",
"@. c #5D646B",
"#. c #5F696B",
"$. c #616464",
"%. c #646965",
"&. c #63656A",
"*. c #656A6A",
"=. c #6A6C6B",
"-. c #6A6862",
";. c #746F68",
":. c #7A7562",
">. c #7D7A6E",
",. c #767368",
"<. c #757572",
"1. c #676C70",
"2. c #845C15",
"3. c #815F08",
"4. c #95741C",
"5. c #8F640F",
"6. c #A27F1B",
"7. c #856C29",
"8. c #9B7924",
"9. c #957728",
"0. c #8C6D3C",
"q. c #876837",
"w. c #8A7232",
"e. c #8B7836",
"r. c #9A7A3C",
"t. c #957B35",
"y. c #A37E35",
"u. c #897A46",
"i. c #947A44",
"p. c #877956",
"a. c #A97749",
"s. c #897F6D",
"d. c #837D75",
"f. c #98801C",
"g. c #A88416",
"h. c #B48A19",
"j. c #B6911F",
"k. c #9D843D",
"l. c #92843D",
"z. c #AA8829",
"x. c #B38B2B",
"c. c #B78B29",
"v. c #AC9328",
"b. c #BC9525",
"n. c #BD932C",
"m. c #BD9C2C",
"M. c #B69527",
"N. c #A88737",
"B. c #B78835",
"V. c #BB9533",
"C. c #BD9B33",
"Z. c #B69C3D",
"A. c #BA9D3B",
"S. c #B79537",
"D. c #AE963E",
"F. c #BEA23B",
"G. c #BCA12E",
"H. c #C39B2E",
"J. c #C8982A",
"K. c #C38F34",
"L. c #C39532",
"P. c #C29C33",
"I. c #C89B33",
"U. c #C49C3B",
"Y. c #CC9C3A",
"T. c #C6973F",
"R. c #C3A233",
"E. c #C4A33A",
"W. c #9B8443",
"Q. c #9B8843",
"!. c #968958",
"~. c #9C9443",
"^. c #A28D45",
"/. c #A48948",
"(. c #B08D46",
"). c #AA9347",
"_. c #BB9D43",
"`. c #B99848",
"'. c #A48B57",
"]. c #AC9453",
"[. c #AB925A",
"{. c #A89758",
"}. c #B49A5B",
"|. c #B69754",
" X c #BF8B59",
".X c #BBA147",
"XX c #BAA558",
"oX c #8D836C",
"OX c #898367",
"+X c #948766",
"@X c #9A976A",
"#X c #868379",
"$X c #938B79",
"%X c #9D9177",
"&X c #A49465",
"*X c #B49D64",
"=X c #A08F71",
"-X c #A49F7B",
";X c #A28D62",
":X c #BCAC65",
">X c #B2A779",
",X c #C29C42",
"<X c #C29F4E",
"1X c #C7A347",
"2X c #D2AB4A",
"3X c #CAA75B",
"4X c #D5B559",
"5X c #CDAD52",
"6X c #C8A964",
"7X c #CCB36D",
"8X c #E8B461",
"9X c #E5C35F",
"0X c #D9C775",
"qX c #E4C669",
"wX c #F3C56B",
"eX c #E9C873",
"rX c #F5CC75",
"tX c #FFDD79",
"yX c #E8D368",
"uX c #928E87",
"iX c #979486",
"pX c #9B9B94",
"aX c #A39D83",
"sX c #A29F9A",
"dX c #A9A187",
"fX c #B9AF94",
"gX c #B3B1A5",
"hX c #C1AF89",
"jX c #EDBF81",
"kX c #FED785",
"lX c #F0C986",
"zX c #CCC4AB",
"xX c #CBC2A4",
"cX c #D2CAB5",
/* pixels */
"^ O.O.%.%.O.U Y %.Y U Y Y O.$.^ O.Y Y Y Y O.O.U Y Y O.$.O.O.O.Y %.Y Y O.Y ^ O.Y O.Y O.O.^ Y ^ Y ^ ^ ",
"U U Y O.$.^ Y O.O.Y U Y Y ^ O.Y O.Y Y ^ ^ O.^ U T U Y ^ U U Y Y $.Y ^ O.^ ^ ^ Y Y U Y O.^ Y Y U ^ Y ",
"Y U Y O.U U Y Y O.^ O.^ Y O.O.Y Y Y Y O.^ ^ Y U Y ^ O.O.Y ^ O.$.O.Y O.O.O.^ ^ Y Y Y ^ O.O.^ ^ Y ^ Y ",
"O.Y $.%.Y U O.O.U Y Y U U Y Y U Y Y Y ^ Y Y Y U O.Y Y Y O.$.O.Y Y Y O.O.O.O.O.O.O.^ ^ ^ ^ O.O.$.O.^ ",
"U T ^ %.Y Y %.$.Y O.O.O.^ O.O.^ Y ^ Y Y Y Y Y Y Y Y U Y O.O.^ U O.O.^ Y Y ^ O.O.Y ^ Y Y Y Y O.O.O.O.",
"U U Y O.Y U Y Y U Y Y Y Y U U Y ^ O.Y Y Y Y Y Y Y O.O.O.O.O.O.O.O.O.^ Y Y Y Y O.Y O.O.O.O.O.^ O.O.O.",
"%.%.$.$.O.^ Y Y O.O.O.O.O.Y Y %.^ O.Y Y O.^ Y Y U O.O.Y Y Y Y ^ ^ O.Y U Y ^ Y ^ Y %.%.O.$.O.O.O.^ Y ",
"^ ^ Y Y ^ Y Y ^ O.O.Y O.O.Y Y %.Y O.Y Y O.O.U U Y ^ U U Y O.Y Y U Y U U O.O.^ O.^ $.O.Y Y Y Y O.Y Y ",
"O.^ ^ O.Y U U ^ ^ Y Y Y U Y ^ Y $.Y Y Y U Y ^ U $.^ $.O.O.$.O.O.$.O.Y Y %.O.Y O.%.O.^ O.%.$.^ Y O.O.",
"Y Y Y Y Y Y Y Y O.^ O.O.Y ^ O.O.Y Y O.O.O.O.$.O.O.Y O.^ Y O.Y Y O.O.O.O.$.O.O.%.U Y Y O.$.^ U U Y Y ",
"^ ^ ^ Y Y O.O.O.Y Y Y ^ Y Y O.^ ^ O.$.O.Y Y Y U O.U Y Y Y ^ U U ^ O.O.O.O.O.O.O.$.$.O.^ ^ ^ O.*.Y Y ",
"O.O.O.Y ^ O.O.Y ^ O.O.O.O.O.O.O.O.O.O.Y U U U U ^ U ^ ^ ^ O.Y Y O.^ Y Y O.O.Y U Y O.O.O.O.^ ^ O.Y Y ",
"Y ^ Y U U O.^ U Y O.O.O.O.O.O.O.Y Y Y Y Y O.O.O.O.Y O.O.O.%.O.^ O.O.Y Y ^ O.^ U ^ O.^ Y ^ Y Y ^ Y U ",
"Y Y Y U Y O.O.Y U Y Y Y Y Y Y Y U Y Y Y O.O.Y Y O.Y O.O.^ O.Y Y O.O.$.O.Y O.%.O.%.%.O.Y O.O.$.%.O.Y ",
"Y ^ O.Y Y O.O.O.Y O.O.O.O.O.^ O.Y O.^ Y Y U U U Y U O.Y Y ^ Y Y ^ O.O.^ Y O.%.O.U ^ O.O.O.O.Y Y %.O.",
"Y ^ ^ Y Y Y Y Y Y O.^ Y O.Y Y Y Y O.O.Y Y Y Y $.Y U ^ Y U ^ Y O.O.Y U U U O.O.U U Y Y U Y Y Y ^ $.O.",
"] I uX<.] W $.+.[ -.;.[ >.s.#X$XuX#Xd.d.;.W T U ]  .$.[ :.OXQ ] $.-.:.OX-X@X+Xp.Q Q P U %.( ' ..Y ^ ",
"..sXp.u.{.7X3X.XXX).w.i f a c z l p l x p : t l p l l b S G ` @X&X:X0XyXyXyXqX4X5X~.` $.o. .O.U Y O.",
"/ aX!.{.}. Xa.a./.(.r.h e 9 9 0 * * w r q q r a C ) | } ) z > t 0 N |.4X2X9XrXkXtX9XXX+X;.X.O.^ ^ O.",
">.>X:Xk g Z y * q a C 0./.Q.Q.^.[.[.[.[.[.[.[.[.'.C ; $ O + ; 8 ; 0 7..Xm.R.1X2XjXrX4X).!.;.P +.Y O.",
"d.*X_.k l.V p l l : q V t.z.v.v.S.S.Z.Z._._.1X<X`.i X # 1 u u 7 4 O B `.A.F.1X1X(.U.R.z.!.d. .! Y ^ ",
"' }.S.9.i.A E T L M u q.y.z.x.V.m.m.m.m.G.R.E.P..Xi o 1 2 K K 5 4 O i D.m.m.P.U.d 4.M.z.i.#X&.U Y Y ",
"-.[.V.z.i.C E I L n z 0.N.x.c.c.n.n.P.m.m.m.I.E.F.g o = 1 H R H 7 # 9 N.C.R.I.U.s 5.b.M.t.oXX.U Y ^ ",
"W *Xx.8.i.z | +.O.I v 0.y.z.c.M.K.K.L.H.H.H.H.I.1Xk   . . 1 7 3 H = * k.Z.M.V.U.3.5.h.h.k.$XY U Y O.",
"! {.v.f.i.u { [ ^ Q A F 8.g.v.v.V.V.S.V.C.P.L.Y.S.D o . % = 4 5 4 - * r.U.h.b.H.,Xx.J.h.t.s.$.&.^ ^ ",
"] '.x.4.e.A { =.%.' n Z 8.6.z.x.V.L.V.V.n.H.I.Y.5Xw.& % 1 = 1 4 6 # @ t.V.h.b.C.`.B.J.g.t.oX^ U ^ ^ ",
"] [.x.8.w.N { %.%.' A q.y.z.n.V.n.n.n.n.H.H.I.Y.,XZ   . < 1 1 6 6 - & N.C.b.P.,Xh 2.n.j.N.oXY #.O.^ ",
"] '.,X8.t.A | 1.*.Q A 0.N.z.c.c.b.n.m.H.H.H.I.Y.`.h X . , 1 2 2 2 - * ^.A.m.E.1Xh 2.c.h.^.oXP @.^ ^ ",
"I ;X(.4.W.C { =.$.I A 0.N.z.x.x.C.V.C.C.m.C.U.1X3Xf X . , 3 2 2 2 # w ).C.m.C.F.d 4.I.j.W.oXY U Y Y ",
"! !.(.9.Q.F ) [ -.E N D t.N.N.N.`.`._.,X_.Z._.`.}.e X O $ 1 1 4 6 X f `.U.P.E.E.A.T.2XE.[.>.Y =.^ ^ ",
"%.%X6Xg j e.B m l b V 7.t.k.Q.W././.].|.).).].}.'.c * & X $ - 8 ; @ q.`.T.Y.2X2XqXkXrXXXOX<.O.! O.O.",
"U $X'.{.e.t.e.u.p.!.W.t.7.g V B N a a s i s V F p._ p.} A m : : t f 6X3X8XwXwXtXkXlX|.W.:.@.O./ $.O.",
"O.>.=X/.3X1X2XE._.N.4.d s f c z z p a a r w r r p x x x B S ` !.].6X7XeXeXeXqX4X7X!.) ] @.@.O.^ O.Y ",
"&.I cXhX'.}.].^.].].[.'.;X=X%X$XdXaXdXdXaX-XdXdX#X] X.Q ;.OX' I P ] ,.:.:.:.{ ' Q Q $.&.O.^ ! ! Y U ",
"~ ^ ' ' iXfXxXxXxXxXzXzXzXgXgXpXpX#X>.#XuXpXiX#X=.&...&.$.] =...@.@.&.%.^ O.O.~ @.@.@.^ T ^ $.$.Y ^ ",
"Y *.O.O.O.T -.Y Y ] ] ] ^ P ^ O.O.O.O. . .@.&.O.%.P ^ T P / ! %.&.$.$.$.I U Y O.~ ~ / ! ^ %.&...U O.",
"$.$.O...@.O.^ ^ &.O. .O.O.@.O.^ O.@.O.O.O.@.O. .O.O.&. .O.O. .*.%.O.O.O.^ Y @.#.^ ^ $.Y I P ! / ^ $.",
"Y Y  .&.@.O.%.^  .O. .Y U U ^ %.] $.$.O.$.%.^ U $.=.Y O.&. . . .! P ! ^ ! U ^ ^ X...o.&. .O.^ / $.%.",
"%.Y %.$.U O.U O.O.$.O.O.%.%.^ U ^ ^ O.^ ^ U U U =.Y $.P Y -.P %.X.$.&.&...$.&.$.$.Y  . .O.&.&...Y Y ",
"%.Y U ^ Y $.O.%.Y ^ $.^ Y O.$.$.%.$.O.O.O.O.^ ^ *.O.O.@. ...%.^ ^ ^ O.^ U ^ ] Y ^ O.^ ~ P ^ ] $.Y U ",
"Y U Y O.O.O.O.O.O.%.$.^ ^ $.$.^ O.O.^ O.$.%.O.O.%.Y O.$.^ O.%.O.Y O.O.O.Y ^ O.O.^ %.%.O.O.$.$.O.^ Y ",
"Y ^ O.O.O.^ ^ O.Y O.O.Y ^ $.$.O.O.O.O.O.O.O.O.^ O.^ O.O.Y ^ O.Y O.O.O.^ ^ O.O.^ ^ $.O.^ O.$.O.O.O.O.",
"Y O.%.$.Y Y O.$.Y O.O.^ O.$.$.O.O.O.O.O.^ Y Y ^ ^ O.O.O.O.^ Y ^ $.O.^ Y O.O.O.^ O.O.^ Y O.O.O.^ Y Y ",
"$.O.Y U O.%.%.Y O.$.%.O.O.$.$.O.O.$.O.O.O.^ O.O.O.O.O.O.%.%.O.O.^ ^ Y ^ O.$.O.O.$.O.O.^ O.^ Y ^ O.O.",
"^ O.O.Y U O.$.O.O.$.$.O.O.%.$.O.O.O.O.O.O.O.O.O.O.$.O.O.*.*.$.O.Y Y O.O.O.O.O.O.O.O.O.O.O.Y ^ $.O.O.",
"%.$.^ U Y O.O.^ O.O.O.O.O.%.$.O.O.O.O.O.O.O.O.^ %.O.O.O.%.%.$.^ Y O.$.$.O.Y ^ O.Y O.O.O.O.^ O.%.O.O.",
"O.$.$.O.^ O.O.$.%.O.Y Y O.%.$.^ ^ O.O.O.O.O.O.O.%.O.O.%.O.$.%.^ O.O.$.$.O.Y O.O.^ O.O.O.O.O.O.%.$.$.",
"$.O.Y O.%.*.%.O.*.%.O.O.$.%.O.Y O.$.%.%.$.O.O.O.O.Y O.%.O.O.%.O.$.O.O.O.O.O.O.%.O.%.O.Y ^ O.O.O.Y Y ",
"O.%.Y %.O.O.O.O.$.%.Y %.O.$.Y $.%.$.^ O.$.^ Y O.%.O.Y O.$.O.$.Y %.O.O.O.Y ^ O.Y O.%.O.^ %.%.O.%.%.Y ",
"^ %.Y $.^ O.Y O.$.%.Y $.O.$.Y $.%.$.^ O.$.^ Y O.%.O.Y O.$.O.$.Y %.O.O.O.Y ^ O.Y O.$.O.Y $.%.O.$.%.Y "
};
