/* XPM */
static char *_645bf7448a64412ac783d1533efa76d[] = {
/* columns rows colors chars-per-pixel */
"50 50 169 2 ",
"   c #2F2E33",
".  c #333338",
"X  c #3B3B3D",
"o  c #2C334C",
"O  c #343B4D",
"+  c #383C4B",
"@  c #2A3454",
"#  c #2F3852",
"$  c #2F395D",
"%  c #343C54",
"&  c #353F5D",
"*  c #2C3B65",
"=  c #323F6A",
"-  c #2C3E77",
";  c #3D404A",
":  c #3A4050",
">  c #3E4558",
",  c #384161",
"<  c #31416D",
"1  c #3A476A",
"2  c #2C407C",
"3  c #354575",
"4  c #3D4B72",
"5  c #3C4F7F",
"6  c #434650",
"7  c #464851",
"8  c #4C4D51",
"9  c #4B4F5F",
"0  c #515155",
"q  c #545857",
"w  c #565A5A",
"e  c #5A5E5D",
"r  c #615E5F",
"t  c #5C605F",
"y  c #404865",
"u  c #444F6C",
"i  c #4E5664",
"p  c #45516E",
"a  c #565C64",
"s  c #5A5E62",
"d  c #535B6B",
"f  c #424E72",
"g  c #455374",
"h  c #495574",
"j  c #44537B",
"k  c #495778",
"l  c #4C5A7D",
"z  c #555F70",
"x  c #5E6261",
"c  c #5C6068",
"v  c #566070",
"b  c #5B6172",
"n  c #616564",
"m  c #646867",
"M  c #60636C",
"N  c #666A6A",
"B  c #696E6D",
"V  c #646A75",
"C  c #6B6C74",
"Z  c #73757C",
"A  c #2E4281",
"S  c #2F448D",
"D  c #304585",
"F  c #384B85",
"G  c #384D89",
"H  c #3E5081",
"J  c #3E538E",
"K  c #2E4590",
"L  c #2F4A9E",
"P  c #344C94",
"I  c #334C9C",
"U  c #3D5393",
"Y  c #39529B",
"T  c #3552A6",
"R  c #3953A2",
"E  c #3753AA",
"W  c #3A56AD",
"Q  c #3D5AAC",
"!  c #3957B1",
"~  c #3D5BB3",
"^  c #3E5DB9",
"/  c #425483",
"(  c #4B5B85",
")  c #44568B",
"_  c #46598C",
"`  c #4B5D8A",
"'  c #405694",
"]  c #435A95",
"[  c #485B93",
"{  c #55668F",
"}  c #4D6093",
"|  c #5C6C97",
" . c #637292",
".. c #435DA6",
"X. c #405CAB",
"o. c #415EB3",
"O. c #405FBB",
"+. c #4D64A2",
"@. c #566BA5",
"#. c #5E71A8",
"$. c #4161BE",
"%. c #4965B8",
"&. c #5671BB",
"*. c #5872BC",
"=. c #4565C4",
"-. c #4768C6",
";. c #496AC7",
":. c #4567C8",
">. c #4769CA",
",. c #4A6CCD",
"<. c #5573CA",
"1. c #5D7BCB",
"2. c #4B6ED2",
"3. c #4C70D1",
"4. c #5A7AD3",
"5. c #557ADC",
"6. c #5C7DD8",
"7. c #637FCD",
"8. c #7583A6",
"9. c #7988A8",
"0. c #6981BD",
"q. c #6C85C4",
"w. c #738CCF",
"e. c #6481D1",
"r. c #6B87D7",
"t. c #6C89D6",
"y. c #6A86D8",
"u. c #758ED3",
"i. c #7791D6",
"p. c #7F98D9",
"a. c #7B9BE6",
"s. c #7B9CE9",
"d. c #80889D",
"f. c #838DA7",
"g. c #8B93A5",
"h. c #8992AC",
"j. c #9099A6",
"k. c #939DB6",
"l. c #9BA5BD",
"z. c #A1A3A9",
"x. c #A2A9B2",
"c. c #ACB0BC",
"v. c #8098D8",
"b. c #8DA0CD",
"n. c #9BAEDD",
"m. c #A0ADCF",
"M. c #B2BAC5",
"N. c #A0AFD2",
"B. c #ADB7D0",
"V. c #A8B8DC",
"C. c #8DA7E9",
"Z. c #8EA8EA",
"A. c #9EB3E2",
"S. c #A0B5E5",
"D. c #ADBEE2",
"F. c #BAC5DE",
"G. c #AFC0E4",
"H. c #B3C3E5",
"J. c #BECAE5",
"K. c #C3CAD9",
"L. c #C8D1DE",
"P. c #C2CEE6",
"I. c #D6DEEA",
"U. c #C1D3F1",
"Y. c #CEDBF2",
"T. c #D7E1ED",
"R. c #DAE2EE",
"E. c #DFEBF4",
"W. c #E1EAF5",
/* pixels */
"x x m x t x x x e x e e x x t m e m t m n e x m n e x n t x x m m e m n x e m x x t t t x e x e m t ",
"m x m n x t n n t e x x e m t m t n x x x t x m x t e x x x m n x x m x m e m m x e x n x x m x x x ",
"t x x t e m n x x x x x x m x x x m n x m e t x x x x m n n m x e m m n x x x m x n m N x e n x e e ",
"m n x x m x x t m x e x m x x x x m n x n t m x x x t x n m x e t x m x t x x x x m x x x x x x x n ",
"m x e x x x t e x e e t x x x x x x m m x e x n x x m x x x x x x x n n x x x x x x x e e t m n x x ",
"x e e x t x m x x m x m x x e e t n B N n e m x e n x e m t e x t x m n x m x n x t n e e n e x x x ",
"x x x x e t x x x x x n x e x t x n m x t m n x x x t x n n n x n t m x x n m t e m m t e t x x x x ",
"e x x x t e t x t x n x e e x n x x e e m e t x t e e x x n x x x m n t x e x e n x t t x m t e x e ",
"x x t x e n m x e n x e x x x x e x e e n e e x x x e x e x e t e n x t x x m x x e x x t t e t t e ",
"x t m n e m x t x x x x x x e t x m n x x x x x e m n n x x n x x n x e x x x x x e x m t t e e x w ",
"t m x e x x e x e x x e t x x t x n t e x t x m t x e x t x n n x m e t x x e e x m t e e e e m x w ",
"x x e e e x x x x x t x m x t e x x x x x e x N e e e x x e n x t x e n e x m x x x e x x x x n e e ",
"x x x x t x x x x x t e x m e t m e e e x x m m e x m n x x m x x e t e e x x t x n e n x e x x e m ",
"x t t t e n t e x t t x x e e m n e m x e t t m e x m t x n x x x m x x e e m n t x t t t x m x x m ",
"e m x e e n e x x t e e e e m m x n t w t x e m t n m e e e x x x x e x x x x e x n e t x x x x w t ",
"x m x e x n m x t x e x m m x x x x x x m t x x x n x x x t e x x x n x t x e m x x m x m x x x w x ",
"x x e x x x t t t x m x x x e e e x x n e e x x x x t m m e m x m t t x x x m x e x x n x e e n x w ",
"t x x n e x x e t t x x m n t m e x x x x x m t t t n t e x x x t x m m e x t e x t n e e w m t x e ",
"e x x x e x t e s a d d d d z v d d d d a a a a a c w w s a s s s a s s s c w n n x n e x x x e m x ",
"x x e e t x x t d / U U U ' ] ] ] H 4 1 4 5 H H j j g 4 4 4 4 f / ( ` ( ( ( d x t n x e e t e n x x ",
"m x x n n t x s h P E E ! ! ~ ~ Q 3 o @ - I T T T R R I K 2 * < Y o.o.o.Q R l s x m e n x x x n t x ",
"x x e n x e t a H R ~ O.$.=.=.=.X.&   o A ~ -.-.-.>.-.~ I A # % U =.:.=.^ Q ( s e n e x e w t e t t ",
"x x e e x t x d G ! =.=.;.2.2.2...%   @ P ;.5.5.5.5.5.-.E D % + J =.>.=.$.~ ` s x x e x e x x e t e ",
"x e e e x e x v } *.7.e.r.r.r.y.@.: . y #.v.C.C.Z.Z.Z.p.0.| 9 7 | w.i.u.w.q. .c e t e t e e e x x e ",
"e e e t e x x V f.N.D.D.H.H.H.H.h.7 X V l.P.Y.Y.Y.Y.Y.P.B.k.C e g.F.J.J.J.F.j.B e x e e w x t x x x ",
"x x e x m n x Z x.L.I.T.R.R.R.T.x.8 X Z M.I.W.W.W.W.E.I.K.c.Z r z.I.R.R.R.I.x.B w e x e t t e t e t ",
"e e e m x e e V 8.b.n.n.A.A.S.A.9.6 X b k.H.U.U.U.U.U.H.m.h.M 0 d.V.G.D.D.V.g.N x x t x e e t n e x ",
"w e m x e e e d ) %.<.<.4.4.6.4.+.O . , +.t.a.a.s.s.s.t.&.[ > ; ` 1.e.1.1.*.{ s x t t x e t x t e x ",
"e x x e n x x i G W =.=.;.,.3.,...%   @ P -.5.5.5.5.5.-.T A O + U =.>.=.$.~ / s t w x e x x e e e t ",
"x x x x x x e a j R ~ ^ $.$.=.=.X.,   o A ~ =.=.=.=.=.~ L A # % Y =.=.$.^ W ( c x t e x m e n x e x ",
"x t e e t e e m h P T E W W ~ ~ Q F $ $ 2 P Y Y Y Y Y P S 2 = 3 U X.X.Q Q Y k w e w e e x x x x t x ",
"x t e x x w m e i k / / ) ) ) _ _ / f u f k g g h h h p u u u g k l l l l h i e x t x t t x e n t x ",
"e e n n n w x w x s s c s a c a a a c c a c e e x e x x x s s e s s e s e x m x e w m t e e x x t x ",
"e x e x e w t w e e x e t e t n n e x e x x x x e w e x x e x x x e x e x N m e x t n e e x n e e t ",
"e t e e e e t w w e n w w e x e t e e x e e e e e e e e e t x e e e t e x x e e x e e e e t x e m x ",
"x e x n e x e e x x x w t m t e x e e e e x e e x w w e x x x e x x e x x e m t e x x e t e t e m t ",
"m x x n e m x m m x m t t x e n t e x t t n e t e x e x t w e e e e e n x t e w x t t e w n e e x e ",
"e e e e e t m x w e x e x t x n e m n n m x e x x x x n e x x e t x n x e t n x t e x e w n e e t w ",
"x x x m x x x e w x x e x w t e t t e e t t e e e w e w e x x x n x e t x x x e e x m x e x e n x e ",
"m e x e e m n x x x x x x e n x w e t x e e e x e e e e n x x e x x e x x e e e t x t e e e x e e t ",
"x e x x m e e x m x x m x e x x e t x e e x e x t x x x x x x x e e x x e t t n x e e e e e t w e e ",
"w x x m x t x x x e x n t x x x x x n x x m t x e t t e e e e e x x e w e m w t e e e e x t e x m x ",
"x t e t e n m x t t x x e e e w e e x e e w e e w e e x e e e t x e e t x e e n x e e x t e e x t e ",
"x e x n x m x e t e x e w t x x e e w e x e n e w t t x e t x x n e x n e x x x t e x x x x x n t e ",
"x x n m x t e x x e n e e x m x e x n x t t x e e e e e e t x e e e e e e m x w e x e e x n w e x t ",
"x m e w e e e x e m x e x e t e e x x x e e e e t e e x t t e x x e x t x x e e m x w e x x w e n x ",
"n x e e x x e t t x w x x e e e e n t t e e x t w t t x e e e e w e t e e e e t x t e x x x e x x e ",
"e t x x x x e e t x x n x e x x x x x x e t e e w x t t e e e e t n t e t x e x x e e e t e q e e e ",
"e e t t e t e e e e t e x e t x e e e w e x e w e e e w x w t t e n t x t w w x x e e x m e w e t e ",
"e e e x n x t x e e t x t e x x e n t t n x w x e t x t e e e x t m x e e e x n e e t m n x x t x e "
};
