/* XPM */
static char *_f8130ba8e5c4c3bb7aec87b94426a2a[] = {
/* columns rows colors chars-per-pixel */
"50 50 167 2 ",
"   c #2F2E33",
".  c #333338",
"X  c #3B3B3D",
"o  c #2C334C",
"O  c #343B4D",
"+  c #383C4B",
"@  c #2A3454",
"#  c #2F3852",
"$  c #2F395D",
"%  c #343C54",
"&  c #353F5D",
"*  c #2C3B65",
"=  c #323F6A",
"-  c #2C3E77",
";  c #3D404A",
":  c #3A4050",
">  c #3E4558",
",  c #384161",
"<  c #38456B",
"1  c #2C407C",
"2  c #354575",
"3  c #3D4B72",
"4  c #3C4F7F",
"5  c #434650",
"6  c #464851",
"7  c #4C4D51",
"8  c #4B4F5F",
"9  c #515155",
"0  c #545857",
"q  c #565A5A",
"w  c #5A5E5D",
"e  c #615E5F",
"r  c #5C605F",
"t  c #404865",
"y  c #444F6C",
"u  c #4E5664",
"i  c #45516E",
"p  c #565C64",
"a  c #5A5E62",
"s  c #535B6B",
"d  c #424E72",
"f  c #455374",
"g  c #495574",
"h  c #44537B",
"j  c #495778",
"k  c #4C5A7D",
"l  c #555F70",
"z  c #5E6261",
"x  c #5C6068",
"c  c #566070",
"v  c #5B6172",
"b  c #616564",
"n  c #646867",
"m  c #60636C",
"M  c #696E6D",
"N  c #646A75",
"B  c #6B6C74",
"V  c #73757C",
"C  c #2E4281",
"Z  c #2F448D",
"A  c #304585",
"S  c #384B85",
"D  c #384D89",
"F  c #3E5081",
"G  c #3E538E",
"H  c #2E4590",
"J  c #2F4A9E",
"K  c #344C94",
"L  c #334C9C",
"P  c #3D5393",
"I  c #39529B",
"U  c #3552A6",
"Y  c #3953A2",
"T  c #3753AA",
"R  c #3A56AD",
"E  c #3D5AAC",
"W  c #3957B1",
"Q  c #3D5BB3",
"!  c #3E5DB9",
"~  c #425483",
"^  c #4B5B85",
"/  c #44568B",
"(  c #46598C",
")  c #4B5D8A",
"_  c #405694",
"`  c #435A95",
"'  c #485B93",
"]  c #55668F",
"[  c #4D6093",
"{  c #5C6C97",
"}  c #637292",
"|  c #435DA6",
" . c #405CAB",
".. c #415EB3",
"X. c #405FBB",
"o. c #4D64A2",
"O. c #566BA5",
"+. c #5E71A8",
"@. c #4161BE",
"#. c #4965B8",
"$. c #5671BB",
"%. c #5872BC",
"&. c #4565C4",
"*. c #4768C6",
"=. c #496AC7",
"-. c #4567C8",
";. c #4769CA",
":. c #4A6CCD",
">. c #5573CA",
",. c #5D7BCB",
"<. c #4B6ED2",
"1. c #4C70D1",
"2. c #5A7AD3",
"3. c #557ADC",
"4. c #5C7DD8",
"5. c #637FCD",
"6. c #7583A6",
"7. c #7988A8",
"8. c #6981BD",
"9. c #6C85C4",
"0. c #738CCF",
"q. c #6481D1",
"w. c #6B87D7",
"e. c #6C89D6",
"r. c #6A86D8",
"t. c #758ED3",
"y. c #7791D6",
"u. c #7F98D9",
"i. c #7B9BE6",
"p. c #7B9CE9",
"a. c #80889D",
"s. c #838DA7",
"d. c #8B93A5",
"f. c #8992AC",
"g. c #9099A6",
"h. c #939DB6",
"j. c #9BA5BD",
"k. c #A1A3A9",
"l. c #A2A9B2",
"z. c #ACB0BC",
"x. c #8098D8",
"c. c #8DA0CD",
"v. c #9BAEDD",
"b. c #A0ADCF",
"n. c #B2BAC5",
"m. c #A0AFD2",
"M. c #ADB7D0",
"N. c #A8B8DC",
"B. c #8DA7E9",
"V. c #8EA8EA",
"C. c #9EB3E2",
"Z. c #A0B5E5",
"A. c #ADBEE2",
"S. c #BAC5DE",
"D. c #AFC0E4",
"F. c #B3C3E5",
"G. c #BECAE5",
"H. c #C3CAD9",
"J. c #C8D1DE",
"K. c #C2CEE6",
"L. c #D6DEEA",
"P. c #C1D3F1",
"I. c #CEDBF2",
"U. c #D7E1ED",
"Y. c #DAE2EE",
"T. c #DFEBF4",
"R. c #E1EAF5",
/* pixels */
"w z r z z b n r w w b z w w w z b r z w w w r z r w z 0 z b r r b w z z w r z r w w z r z b z w w w ",
"w r w 0 w b z w w z z q 0 r z r b w r r q z q w w w 0 w z w q w w w z r w z w r w w w w r w r r w w ",
"w w w 0 w r w w w z z w z r w r b r w w w w r r z q w w r w z z z z z z w z b z z r w w z z z z r w ",
"w z z w z z z w r z r w w w w r w 0 w w w w z r r 0 r z w w r r b w w w w z z q z r r w z z w w z b ",
"z b w 0 z z w 0 z b w w z z r z w z z w r r z w w r w w w w z z z w w r w z w z b w z w w w q w b z ",
"r z w q b z w w z w q z b w w w w w w z r w w w w w w z r r z b z w z b z w w b w z z w r z b b z z ",
"w r b z z z z z w r z z z w b z w b z z r w z r r q w b w z w q w w z z r 0 w z w r w z n z b z w z ",
"w r z w w r z w w z b w w z r w w z r w w w z w w 0 w w 0 w w z w w q w w w z z r r z b b w r w r z ",
"z b z w r z w w w w r q b w q w z z w w w w w r r w z r b z z b z z z z z r b z w z z z r z b z z q ",
"w w q r w w w w w z b r r w z z w w z z z z z z z r z w z w w z r w z z w z b z z b z w w b z z w z ",
"r w w z w w w r z r w w w z z w z z w z z b w w w w z w w w z r w 0 z b w z z z z z z b b w w z w n ",
"w z b w z w z b z w w z z z r w z b z z z w 0 w 0 w w w r r w w r r w r 0 z w z z q w z z z b z z z ",
"q r w w b q w z w r z b r w z b z r w z z w b z z z z w z b b b b w b z r z w z w q z b r w w w w w ",
"w z w w b q w r r z 0 w r z b w w w w w 0 r z w z w r w b r r z w r b w z r r b z b b z b w b z z n ",
"r b w r w r w z z w r b w z z w z z w z z z w 0 q z w w z w w w w z w r b r q z z z w w z w b z w z ",
"z b w z r w w w w z w w z z w r w w w z r w w w w w w w w w z w w r w z w 0 q b w q 0 r w w w w r w ",
"r w w b z w w b r z w n n z w z w z z z w z z w 0 w z z z z w z w b b r w r w z w w q r q w z w z w ",
"z r z z w w r b q w z b z w a w a a w a a z z z w z w w x p x x p p p x p a x a a z q z 0 b b b w w ",
"z r b w z r r z r z w u g k k k k j f y y y i g g g f f j d y d ~ ( ( / ~ / ~ ~ j u w b q z z w r z ",
"z r z z z z w w q w q j I E E  . .P 2 = 1 Z K I I I I I K 1 $ $ S E Q Q R R T U K g b w w r w w r z ",
"z w z b w b z w r z x ^ R ! @.&.&.I % # C J Q &.&.&.&.&.Q C o   ,  .*.&.@.@.! Q Y h p w z z z z z z ",
"r w w w z z w z 0 r a ~ Q @.&.;.*.P + O C U *.3.3.3.3.3.=.K @   % | :.1.:.:.*.&.R D u z z b w z z w ",
"z w r z r w z r r z a ] %.,.,.q.,.) ; > ' $.e.p.p.p.i.i.e.o., . O o.2.4.2.2.>.>.#./ s w w w z b w q ",
"z w b r w w z r z z n d.N.A.A.D.N.a.9 m f.b.F.P.P.P.P.P.F.h.v X 5 7.C.Z.C.C.v.v.c.6.N w w z b w w w ",
"r w r w r r w z w q M l.L.Y.Y.Y.L.k.e V z.H.L.T.R.R.R.R.L.n.V X 7 l.U.Y.Y.Y.U.L.J.l.V z b b z w z z ",
"z z z r z q w w z w M g.S.G.G.G.S.d.w B h.M.K.I.I.I.I.I.K.j.N X 6 f.F.F.F.F.A.A.m.s.N z z w r w w w ",
"w z z w w w r w r w x } 9.0.t.y.0.{ 6 8 { 8.u.V.V.V.B.B.x.+.t . : O.r.w.w.w.q.5.%.[ c z w z w w w z ",
"w r w z z w z w z z a ) Q @.&.;.*.G + % A T =.3.3.3.3.3.=.K @   % | <.<.<.:.*.&.W D s z r z w w z z ",
"r r w r 0 w z w b w a ^ E ! &.-.*.P % # C L Q *.;.*.*.*.Q C o   &  .*.*.*.@.X.Q Y F p r w z b w z z ",
"z r b z z z b w b z a k Y E ......I < * 1 H L Y Y U U U L - @ o 2 E Q Q W W T T K g a z r b b z z b ",
"z z b w r w w z b r z s ^ ^ ^ ) ^ ~ d 3 3 3 3 f h h F F 4 3 < 3 F ` ` ` _ P P P ~ s r z z r w w z z ",
"z b w z z z w b z b b q x a a a p a a a p a q q x p p p p p s s s s c l s s s s p a w r z w z z z w ",
"w z r b q w w b r z w r z w b b z r z z z w r b r r r b z z z z z w b r b b z z r r w z z w b z z r ",
"q z b w w z b z z w z b z z z r r b b b w b b r z z z z w w b z z w w w z z z b z r r r z z z w z z ",
"z q z z z b z b z z b w z r z b z z z w r z z z b z z z r b z z z z z z b b z w z r z b b z w z b z ",
"r q z z z z r w b z w z z z z w z z z z w w w b b r n w z r 0 r b z b b w w w w r z z w b w w z b w ",
"b z z b z r r r z r b b w w z z b z z z b z r b z w b r r w z b w b b w w z z r r z w r b w r r r z ",
"b w z z w z b w b z r z z w w r w z z b z z b b z w b b z z w w w b r w b z w r z z z z z r z z z z ",
"w w b z z z z w z z z b z w b w z r z b w z z w w w n z w z z z z z w r z b z r z z z z z w w w z z ",
"0 z b w w w w r b z w w z z r w b z b b z r z w z r b z r z w r b z r z z r w z z w z w z z w z b r ",
"q z w w r r b z w z z z z z w z b z z b z z b b b w z z z z z b b z r w z z z z z z r z b w b b r z ",
"w r r w r r z z w z z b z z r z b w r w z w z w z z z w w b w w z w z z z z w z b w z b b w z r z z ",
"w z w r b z r r z b w z w z r b b z z z b z z w w r z r w b w w z z b z w w z b z r z r w r z z z w ",
"z z z z r w r b b w r b b z z b r b z b b b z r z z z b b r z b b z r z w z b z z z z z r w z z z z ",
"z z z w b w w b r z b z b z b b z r z w r b w z b w z b w b n M b r w w z z b z b z z b z r z w w z ",
"z z b b r w w z z z z z z z b b z z b z z z z b z z b z w z b b z z z z z z r w w z w r z z z w z b ",
"b z z z z z z z b z z z z r z b z r w z b b z r z z z b r b z b b z z z z b z w z b r z z b z z b b ",
"w w z b w z n b b z n z z z b n b w z b b b n z z z z r w n z b b z z z b z z z z z z b b w r z z r ",
"z z z b z z b z w z b b w b z b z z b b z z z w r z b z r z z z b r b r b w z z w r b b r z b b z b ",
"r n w z w z r r r z z b w z b b w b b z z r b z w b b z w b b r b w b r z z w w z w z z z r z b z z "
};
