/* XPM */
static char *aec1ac0fe7ec43e38c764865cff5e3b9[] = {
/* columns rows colors chars-per-pixel */
"50 50 169 2 ",
"   c #2F2E33",
".  c #333338",
"X  c #3B3B3D",
"o  c #2C334C",
"O  c #343B4D",
"+  c #383C4B",
"@  c #2A3454",
"#  c #2F3852",
"$  c #2F395D",
"%  c #343C54",
"&  c #353F5D",
"*  c #2C3B65",
"=  c #323F6A",
"-  c #2C3E77",
";  c #3D404A",
":  c #3A4050",
">  c #3E4558",
",  c #384161",
"<  c #38456B",
"1  c #2C407C",
"2  c #354575",
"3  c #3D4B72",
"4  c #3C4F7F",
"5  c #434650",
"6  c #464851",
"7  c #4C4D51",
"8  c #4B4F5F",
"9  c #515155",
"0  c #545857",
"q  c #565A5A",
"w  c #5A5E5D",
"e  c #615E5F",
"r  c #5C605F",
"t  c #404865",
"y  c #444F6C",
"u  c #4E5664",
"i  c #45516E",
"p  c #565C64",
"a  c #5A5E62",
"s  c #535B6B",
"d  c #424E72",
"f  c #455374",
"g  c #495574",
"h  c #44537B",
"j  c #495778",
"k  c #4C5A7D",
"l  c #555F70",
"z  c #5E6261",
"x  c #5C6068",
"c  c #566070",
"v  c #5B6172",
"b  c #616564",
"n  c #646867",
"m  c #60636C",
"M  c #666A6A",
"N  c #696E6D",
"B  c #646A75",
"V  c #6B6C74",
"C  c #73757C",
"Z  c #2E4281",
"A  c #2F448D",
"S  c #304585",
"D  c #384B85",
"F  c #384D89",
"G  c #3E5081",
"H  c #3E538E",
"J  c #2E4590",
"K  c #2F4A9E",
"L  c #344C94",
"P  c #334C9C",
"I  c #3D5393",
"U  c #39529B",
"Y  c #3552A6",
"T  c #3953A2",
"R  c #3753AA",
"E  c #3A56AD",
"W  c #3D5AAC",
"Q  c #3957B1",
"!  c #3D5BB3",
"~  c #3E5DB9",
"^  c #425483",
"/  c #4B5B85",
"(  c #44568B",
")  c #46598C",
"_  c #4B5D8A",
"`  c #405694",
"'  c #435A95",
"]  c #485B93",
"[  c #55668F",
"{  c #4D6093",
"}  c #5C6C97",
"|  c #637292",
" . c #435DA6",
".. c #405CAB",
"X. c #415EB3",
"o. c #405FBB",
"O. c #4D64A2",
"+. c #566BA5",
"@. c #5E71A8",
"#. c #4161BE",
"$. c #4965B8",
"%. c #5671BB",
"&. c #5872BC",
"*. c #4565C4",
"=. c #4768C6",
"-. c #496AC7",
";. c #4567C8",
":. c #4769CA",
">. c #4A6CCD",
",. c #5573CA",
"<. c #5D7BCB",
"1. c #4B6ED2",
"2. c #4C70D1",
"3. c #5A7AD3",
"4. c #557ADC",
"5. c #5C7DD8",
"6. c #637FCD",
"7. c #7583A6",
"8. c #7988A8",
"9. c #6981BD",
"0. c #6C85C4",
"q. c #738CCF",
"w. c #6481D1",
"e. c #6B87D7",
"r. c #6C89D6",
"t. c #6A86D8",
"y. c #758ED3",
"u. c #7791D6",
"i. c #7F98D9",
"p. c #7B9BE6",
"a. c #7B9CE9",
"s. c #80889D",
"d. c #838DA7",
"f. c #8B93A5",
"g. c #8992AC",
"h. c #9099A6",
"j. c #939DB6",
"k. c #9BA5BD",
"l. c #A1A3A9",
"z. c #A2A9B2",
"x. c #ACB0BC",
"c. c #8098D8",
"v. c #8DA0CD",
"b. c #9BAEDD",
"n. c #A0ADCF",
"m. c #B2BAC5",
"M. c #A0AFD2",
"N. c #ADB7D0",
"B. c #A8B8DC",
"V. c #8DA7E9",
"C. c #8EA8EA",
"Z. c #9EB3E2",
"A. c #A0B5E5",
"S. c #ADBEE2",
"D. c #BAC5DE",
"F. c #AFC0E4",
"G. c #B3C3E5",
"H. c #BECAE5",
"J. c #C3CAD9",
"K. c #C8D1DE",
"L. c #C2CEE6",
"P. c #D6DEEA",
"I. c #C1D3F1",
"U. c #CEDBF2",
"Y. c #CEDCF3",
"T. c #D7E1ED",
"R. c #DAE2EE",
"E. c #DFEBF4",
"W. c #E1EAF5",
/* pixels */
"r z w b z z z w w q q w n n r z q w z z z r w w z r z z r z z z z r z r w q w r w z w w r z w w w w ",
"n z w z z z z z r z z w w z q q z z n z r r r z z w w w w w r r r w n n z r z w w n r r z b z w r z ",
"w z z z b z z w r w n b z z z z b r w b b w w z z r b r w z z b z w w w w w b w q z z b w w z w w r ",
"z n b z n w z r w w w z z n z z w n z w z r z w r w r z w b z w z b z r w w w z r w w z q q w 0 q z ",
"w z w z r b r n r r w z w z z z w q z r z q z w z r w r z w z z w z r w b b z w w r w z b z z w w z ",
"z z z z w w w z r r w z z r z n z w z w z w w w q r w w z n z r w w w r q q w w w z r z z z z r n b ",
"r b M z w w r r z n w z b r r z b w w w b z z r w w z z w z w r r w w w w w z w w w z z w w z w z n ",
"r z n z z b n r z z r w w r w n z b b z w w w w w z r r z w w z n b w z r z n r w w w z w q w w w r ",
"r w b n z r n z w w n z b z b z z r z b n b z r z w z r q r q r q r w z r w z z w w w w z z r w w w ",
"z z z z z z w b z z z z z r z z w z b r z w z w w q z z r z w z w z z w z r w r z w z r w n z z z w ",
"z n n z z b r w z z w z r b w n z w b z a a a x N N M a a x q w z w w r q z w w b r b z q w r z z b ",
"n n z z z z n z n z w n z n z w n r q s k / _ | h.z.f.[ ^ / j u n n w n w b z w r q w z z w w w q z ",
"w w z z z n b w z z z z z w z z z z x / T W Q 0.D.P.B.&.Q E U g z M z w r r z w r n w z n z w z q w ",
"z n z r z z z z z z z w w w z r z w a / W ~ #.q.H.R.S.<.#.~ W k w z z z z w z z w w z w w z w r r w ",
"b z b z z b z r r w r b w z z z z n a _ X.*.*.y.H.R.S.<.*.#.W k a w w z b z r z z q r b w r w w z w ",
"n n n n z n n b z z w w r z w b r n a _ X.;.:.u.H.R.F.w.:.*...k w z r w w b w w z w w z w z r r r z ",
"w z n z z z r n b b n z w n z z r z p / X.*.*.q.D.P.B.<.*.*...k a w w z w z z z w z w w w w w b b n ",
"n z w r z r b z w z z r z z z z n r a ^ U I H } f.l.s._ I U U j a z w z w r b z w z z b w z q r w r ",
"n b z w b z z z r z b z z z z z b z a d < % + 6 q e 9 ; + % 2 f w z w w w w z w z w r z w z w w r z ",
"z n n z z w b z w b b b n z z w n z a 3 * # % 8 V C m > O # = y a z z z w z z z z w w z z w w w r w ",
"z z b n z r b b z z z w z b w r w z p 3 1 Z S } j.x.g.] Z Z 1 y a w r z q z z z z w w r r r w w q w ",
"r z b b z n b z w z r z z z w z n w a 3 J P Y 9.N.J.n.%.Y K A y z z w z r w w b z w w w w r w w z w ",
"b z n z z w z z z b z z b r w z n r q 3 P ! =.i.L.P.G.r.=.Q L i z z w w z b q w z w z z w z z r q r ",
"z w r w n z r w w b w w n n n z r b q f T =.4.C.U.E.I.a.4.*.U g z w w q w z w w z r w r w w r r w z ",
"w r z z z b z w z n z w z z b b z r x h T :.4.C.Y.W.I.a.4.*.U g w q w q z z q w z r w r w w r z w r ",
"b z z z z w z r z w r w w w r z z r p h Y =.4.C.U.W.I.a.4.*.U g z w w z w z w w r w q q w r q q w w ",
"n n z z b z z z z z n M n n n z z r p G Y =.4.V.U.W.I.p.4.*.U f w z w w r z w z z z w w w w r w q z ",
"z z r n z n b r w z z z n r w z z n p G Y =.4.V.U.W.I.p.4.*.U f w z w w w w w w w r w b z w z w w q ",
"w r w r w w n w w z r w z r z r w z p 4 P ! -.c.L.P.G.r.=.Q L j x z w z b z r w z n q w r w w r z z ",
"b z n b z b r n b z z z z w r n w z p 3 - Z L @.k.m.j.O.L Z 1 d p z w w r n r w w z w z r w w w w b ",
"n z z z n M z w w z w z w z q z b z s < @ o @ t B C v , @ o $ y x w z w r b w z w z w w z z r z q r ",
"r z b b n N n w w b r z w n r z z z s 3 o     . X X X .     $ d x z w w z b w r z b z q b z r z w r ",
"n b n n z b b z z n b z w w b z z z s G 2 & % : 6 7 5 O % , D ^ p w w w w n r w r z w w z z b z w b ",
"w r z z z r z z w z z z n b z z w w s ' W .. .+.g.z.8.O. ...W ) p b r z r w r q w z w w w w w z w w ",
"n n z z z w r b z r r w r n n z w n c ' ! *.1.t.G.T.Z.3.>.*.! ) p b w w b b w z z z q z z w w z z z ",
"r r z z z w z z z w z r w w n z w r l ' ! *.1.e.G.R.A.5.2.*.Q ( x r z r w z r b z z w z n r w z r z ",
"z n n z z z w w z z z z n w w n z b s ` Q *.1.e.G.R.Z.3.>.#.E ^ p w w n z r q w w z w r z w w w w w ",
"z w z n z z z w z z r n z z w n z n s I Q #.:.e.G.R.Z.3.:.#.E ( a r q r r z z z z r w q w z z z z r ",
"w z z z r n b z w z w z w z w z z z s I R o.*.w.S.T.b.,.*.~ Y ^ x w q q r w w z n b z w w w z b w z ",
"w z z w w z z b z z z r r r w w n z s I Y ! *.6.S.P.b.,.*.! Y ^ a z b z n z z z z z z z b z q z r r ",
"z w z z w n z z b z z z z r r z z r p ^ L T Q &.M.K.v.$.E T L j a w w z z w z z z w r w w n z z w w ",
"w r z n z z z r w z w z z z z r r r a s g G F { d.z.7.( F h g u z w q z n q q z n z r r z w r r w w ",
"z b z r w z z z z r z z z w z z r w w r a p s c B C B s u p n w q q q w n z w z z z z w z z r w w z ",
"z b b z r n z r n z w z z r w n r z r z z r z z z z w w z w w n z r r w z n z b w z n z w w w w w r ",
"z r n z z z r w b n z z z b b b z z z z r w r w z b w w z z w q q q w z n r z n w r b n r w z z r z ",
"r z w n z r w r w w z w r w w z z w w r b z z z w n z w b z r z b w w w w w z w n z w z z w z z w b ",
"z b r z z z z z z b w w z r w w z b z w b b w w r z n z w z w z b z w b b w n w z n r b n q w z r z ",
"n n z z w w z z r n z w z r z z w z z w z w w w w w w n z z w w b w w z z w z z z z w z b w w z r w ",
"z z z b z w z z z r n z z r n n z z z z z z z w w z w w z z r r w z r w z w z w w z r w z n z r w w ",
"z n r n n z z w z z r z z z w z z r w z n z z z w z w q w z z z w w w z n w z n z q z z z z b w w w "
};
