/* XPM */
static char *_3d213921aae4f819e7a1950e78d8e5d[] = {
/* columns rows colors chars-per-pixel */
"50 50 184 2 ",
"   c #2B2A2F",
".  c #2C2C34",
"X  c #2F3036",
"o  c #363539",
"O  c #3A3A3C",
"+  c #272F4B",
"@  c #27304F",
"#  c #2C354F",
"$  c #363B49",
"%  c #343A4D",
"&  c #252F54",
"*  c #263156",
"=  c #2A3453",
"-  c #2F3851",
";  c #2A355D",
":  c #303751",
">  c #333B54",
",  c #313A5B",
"<  c #263767",
"1  c #293560",
"2  c #2D3C6E",
"3  c #333E64",
"4  c #263A7B",
"5  c #3B4359",
"6  c #3A456B",
"7  c #2E417B",
"8  c #344476",
"9  c #384773",
"0  c #3C4B74",
"q  c #3E4E7A",
"w  c #41444F",
"e  c #46484F",
"r  c #494A51",
"t  c #525455",
"y  c #545857",
"u  c #565B5A",
"i  c #5A5E5D",
"p  c #615E5F",
"a  c #5C605F",
"s  c #494D60",
"d  c #414D6D",
"f  c #4C5565",
"g  c #4F576B",
"h  c #4F586D",
"j  c #555C64",
"k  c #595E62",
"l  c #535C6C",
"z  c #414E71",
"x  c #465375",
"c  c #45547B",
"v  c #49587E",
"b  c #555F72",
"n  c #5E6261",
"m  c #5B6069",
"M  c #5C6275",
"N  c #616564",
"B  c #646867",
"V  c #60636D",
"C  c #666A6A",
"Z  c #696E6E",
"A  c #656B76",
"S  c #676B77",
"D  c #74767D",
"F  c #253C83",
"G  c #283D84",
"H  c #273F88",
"J  c #283F91",
"K  c #2A4187",
"L  c #314587",
"P  c #3A4E84",
"I  c #344A8C",
"U  c #3E5082",
"Y  c #3E528A",
"T  c #2A4497",
"R  c #2D4796",
"E  c #2D499C",
"W  c #304A97",
"Q  c #394F94",
"!  c #344D9D",
"~  c #3B5194",
"^  c #3C5499",
"/  c #2745A3",
"(  c #2A47A3",
")  c #2E4EAC",
"_  c #324EA4",
"`  c #314FAB",
"'  c #3551A3",
"]  c #3755AF",
"[  c #3D5AAC",
"{  c #304FB2",
"}  c #3454B5",
"|  c #3957B1",
" . c #3B59B3",
".. c #3656B9",
"X. c #3759BB",
"o. c #395ABB",
"O. c #415384",
"+. c #4A5A83",
"@. c #485A87",
"#. c #41558D",
"$. c #47598B",
"%. c #415895",
"&. c #455994",
"*. c #4B5E95",
"=. c #586997",
"-. c #627295",
";. c #4A62A6",
":. c #546AA9",
">. c #5C70AC",
",. c #4462BD",
"<. c #526EBD",
"1. c #3558C0",
"2. c #3B5DC4",
"3. c #3E61C6",
"4. c #3E62C9",
"5. c #4165CB",
"6. c #4669CC",
"7. c #4F6FCD",
"8. c #5570C2",
"9. c #5877CE",
"0. c #5C7ACF",
"q. c #4266D0",
"w. c #466BD5",
"e. c #476CD8",
"r. c #4F75DF",
"t. c #5474D3",
"y. c #5D7DD4",
"u. c #5177DF",
"i. c #5479DB",
"p. c #587BDD",
"a. c #607DD2",
"s. c #4F76E1",
"d. c #5077E0",
"f. c #5179E2",
"g. c #7786AA",
"h. c #6880C1",
"j. c #6B84C8",
"k. c #6582D7",
"l. c #6986DD",
"z. c #6B89DA",
"x. c #728CD4",
"c. c #7690DA",
"v. c #7F98DD",
"b. c #6B88E0",
"n. c #799AEC",
"m. c #828CA5",
"M. c #8F95A5",
"N. c #8993AB",
"B. c #919AA8",
"V. c #8A93B1",
"C. c #949EB9",
"Z. c #A2A4AB",
"A. c #A3AAB4",
"S. c #ADB1BE",
"D. c #9CA6C0",
"F. c #8DA0D1",
"G. c #9AADDF",
"H. c #B3BBC7",
"J. c #A1AED2",
"K. c #A8B4D4",
"L. c #A7B7DD",
"P. c #8CA7ED",
"I. c #8DA8EE",
"U. c #9CAFE0",
"Y. c #9EB3E5",
"T. c #ADBDE4",
"R. c #A0B5E8",
"E. c #B9C4DE",
"W. c #AFC0E4",
"Q. c #B2C3E7",
"!. c #BCC7E1",
"~. c #BFCBE6",
"^. c #B4C4E9",
"/. c #C4CBDB",
"(. c #C3CEE7",
"). c #C9D2E0",
"_. c #D7DFEA",
"`. c #C2D3F3",
"'. c #CFDCF4",
"]. c #D0DBF5",
"[. c #D7E1ED",
"{. c #DAE3EE",
"}. c #DAE4F0",
"|. c #E2EAF5",
/* pixels */
"i i i N n n n n u n B n i B n i i i n n n u u i n i n n n N n i a n n i n n n a n n i n n N N a N n ",
"i i a n N n i a n u i n i n i a n i a a n n i i n u i n n n n n n n N N a n n N a n n n i n N n n n ",
"i a n i i N n i n n n n u n n u i N i i n n N i i i i i i n i n n i n n a n i n N a n n u i n n N N ",
"n a n i u N N a N n i N i N N i n N n i n i n N n a i i N N i n N n i i a n i u N n n n n n n a N n ",
"N i n n i n n i n N i n i i i u i N n a n N i n N i n n n N a i i n n i i a u n i i a i a n N u n a ",
"n a n n i a B N a i N n a N n i u u u i n n i i N n i a i a n n n n N N N n n n N N i a n n n N a n ",
"a i i i i i n N n i N n N n i a a n N i i n i i n n n n a n n a n a N u a n n i n N a n N a n N N n ",
"n i i a n n i n n n n u n N i u u u i N j f l A D A b g j k a i i a n n i n n n a n n n n i a n N n ",
"i i a a i n a a n N n u u N n u i n f x U I ~ g.A.m.*.I P x g k a a a n n n n i n i a n n n N n a i ",
"i i n n N i i a i n n n i n n i u k c W _ } ,.F.).J.8.} ` W P l a n n a a n n n n N n n N i n n i n ",
"a a n u n N n n n n n n n N n N n j Y ) ..3.7.G.[.T.a.2.X.) Q h n N i i a a a n n n N n n i i n n i ",
"n i N n i i u n N N n i i a u u i m Y ` o.5.t.U.[.W.k.5.2.{ ~ h n n n i n i n u n i n N N a n n n i ",
"a n n n n i y i a n n n n a a u a j #.} 2.5.t.Y.{.Q.k.q.2.} ~ l N n N i n n N a n n i n n n N n i n ",
"u i i i i n a u n i i u a n N u i j Y } 3.w.i.Y.{.^.l.w.4.} ^ l N n N i i N n n n n i i n n n N N n ",
"n a n i a N n i n n N a n i a n a m #.} 4.e.p.R.}.^.b.e.5...^ b a i n N i u a n i n n n i n n n a a ",
"n n n i i n n u n n n i N N i i N j #.X.4.w.i.Y.{.^.l.w.5.X.%.b N i n N N a i a a n N a i n n n N N ",
"i i n i u i i i n i u a i a n a N j &.}  .[ ;.g.A.N.:.[ [ | ^ l i i n n N N n n n i n n a n n n a i ",
"N i n N n n i i n a i a N i i i i j O.L 3 > % w r e > > , 7 P l n n n N i i n N N n n N N n N N N N ",
"a i n a n N u n N n a i N n i i n m 0 ; .   . o O O X     @ 9 l n n n a N i n a N i i N Z N N N n a ",
"a u n a n n u u n i n i N a i n i m z 1 + & 3 M D A 6 * + * 6 l n N n u n i n i n i i n B N n n n N ",
"N i i u i a n i n i i a N a u i n j 0 4 G R ;.C.H.D.>.R K 4 8 j n i N a i n n n n N N a N n N B n N ",
"n n a i i a i u N n i a n N n i n m c E } 5.z.^._.(.v.6.X.( P l n i a n a n i a n i i N i i a i a i ",
"y i i n i n N i a i i u u i i i n i c _ 4.r.n.`.|.'.P.u.5.) P j N n n i a N n n n i a N N n N a n n ",
"n u u a i i u i n n n i n a i u n i x _ 4.d.n.`.|.'.P.u.5.) P j a n n B N N B N n n n n n N n n N N ",
"u i u u a i u u i a i i n u n i i n x ' 4.f.n.`.|.].I.f.5.) U j a n n a i i i a i n a n i n n n n N ",
"a i n a u u a i a n i u n n u i y i x _ 4.f.n.`.|.'.I.f.5.` q m a n N N n n i n N n i n N n n n a i ",
"n i a a i i a i a n i i n i u i i n x ! 3.s.n.`.|.'.I.f.5._ q u N a n N N N i i N i i a n N a n i n ",
"a u a n n i n n u n i u N n i i n n z E ..5.z.^._.(.v.5.X.E 0 u a N n i a N n n N n n n i n n B n N ",
"i n i i a u u i i n N u u a n u n n d J / ) <.J./.K.h.) ( T 0 j u N n i n n n a n i n N N n N N n a ",
"i u i i a a a i i n n n n u n a i k d F F H &.V.S.C.=.K G F 9 j n i a i N n i n n n N N a n N N n n ",
"i a i i i n n i i n n n n i n n n k d 2 = # 5 V D A s : = < 9 k n N i n n N N N N i n N i n n N N n ",
"n a i i n i n a i n i n i u i i n i x 8 , % $ t p u e $ - 2 0 k n N n n n n n N n a n n n N i n N N ",
"a u a u n i N n n i n N a i n i n k c ! ! Q *.m.Z.M.=.~ ^ ! O.j a N n n n n a n n i n N a n a i n N ",
"N N N i i i i i n i n n n i n i i k +.| 3.5.0.T._.!.x.5.5.X.$.j n a n n N i n N N N N a n n n N n i ",
"n a a a n i n u i n i i N u i a n i v  .4.q.y.Q.{.(.c.q.4.o.$.k N a N i n a i i n n N N N N N B N N ",
"i n u i a u N a u n n a n N n i i k +.| 2.4.y.T.{.~.x.4.2. .$.j N n n n n i N a i a a n N N n N n N ",
"i a a u n u i n i i n n i n n n n i +.] 1.2.9.T.{.~.x.2.o.| $.k u n a n i i i n n n n n n n a n N n ",
"u u n i n N n i N a i n a a u n B n x ' } } 8.L._.E.j.} ] ' +.m n n n n i n n n n n i N N n n n i i ",
"n u i i u n n i u a u n N i N i B N f c @.O.=.N.A.B.-.$.@.+.h u a N i n N n N i n N n N n n n n N N ",
"N n n a u u n N a N i i n u a i i n i u m k k C Z Z m k k k n N i n N i N a n i n n i a N n n B N n ",
"i n n n N u a n i n a u a n i n n i n i n a n n u u u n i n a N n i n n a n n n n n N i n n n n n n ",
"i i i a n n u u u u n n i a n u a u a u a u a n i n a n N N N n a n n N n N n N i i n N a n N N i a ",
"a i i i u i n u i i a N n a n i N N n i i n a a n i i i i i n N N n N i a i i a n n a N N n n N n a ",
"B n i n i i n n i i u n i i i i i a a i n i n n i u a n n N i i i N n a a N n u N n a a i i n B N a ",
"N N a n n n n a n i i i u u a i u i a n N n i i a u i u i n u n i n N n a n n i a a n i i u n n n n ",
"n i i n n N n i a u i n N N i a n u n n i n a i a n i n u n a n u i n n n i n i a a N a N a n i n u ",
"n y y i u u n i i a n i i i a n N n i n N i n a u a i n a n i n N i n n N n n i u i a n i N n N N n ",
"a i i n i i N n n u i N i u i i i n N n n i a N a n n i i N N i a N n n n n N N i a i n n N n n n i ",
"n a i n N n a a N i u n a n N N i a a a i u i i i n n a a a n N n n u u n i i n n a n n n n n i n B ",
"i i i i n a i i n i a i u i a n a n n n n a n n a n i i a n n n i u n a N N i u u i i n n n N i n a "
};
