/* XPM */
static char *d95d4d369e2845c7add4e9a6ab07b7636CwwfjL2jOBD63U4[] = {
/* columns rows colors chars-per-pixel */
"50 50 233 2 ",
"   c #0C0D08",
".  c #191716",
"X  c #282725",
"o  c #34312F",
"O  c #383634",
"+  c #3A3936",
"@  c #3C3C3B",
"#  c #363735",
"$  c #262D3F",
"%  c #413D3A",
"&  c #3B443E",
"*  c #42423E",
"=  c #494834",
"-  c #54533F",
";  c #1C1E4F",
":  c #1D1E59",
">  c #221E51",
",  c #211E49",
"<  c #1E224F",
"1  c #1E2552",
"2  c #2E234E",
"3  c #383749",
"4  c #21245C",
"5  c #292855",
"6  c #393B53",
"7  c #302C47",
"8  c #0E136E",
"9  c #151B64",
"0  c #14146C",
"q  c #1A1A6B",
"w  c #171968",
"e  c #131372",
"r  c #171B73",
"t  c #19197A",
"y  c #130C76",
"u  c #232366",
"i  c #403C55",
"p  c #3C4443",
"a  c #3E424B",
"s  c #3B4543",
"d  c #3D425B",
"f  c #434342",
"g  c #444A45",
"h  c #41454A",
"j  c #444C49",
"k  c #4A4B4A",
"l  c #494A44",
"z  c #4D5149",
"x  c #585D4E",
"c  c #53594D",
"v  c #424657",
"b  c #484654",
"n  c #4E5656",
"m  c #535554",
"M  c #555A55",
"N  c #5A5D55",
"B  c #575B5A",
"V  c #5A5E5D",
"C  c #56565C",
"Z  c #524C50",
"A  c #635E5C",
"S  c #59604D",
"D  c #5B6155",
"F  c #5C605E",
"G  c #616956",
"H  c #61645D",
"J  c #626655",
"K  c #636647",
"L  c #475D6B",
"P  c #5C5D63",
"I  c #5D5D6B",
"U  c #565A69",
"Y  c #454B7D",
"T  c #4D5B7A",
"R  c #485976",
"E  c #5C5E72",
"W  c #575777",
"Q  c #5C4A7A",
"!  c #615F6A",
"~  c #615F62",
"^  c #60597B",
"/  c #5E6261",
"(  c #5D636D",
")  c #566666",
"_  c #516274",
"`  c #576777",
"'  c #4D6179",
"]  c #616564",
"[  c #646867",
"{  c #63646A",
"}  c #656969",
"|  c #6B6C6B",
" . c #686A65",
".. c #6C706F",
"X. c #646471",
"o. c #666374",
"O. c #7E7D7B",
"+. c #777675",
"@. c #83807F",
"#. c #929876",
"$. c #0F1084",
"%. c #1A1783",
"&. c #0F0E91",
"*. c #393C9B",
"=. c #0A06A9",
"-. c #0402B5",
";. c #0B05B5",
":. c #0500BA",
">. c #0B05BD",
",. c #050AB8",
"<. c #1D1DBB",
"1. c #1E1DB6",
"2. c #1212A7",
"3. c #1A22B3",
"4. c #363BA7",
"5. c #2423BD",
"6. c #283AB9",
"7. c #3C39BA",
"8. c #393CB4",
"9. c #3B528E",
"0. c #3C4A98",
"q. c #395092",
"w. c #34478E",
"e. c #3545AC",
"r. c #3C4AAF",
"t. c #374AA7",
"y. c #3D52A5",
"u. c #3340B3",
"i. c #3945B9",
"p. c #2346BE",
"a. c #465B85",
"s. c #43538E",
"d. c #4A5589",
"f. c #4B5885",
"g. c #474A99",
"h. c #435599",
"j. c #515495",
"k. c #505686",
"l. c #546083",
"z. c #556B90",
"x. c #797B80",
"c. c #4249B2",
"v. c #5255B2",
"b. c #484EA4",
"n. c #0502C2",
"m. c #0B03C2",
"M. c #0403CA",
"N. c #0D02CC",
"B. c #1005CE",
"V. c #1919C6",
"C. c #0600D0",
"Z. c #0A02D4",
"A. c #0303DD",
"S. c #0A04DB",
"D. c #050DDE",
"F. c #0210DB",
"G. c #1812D6",
"H. c #221BC5",
"J. c #2118D7",
"K. c #1829D7",
"L. c #1937D5",
"P. c #0E26DE",
"I. c #263CC7",
"U. c #2334D4",
"Y. c #2238D1",
"T. c #2438DA",
"R. c #2932CC",
"E. c #0201E4",
"W. c #0102EB",
"Q. c #0A00EB",
"!. c #070AE9",
"~. c #0914ED",
"^. c #0C1DEE",
"/. c #0814E9",
"(. c #0201F3",
"). c #0309F0",
"_. c #0402FB",
"`. c #0809F7",
"'. c #0C1DF4",
"]. c #0A13FC",
"[. c #0C1DFB",
"{. c #0914F6",
"}. c #1117F8",
"|. c #0B25ED",
" X c #0B2BEC",
".X c #0B2BE6",
"XX c #1227EC",
"oX c #162AE5",
"OX c #0B34EB",
"+X c #1933E8",
"@X c #0B24F2",
"#X c #022BF3",
"$X c #0425FE",
"%X c #0C25FC",
"&X c #0D29FE",
"*X c #0729F5",
"=X c #1124F4",
"-X c #132BF4",
";X c #1B29F5",
":X c #1225FD",
">X c #112BFD",
",X c #1A2DFB",
"<X c #1E25FF",
"1X c #0B31F6",
"2X c #0F34FE",
"3X c #1330FF",
"4X c #202EE6",
"5X c #2534E4",
"6X c #2030FF",
"7X c #1A43C1",
"8X c #3346C9",
"9X c #2E41C4",
"0X c #5755C0",
"qX c #788083",
"wX c #898582",
"eX c #8B8A85",
"rX c #8D8B8B",
"tX c #89868F",
"yX c #928D8A",
"uX c #8F9088",
"iX c #95928F",
"pX c #8D9297",
"aX c #979497",
"sX c #8F8993",
"dX c #A39E9C",
"fX c #A6A19E",
"gX c #A8A39F",
"hX c #ABA6A3",
"jX c #ACA9A6",
"kX c #ABA9A7",
"lX c #BFBBBA",
"zX c #DFDEDC",
"xX c #E7E2DF",
/* pixels */
"V B V ] / / / / V B } / F ] V F B V / / F B B B / / / / ] / / F / V / F / / B ] / / F F ] [ ] / ] ] ",
"F V F / / F / V F B / F V ] V V V V V F / / / V F V V V F / / / / / } ] V ] ] ] ] / / V F / / / / / ",
"V V F / V / / V ] F / F V / / V / / V F / / / F F V B V F / / / ] F B / / / B ] ] ] / F V F / / ] ] ",
"F F / F V / ] V ] ] F / F F ] V / / ] / V V / / / F V F / / / V V / ] / F ] V B / / / / / / / F ] ] ",
"/ / / F V / / V / / F / V V / B V V / / F V / / / / / / / / / V ] B / ] m m ] / / F V F / / / F F V ",
"/ V F F V / ] / V V / / F / / V V V V F / / F V / / / F / / / / / ] V ] | [ F / ] / F / / / / / / / ",
"V B V F F / ] ] / V ] / / ] F V F V V F / / V B F / / / / / / / V } g @ f V / / ] ] / / / / / ] ] ] ",
"/ V V / V V V F ] B ] V F [ B B B V / / / F / / V / ] ] ] / F F / f k +.f k V / F F / / / V F / / / ",
"V V V / / / F / / ] / B B / / B V / F ] / V / V V V V V V ] ] / k * yXhXyXl g V ] V F / B ] ] / V V ",
"/ F F / / V V F V / / V F ] ] / F / F / / / / V ] / V F ] [ V k @ iXhXjXjX+.+ ] V ] ] / ..B V / / / ",
"F F F / F V F / / / / / / / / / / ] V / / / / B / / / / ] ] m & rXhXfXhXwXO X O + k m V / / [ V F F ",
"V F / / V V V / ] ] / / F V V B V / V F / / / B B V / / ] F m @ @.iXdXeXo + O.lXkX] @ B ] B V [ V V ",
"/ / / / V V B B V / / V V / F B V / V F F F / V / V V F [ [ B f Z wX@.X f dXjXxXzXkXO.* m ] [ V / / ",
"V F / / F F V B V / / V V ] / B V / V F F V / / F V F / [ } [ B % f + . O.jXfXhXhXjXkX .@ V } / / / ",
"V V V V / / / V / / / F / / / V / F V / / V / / B V ] ] V F ] [ N X . @ O.aXjXgXhXhXfXrX# F [ / / / ",
"] ] / V / / F B ] / F / / / F / ] / B / ] F / / / V V V B M B B O f f   B iXiXfXfXfXiXeX@ B V { ] ] ",
"V V ] V B / F V / V B V F V V / K ] F / / G m { ( z 6 5 9 w ; 2 f } ] o . V rX#.yXyXyXwX+ V ] / V V ",
"/ V / / F / V V / V B V / V V V E I P F F / P B * u =.C.Z.Z.N.2.g./ } tX= . ^ rXyXyXyXA @ [ ] ] ] ] ",
"/ B F ] / / V / ] / F / ] / F F F / I H x P F g 0 >.V.4.b.0.V.E.B.b.qXeXsXZ . ~ iXwX] @ V ] } / / / ",
"/ B V / / / V V / V V F / F V B / D N H H V v : ,.<.Y P g.V.E.(.(.S.v.pXaXsX-   X k # B | } B ] ] ] ",
"] F / V V / V B / V V F / / V V ( B F ! F h %.:.H.d.d.5.A.`.].)./.(.S.0XpXuXx.O X k ] B ] V B } / / ",
"/ V / V B / / B ] / V F / / / F D / X.U a 0 :.5.Q w.K.*X X:X:X&X'./.(.!.v.x. .B # M F [ V ] / V V V ",
"V B F V V / / F F V B B V V B B H H D 6 t :.H.s.7.K.#X#X-XU.6.6.,X=X'.W.S.*.n O k V / ] } m } F / / ",
"V M V / V V B V ] / / F / / V V I B a 0 m.<.h.u.OX&X&X;Xi._ ( E p.=X[.A._.G.u l ] / / / V } V / ] ] ",
"B B B B V V V B N I E N x I ( N M a r C.<.9.T..X@X>X.Xu.o.r.I.a.W U.$X(.Q.S.&.a / / V F F F / ] / / ",
"/ F V V V V V B F D B V H N m D i 8 n.H.t.Y.@X:X2XoXt.a./ s.U.8.( T.$X).(.E.=.3 / F F / ] / / F V V ",
"/ / F V V V F / / F D N / ] m a e N.3.q.+X6X:X&X&X*.E u.e.) Y d.s.+X|.W.W.W.M.7 ] / V F / / / / F F ",
"V F F V V V / / P P H N P / d y C.1.9X&X1X=X,X Xe.X.g.q.8X8./ L L.-X^.W.E.W.>.7 ] / V V F / ] ] ] ] ",
"V F / F V V V V V ] V P N s e N.J.Y.|.:X:X XP.e.j.R ) _ i.g.g.5X&X%X~.W._.A.$.b F F / ] ] / / ] / / ",
"V V V V V V V V P J H B s e m.J.R.XXOX X-X;Xy.L c.6.` U W ` T.$X>X{.W.E._.:.< C F / / ] / / / ] F F ",
"V V V V F / / / / F B 6 e N.}.K.^.oX:XOX{.R.( d.g.e.7.W ' U.oX#X-X).W.A.>.t a H / / / / F F / ] ] ] ",
"/ / V V V F F V B P 6 0 N.!./.].:X3X*XoX8X0.T X._ u.R c.L..X:X&X'.E.(.Z.8 6 X.G / / / ] ] / F V ] ] ",
"/ D D C I / F / A @ 0 A.W.E.`.^.1X.X;Xr.o.I l.L F ) a.5X%X X-X=X).(.n.0 & J ] F F / / / / / F V ] ] ",
"P F ] / / N F P 3 %.M.(.W.W.].XX[.>Xr.C 0.d.l.6.b.q.5X-X X&X%XF.(.-.t 6 B ] V [ ] ] ] ] ] ] ] / V V ",
"/ F / / F x F v e C._._.E.A.{.:XoXi.y.L k.T 9.<X4X+X=X|. X:X]._.:.r s x { { V / ] ] ] ] ] ] ] ] ] ] ",
"/ B B P F D P 5 ,.W.(.W.E.W.[.+Xg.f.I.i.~ I I.$X X>XOX-X&X~.W.n.w d D F P F F F F F / / / / / ] / / ",
"N F / P V F I > M.(.(.W.W._.:X7XP h.0.j.j.) y.OX1X1X&X%X^.(.n.w h B { ! P N F / F V F / / / F / ] ] ",
"B N F P / ] U , M.W.(.(.W.`.:XL.z.) W ( f.e.L.%X&X X[.{.A.n.t a F { P V H / / F ] / / ] ] / F / V V ",
"( M D V P ] P 3 2.S.W.W.W.D.@X-X+X8.7.L h.,X$X;X@X'.}.`.n.q a c / } F D H { { B ] / / ] ] / / ] ] ] ",
"X.B H B B N F m ; N.W.A.W.).[.:XXX4Xh.R U.|.,X$X].!.E.n.w s ] o.B F D F { P P F / V V / / / ] } ] ] ",
"V / V / ] V V F l 4 =.E.E.E.{.'.&X-XL.L.:X[.^._.W.`.>.w h D ] ] / F / / / / / / / / ] V / F ] / / / ",
"B V V / ] V V V P v u =._.(.A.!.~.].].~.F.W.(.E.W.-.r d / } ] B / / / / / / ] ] / F / ] ] / / ] / F ",
"F F B V V B V V P F j 4 ;.(.(.E.E.W.Q.W.W.(.W.A.m.r & x ] I / ] / ] ] F V / / V / F V [ / / / } / / ",
"[ / V V V V / V F B F g < =.`.(.W._.(.W.(.(.A.n.w 6 S  .! B F / V / / V V / F B / / V / B V F [ / F ",
"] / / ] ] / ] V { m P [ g 1 =.W.W.E.W.W.A.W.N.w p V ] P ] H F F B F / F / ] / V / / ] B V B / / ] ] ",
"/ V V / F V ] V / P P ! ] j 4 =.W.E.W.).E.n.%.& D { P m F ] P ] B F / / / / / V V / ] V / F ] V V V ",
"/ B B V M B ] / M ( P B ] ] v 5 ;.A.Q.S.;.9 p ] B / / D H / P F / / / / / F V V B F / / / ] ] / ] ] ",
"F B V / B B ] V / B / H S P P z $ q &.e 5 g F { F F F F V / ] F / F / / ] / ] ] V V V ] F ] / ] / F ",
"F F F / / / F V / V V V V / ] ] M Z k z M B V V F F / / V F / ] / V V B F ] V V F / V / / / ] V ] ] ",
"F V V F / / V V / V V V B V / / ] F V F / ] ] ] F F / / V F / / V B F / ] ] V B V / V / / / ] V V F "
};
