/* XPM */
static char *_dc20b8a125c4c009924c48daed9a414eCpjSDts41dQl7ge[] = {
/* columns rows colors chars-per-pixel */
"50 50 150 2 ",
"   c #020202",
".  c #0B0B0B",
"X  c #121212",
"o  c #1A1A1A",
"O  c #1F2630",
"+  c #252525",
"@  c #252A2E",
"#  c #292929",
"$  c #252733",
"%  c #262B33",
"&  c #292E32",
"*  c #272E38",
"=  c #282F39",
"-  c #2C3135",
";  c #2C323B",
":  c #343434",
">  c #31353C",
",  c #34393D",
"<  c #3A3A3A",
"1  c #2F3640",
"2  c #303741",
"3  c #343A41",
"4  c #383C45",
"5  c #3B3F48",
"6  c #3F4045",
"7  c #3B414C",
"8  c #3F4650",
"9  c gray27",
"0  c #44494F",
"q  c #4C4C4C",
"w  c #4B4D5A",
"e  c #545554",
"r  c #575B5B",
"t  c #5B5D5D",
"y  c #5D605F",
"u  c #5A5F62",
"i  c #5E6261",
"p  c #626463",
"a  c #666967",
"s  c #606568",
"d  c #6B6B6B",
"f  c #646B73",
"g  c #6D717A",
"h  c #737373",
"j  c #7B7B7B",
"k  c #848484",
"l  c #80848D",
"z  c #8D8D8D",
"x  c #868B92",
"c  c #8C9197",
"v  c #8C909B",
"b  c #959595",
"n  c #92979D",
"m  c #9B9B9B",
"M  c #A5A5A5",
"N  c gray67",
"B  c #B3B3B3",
"V  c #BBBBBB",
"C  c #C3C3C3",
"Z  c #CACACA",
"A  c #CCCFD4",
"S  c #CDD0D5",
"D  c #D2D2D2",
"F  c #D6D9DE",
"G  c #DBDBDB",
"H  c #DEE0DF",
"J  c #D7DCE2",
"K  c #D9DDE0",
"L  c #D9DCE1",
"P  c #DADEE1",
"I  c #DBDFE0",
"U  c #DADDE2",
"Y  c #DBDFE2",
"T  c #DBDEE3",
"R  c #DCDFE4",
"E  c #D8DBE2",
"W  c #DDE0E5",
"Q  c #DFE0E5",
"!  c #DEE1E6",
"~  c #E1E1E1",
"^  c #E2E2E2",
"/  c #E4E4E4",
"(  c gray90",
")  c #E6E4E5",
"_  c #E6E6E6",
"`  c #E7E7E7",
"'  c #E9E5E6",
"]  c #E8E6E7",
"[  c #E1E4E9",
"{  c #E2E5EA",
"}  c #E9E9E9",
"|  c #EBE9EA",
" . c gray92",
".. c #EDEBEC",
"X. c #ECECEC",
"o. c gray93",
"O. c #EFEDEE",
"+. c #EEEEEE",
"@. c #EFEFEF",
"#. c gray94",
"$. c #F1F1F1",
"%. c gray95",
"&. c #F3F3F3",
"*. c #F5F3F4",
"=. c #F4F4F4",
"-. c gray96",
";. c #F7F5F6",
":. c #F5F7F6",
">. c #F6F6F6",
",. c gray97",
"<. c #F8F6F7",
"1. c #F7F7F9",
"2. c #F6F7F9",
"3. c #F9F7F8",
"4. c #F7F9F8",
"5. c #F7F8FA",
"6. c #F8F8F8",
"7. c #F9F9F9",
"8. c #FAF8F9",
"9. c #F9F9FB",
"0. c #FBF9FA",
"q. c gray98",
"w. c #FBFBFB",
"e. c #FDF9FA",
"r. c #FCFAFB",
"t. c #FAFCFB",
"y. c #FAFAFC",
"u. c #FBFBFD",
"i. c #FAFBFF",
"p. c #FDFBFC",
"a. c #FBFDFC",
"s. c #FBFCFF",
"d. c gray99",
"f. c #FDFDFD",
"g. c #FEFCFD",
"h. c #FFFCFD",
"j. c #FCFEFD",
"k. c #FEFFFD",
"l. c #FCFCFE",
"z. c #FCFDFF",
"x. c #FDFDFF",
"c. c #FFFDFE",
"v. c #FDFFFE",
"b. c #FDFEFF",
"n. c #FCFFFF",
"m. c #FEFEFE",
"M. c #FEFEFF",
"N. c #FFFEFF",
"B. c #FEFFFF",
"V. c white",
/* pixels */
"r t m.m.m.m.m.m.m.m.m.m.m.m.m.m.m.m.m.$.) ,.m.q.q.m.m.m.q.q.q.q.m.m.m.m.m.m.m.m.X.| q.m.m.m.m.m.m.p ",
"y t m.m.r.m.m.m.m.m.m.m.m.m.m.m.m.q.q.m.q.m.m.m.m.m.m.q.q.q.m.m.m.m.m.m.m.m.m.m.m.q.m.m.m.m.m.m.m.p ",
"i t m.m.p.m.m.m.m.m.m.m.m.m.m.m.m.,.q.m.m.m.m.m.m.m.m.q.q.q.m.m.m.m.m.m.m.m.m.m.m.m.m.m.q.m.m.q.m.p ",
"i t m.m.*.m.m.m.m.m.m.m.m.m.m.q.q.q.m.m.q.m.m.m.m.m.m.m.m.m.m.m.m.m.m.q.m.m.m.m.m.q.m.m.m.m.m.q.m.p ",
"i i m.q.) q.m.m.m.m.m.m.m.m.q.,.q.m.m.m.q.m.m.m.m.m.m.m.m.m.m.m.m.m.q.X.X.q.m.m.m.m.m.m.m.q.q.q.m.p ",
"i p m.,.| q.m.m.m.m.m.m.q.q.q.q.m.m.m.m.m.m.m.m.m.m.m.m.m.m.m.m.m.m.q.$.$.m.m.m.m.m.m.m.q.q.q.m.m.p ",
"t t m.m.r.m.m.m.m.m.m.m.q.,.q.m.m.m.m.m.m.m.q.m.m.m.m.m.m.m.m.m.m.m.m.q.m.m.m.m.m.q.m.q.,.m.m.m.m.p ",
"i t m.m.m.m.q.m.m.m.m.q.q.q.m.m.m.m.m.m.m.m.m.m.m.m.m.m.m.m.m.m.m.m.m.m.m.m.m.m.m.m.m.q.,.m.m.q.q.p ",
"t r m.q.m.q.m.m.q.m.m.m.m.m.m.m.m.m.m.q.,.$.q.m.q.m.m.m.m.m.m.m.m.m.m.m.m.m.m.m.m.q.m.m.m.m.m.m.m.t ",
"t t m.m.p.m.m.m.m.q.,.q.m.m.m.m.m.m.q.$.$.,.m.m.m.m.m.m.m.m.m.m.m.m.m.m.m.m.m.m.X.X.q.m.m.m.m.m.m.i ",
"i t m.m.q.m.m.m.m.m.m.m.m.m.m.m.m.m.q.$.,.m.m.q.m.m.m.m.m.m.m.m.m.m.m.m.m.m.m.m.,.$.m.m.m.m.m.m.m.t ",
"i t m.m.p.m.m.m.m.m.m.m.m.m.m.m.m.m.m.q.m.m.m.q.m.m.m.m.m.m.m.m.m.m.m.m.m.m.m.q.m.m.m.m.m.m.m.m.m.t ",
"t t m.m.p.m.m.m.m.m.m.m.m.m.m.m.m.m.m.m.m.m.m.m.m.q.m.m.m.m.m.m.m.m.m.m.m.q.q.m.m.q.m.m.m.m.m.m.m.t ",
"t i q.m...m.q.m.m.m.m.m.m.m.,.X.m.m.m.m.m.q.q.m.q.$.q.m.m.m.m.m.m.m.m.q.q.q.m.m.m.q.m.m.m.m.m.m.m.t ",
"i p q.q.] m.q.m.m.m.m.m.m.q.X.^ m.m.m.m.m.m.m.m.q.| q.m.q.m.m.m.m.m.q.q.q.q.m.m.m.m.m.m.q.m.m.m.m.t ",
"i p m.m.<.m.m.m.m.m.m.m.m.m.m.m.m.m.m.m.m.m.m.m.m.$.m.m.m.m.m.m.m.q.q.q.m.m.m.m.m.q.m.m.m.m.m.m.m.p ",
"t t m.m.p.m.m.q.m.q.m.m.&.m.V j ,.G B m.m.m.m.m.m.m.m.m.m.q.m.m.V ) $.j V m.q.m.m.m.m.q.m.m.m.q.s.p ",
"i t m.m.m.q.m.m.m.q.m.q.m.X.h   z D p Z q.m.m.m.m.m.m.,.m.m.m.Z d C z . p | m.q.m.q.m.m.q.q.m.m.m.p ",
"i t m.m.m.q.m.m.m.m.m.q.k G V B m.+   e q.m.m.q.m.,.m.m.m.q.m.e   + m.B B ) k m.q.X.m.m.m.m.,.m.t.i ",
"y t m.m.m.m.m.X.V #.q.m . t o t t q D q B m.,.m.m.m.m.m.,.m.V 9 Z r r p X t   m ) G C ) m.m.m.,.m.p ",
"i y m.m.m.m.m.X.<   N q.h G r B o r B b d ,.m.q.m.m.,.m.q.m.d b B q o V p D j q.B   : q.q.m.m.m.m.p ",
"i t m.m.m.q.m.m.G k M # e N a G 9 q.k o   Z m.m.q.m.m.m.q.Z   X k m.q G d N e + m z D m.q.m.m.q.5.t ",
"t r m.m.q.,.m.m.q.b B # d : + r : h . B B e q.m.,.m.,.,.m.e B C . d X # + : h # V m $.m.m.q.q.m.t.p ",
"r t m.q.3.m.m.q.m.B   e m.k G m G M < ) m.d m m.q.G ,.m.m d ,.) 9 m G k D k m.e   M m.m.m.m.,.q.m.p ",
"t r ,.q.m.m.m.m.m.m.G ,.t . m . M X.m.m.m.m.p $.m.,.m.$.d q.m.q.m.X.N . z . r q.D m.m.q.m.q.m.m.m.p ",
"i t q.q.m.m.m.m.$.m.Z < : N N . Z m.m.$.m.q.N m m.q.m.m M m.q.m.q.m.D . N B : : G q.,.,.m.q.m.m.m.t ",
"i y m.m.m.m.m.m.m.m.,.j . N ^ | m.m.m.m.m.m.m.p $.m.,.p m.$.m.q.q.m.q.) ) M . h ,.m.m.m.m.m.m.m.m.t ",
"i y m.m.m.m.m.m.q.^ m.m.q.X.,.m.m.,.m.m.,.,.m.M z m.b N q.q.m.) m.,.m.m.m.X.q.q.m.m.m.m.m.m.m.m.m.i ",
"t t m.m.m.m.m.m.m.| X.m.m.m.m.m.m.m.m.q.m.m.q.m.j Z h m.m.,.X.,.q.m.m.q.m.m.m.m.m.q.q.m.m.m.m.m.m.t ",
"t t m.m.m.m.m.m.m.m.m.m.m.m.m.m.m.q.q.,.m.m.q.m.C < C ,.q.$.,.m.m.q.m.m.q.m.q.,.m.m.m.m.m.m.m.m.m.t ",
"t t m.m.m.m.m.m.q.m.m.m.m.q.m.m.m.,.m.m.m.m.m.q.m.V m.q.m.m.m.m.m.m.m.m.m.q.q.m.m.q.m.m.m.m.m.m.m.i ",
"i y m.m.m.m.m.m.m.q.m.m.m.m.m.q.m.q.q.m.m.m.m.m.m.m.m.m.m.q.m.m.m.m.m.q.q.q.m.m.m.m.m.m.m.m.m.m.m.p ",
"y t m.m.m.m.m.m.m.q.m.m.m.m.q.q.q.m.m.m.q.m.m.m.q.m.m.m.m.m.m.m.m.m.m.q.q.q.m.m.m.m.m.q.m.,.^ q.m.p ",
"i p m.m.m.m.m.m.m.m.m.m.q.m.m.m.m.m.m.m.m.m.m.m.m.m.m.m.m.m.m.m.m.q.q.q.m.m.m.m.m.m.m.q.m.q.X.m.q.t ",
"i i m.m.m.m.m.m.m.q.m.q.$.q.m.q.m.q.m.m.m.m.q.m.m.m.m.m.m.m.m.m.q.q.q.m.m.m.m.m.m.m.m.m.m.m.q.m.m.p ",
"t t m.m.m.m.m.m.m.q.m.m.q.m.m.m.m.m.m.m.m.m.m.m.m.m.m.m.m.m.m.m.q.q.m.m.m.m.m.m.m.m.m.m.m.m.m.m.m.p ",
"t t m.m.m.m.m.m.m.,.q.m.m.m.m.m.m.m.m.,.,.m.m.m.m.m.m.m.m.m.m.m.m.m.m.m.m.m.m.m.m.m.m.m.q.m.m.m.m.p ",
"t t m.m.m.m.m.m.,.X.$.q.m.m.q.m.m.m.m.$.X.q.q.m.m.m.m.m.m.m.m.m.m.m.m.m.m.m.m.m.m.m.m.m.m.m.m.m.q.y ",
"t t m.m.m.m.m.m.m.,.q.m.m.m.m.m.m.m.m.q.q.m.m.m.m.m.m.m.m.m.m.m.m.m.m.m.m.m.m.m.m.m.m.m.m.m.m.m.m.a ",
"p p m.m.m.m.m.m.m.m.m.m.m.m.m.m.m.,.m.m.m.m.q.m.m.m.m.m.m.m.m.m.m.m.m.m.m.m.m.m.m.m.q.m.m.m.m.m.m.p ",
"t t m.r.r.m.r.m.m.m.m.m.m.m.m.m.2.q.m.m.m.m.m.m.m.2.m.m.u.m.m.m.m.m.m.m.m.m.m.m.m.m.m.m.m.m.m.m.m.p ",
"t p ,.m.] m.m.m.m.m.m.m.m.q.q.,.m.m.m.m.m.m.m.m.,.X.q.m.m.m.m.m.m.m.m.$.$.q.m.m.m.m.m.m.m.m.m.m.m.y ",
"y t q.r.) ,.p.m.r.m.m.m.p.q.q.r.q.m.m.m.m.m.m.q.,.X.q.m.m.m.m.m.p.m.p.X.X.r.m.p.m.m.p.p.m.m.m.m.s.e ",
"i i m.q.m.m.m.m.m.m.m.r.3.3.p.m.m.m.m.m.m.m.m.m.m.q.m.m.m.m.m.m.p.p.p.p.m.m.m.m.m.m.m.m.m.m.m.p.m.p ",
"a a ,.m.q.m.m.2.m.m.m.q.,.q.m.m.u.m.m.m.m.m.m.m.m.u.m.m.m.m.m.m.u.2.u.m.m.m.u.m.m.m.m.m.m.m.m.m.t.p ",
"t e m.m.5.m.m.m.m.m.m.m.m.m.m.m.u.m.m.m.m.m.m.m.m.m.m.m.m.m.s.m.m.m.m.m.m.m.m.m.m.m.m.m.s.m.m.m.m.e ",
"i t P F Q F E J F F P P P P P P { Q F S A F Q { R P Q P R R F F R Q Q P P R Q P P P R R P P P Q H a ",
"i t - - 6 - 0 4 , , , , > - - & & - - & % & & % - - - % & - @ & & & & - - - & & & - > , > - - - # t ",
"i r % w v x v n l l g x f O ; ; * * * * * * * * * * * * * * * * * = = * * = = * ; ; 7 8 7 7 7 1 - s ",
"t i $ > 7 ; - 3 - 4 > 5 2 $ ; O * * * * * * * * * * * * * * * * * = = * * = = * % % ; 1 ; ; 2 ; % u "
};
