/* XPM */
static char *a11471b0d6ba490cc4c7d38e5cf3b768Xm9AlM4vOPW2us2J[] = {
/* columns rows colors chars-per-pixel */
"50 50 40 1 ",
"  c #5A5E5D",
". c #5A5D5C",
"X c #606463",
"o c #5D6160",
"O c #5E6261",
"+ c #5E6160",
"@ c #575B5A",
"# c #646867",
"$ c #5B5F5E",
"% c #595D5C",
"& c #585C5B",
"* c #5F6362",
"= c #636766",
"- c #5C605F",
"; c #626665",
": c #5D605F",
"> c #5B5E5D",
", c #5C5F5E",
"< c #616564",
"1 c #5F6261",
"2 c #595C5B",
"3 c #606362",
"4 c #565A59",
"5 c #555958",
"6 c #616463",
"7 c #585B5A",
"8 c #5E6161",
"9 c #626564",
"0 c #545857",
"q c #646766",
"w c #696D6C",
"e c #666A69",
"r c #656867",
"t c #555857",
"y c #565958",
"u c #656968",
"i c #575A59",
"p c #636665",
"a c #535756",
"s c white",
/* pixels */
" ..XoO+o@o#o$#o%%%OO+&@%o$*oo=*$-oO$**o-o*$O*;=:=*",
" .-o;o>-o&$O *$-o,-:O*%$O&$ooo*OoO<<-*O=:oOO,*XO1O",
"%-* $XO,*ooO&OO2$X$ O*= $   $o$*O$*+-1$O=-*o&$OO=<",
"O-o$@<X-;o$<$XX%O3*$o%O<o-$ XX$oXO$,-o$&X*+**Oo-X*",
"X$*1,O* o<$o$.$&%XO-*X$o<$Oo*X: $*o$ -&o.$-$-O=&o-",
"O-O+$-#X-%<o-<1 @4@$+O $X+$-$-*OoO3XXO1*=3$-OoO<-o",
"-%$%$$O<*$Xo<O --*<% O$>oo**-**-O-=&:oO *<-1;:OXX*",
"O$%-oo oOoO&*= 5@@$;:,*->$<*Ooo$$-O*$ooO-*o*o$-*6o",
"  --$O--o<*@7;o@$*@O;  o-%-$1*oO:--o***$O$-*8o=O-$",
" $O*< %- O*o oO,&X;oO-O$9O o*;X*-Oo--o**OXoo=$1* O",
"--*@OXoO1OOo*<OXoO X*O--$X69OX<o*<$%---*oOXoO $OO,",
"o$Xo%%&oX<o $-@@$<& ,<o4% $XX-O Oo*%o O&o%OX<-*OO ",
"-***O%0$-+1O*--5-Oooo%;* - 6q<OO<o= oO<-**$o**<o$O",
"&$%$ o-&o% 5-*;&>-4 o -o$o -;<*-XO=,$<***O$$oOO;;+",
"O-+>-9+$o*X-* -o-X$<--XO $ OX;<X-$O=%&-o$O*o,o1O--",
"+*o$$Oo@**o$XX$$X %-<$1X$ o-OO-X< o<<-%--oX- o**<<",
" $*%&$$%o%4-%-*-X--O-153X$&$3-&,$%1*X<*oO$oO-o*o-$",
"X%*6+o$$+-.-< %%$ $*-O%&$o-$X<&o*o*X$%*X=O1XXo;;6<",
"- o-*X@o6O- X*% *6$ .oO*o- ;=q*XOoO-<$*:X,.;w=XX+-",
"-7O-oO&&*>o>X- o OoX$4$ $-o%XX$-oX*4o%o o> *e<oO*<",
"X$ &$-o%o$ -<:&>* % rX$%&$o--<o$O <- *oOoX=-X*6#O3",
"oo-$%-$4<*%-oXo *;;&o<$$%.$ooo-O*%-o-o$-*$,<>$-$-$",
"t. O%OX -  &2% $o$--%o-O*$O*% %:;OO.-=O**,-X<*;-**",
"oy&-%%2%*Oo$O-$&o%.5$- -  o:*Xo--+*q<=u;*Ooo*X*O=<",
"&%@4- @4%-% o&o$%Oo$$9O-*o--*oX-:oO- %$-$o-O%OO*OX",
"-$o-&&-$-*.4Oo@$0% .X%,4%*O-XO *-OX3O+ +<* *X*OO- ",
"O$-- %- -O%$O%5$ *1&oXX&y& %-o %X-O<<<$$X>$-o;-o +",
"-@-*o%*O&o$5Xo%$OX  oO*#$%>,O-. -=o,-XoOXoOO O*#*X",
"$o% -&&$ *6&&-*2O*%%%,21OOO$OOoo&<*%*oO-O$OX;1X6o-",
"%@, ---$ oOOo41-$+$ %---o-oX-$ooo$- XO oooX3:O<X1o",
",-$%%OO$$oOOo%OOOo$9+$$ $O-*<X*XO<%o*<XXX OX%Oo;;O",
"O-$$O%o-$O o &%%*-% < <$$o--OX-XOX*OoOOXo-o*OX OX<",
"-&-4*$X*o *X:$* *o -;$X$%-$Oo;---;o*o*-oo$*X-*- o<",
"<XX$%%% o O**%o %:o@OOoo-ooo<#o%O-*o<$O=XX<-***<*%",
"o---O O& O$ X& -o$%.$*O- X---Xo =-X%o-, *1X;<X<#<<",
">o&%-&X-ioO-OX*$$----&o-:O*;**o =O1oO$X-$::OXXoXo3",
"%--&o&$*$%o*$oO*o%o*9*O+@-&O<X-$&o-o$  oooO**o-*<*",
"&yo O=o <-%o:-2ouo&-*oX*4oo--$oXOoO*$OOO*O,3<OOO$$",
"*7$%&oO$@-&*3 < #<@ O&O*o %==X$&-;%O<o< *<*<1oO*<;",
"Xoo-&@1X-3$>o5-$$O %Xo,:$o-o$o*X *< 3-o>oO%-6O*#;*",
" +oop&-o$O-&-o$+o$O *:o*@&&o$*-X*$*1:OOO*OX$*OO***",
"%$$-*O&&&&** -o&-@-7-4-o$o-oX;Xo-*OX*X1< $O;-*<X,-",
"-  %4 O&  -<o-O$X9o $O--1$%%$ o6XO< ->$-Oo-;XoO<o-",
"#o>*%%OO$>&o% $%$-:%O%oo$2-OOX$$>3o--X*&<o:->$OeX-",
"X9-*oo*-O%$$@@: &>-*<o$ :@%&$O&* o<o:O*$--* $&+o*O",
"o%$*1X* -2$OXX%:o&o+%O-$-O$O4*-+@>ooO>o --=-3-1$o&",
"o0a$47*$$-*.%$-OXo *X$*-&-%*-o$o<%*o;oo.2$-o$<*X=*",
"-$%o %XOo@$X &$ %OXO+ -X:OO$$X3>:Xo+*13<%-$OOXO*O$",
"o->oXo--< &o-O<<%---$& ,,Oo---*;oo@@*$$O*-oOO**,O#",
"$$$$O- %o ->@%-1-oOoO-o*-o $-oOO @O:<;%4@$%O*OX%o-"
};
