/* XPM */
static char *d08e8521df3945aaaaa4038938126b401UJUAf60Ya7KJq8o[] = {
/* columns rows colors chars-per-pixel */
"50 50 212 2 ",
"   c #5E6718",
".  c #6C751E",
"X  c #676E29",
"o  c #636A24",
"O  c #776C25",
"+  c #6C7324",
"@  c #6F7923",
"#  c #6F762C",
"$  c #747B24",
"%  c #71732D",
"&  c #737B29",
"*  c #7D7C2D",
"=  c #7B7427",
"-  c #7C7331",
";  c #737A33",
":  c #7C7E35",
">  c #767B39",
",  c #7A7C3C",
"<  c #7D7D41",
"1  c #81742D",
"2  c #847B2C",
"3  c #847B32",
"4  c #8A7D35",
"5  c #857C39",
"6  c #8C7D39",
"7  c #847535",
"8  c #907E39",
"9  c #897F48",
"0  c #877F43",
"q  c #927C43",
"w  c #987B48",
"e  c #A07F52",
"r  c #7C8525",
"t  c #7D832B",
"y  c #7A8426",
"u  c #7E8533",
"i  c #7E8933",
"p  c #7E843A",
"a  c #738231",
"s  c #7E8642",
"d  c #7F8845",
"f  c #82842C",
"g  c #848C2D",
"h  c #8A892F",
"j  c #86922E",
"k  c #89922E",
"l  c #838433",
"z  c #8B8435",
"x  c #848A33",
"c  c #8C8B34",
"v  c #82843B",
"b  c #8D853B",
"n  c #858B3B",
"m  c #8D8C3B",
"M  c #908D36",
"N  c #92853D",
"B  c #938B3C",
"V  c #918636",
"C  c #869132",
"Z  c #8C9335",
"A  c #8D9B35",
"S  c #85923D",
"D  c #8D933B",
"F  c #8F9A3A",
"G  c #919336",
"H  c #93943C",
"J  c #99943D",
"K  c #949B3D",
"L  c #999C3E",
"P  c #96A13D",
"I  c #98A43E",
"U  c #848344",
"Y  c #8D8341",
"T  c #848945",
"R  c #8B8D43",
"E  c #858549",
"W  c #8C854A",
"Q  c #858B4B",
"!  c #8C8B4B",
"~  c #948442",
"^  c #998644",
"/  c #958C43",
"(  c #9A8C44",
")  c #94864A",
"_  c #9B844C",
"`  c #948C4C",
"'  c #9B8C4B",
"]  c #8C9443",
"[  c #8D934B",
"{  c #8E9A4C",
"}  c #899743",
"|  c #959443",
" . c #9A9444",
".. c #959A43",
"X. c #9A9B44",
"o. c #94934C",
"O. c #9C944B",
"+. c #959A4A",
"@. c #9C9B4B",
"#. c #8D8B53",
"$. c #8F8D5D",
"%. c #9D8652",
"&. c #918D55",
"*. c #9D8C52",
"=. c #9A8D5D",
"-. c #948B5B",
";. c #8D9352",
":. c #939354",
">. c #9C9452",
",. c #949C53",
"<. c #9C9A53",
"1. c #94935B",
"2. c #9B955C",
"3. c #9E9C5A",
"4. c #969B59",
"5. c #A18C4C",
"6. c #A18F47",
"7. c #A19D45",
"8. c #A1944D",
"9. c #A29B4D",
"0. c #A09546",
"q. c #A18454",
"w. c #A38D54",
"e. c #A88F57",
"r. c #A58E59",
"t. c #A88E59",
"y. c #A39353",
"u. c #A89453",
"i. c #A39B53",
"p. c #AA9C55",
"a. c #A4935A",
"s. c #AA955B",
"d. c #A49A5B",
"f. c #AB995B",
"g. c #B0975F",
"h. c #97A141",
"j. c #9CA244",
"k. c #9DA944",
"l. c #95A14E",
"z. c #9CA24B",
"x. c #9FA84F",
"c. c #9CA153",
"v. c #9BA058",
"b. c #A1A246",
"n. c #A3A44C",
"m. c #A4AA4B",
"M. c #A5A84B",
"N. c #A3A352",
"B. c #ACA455",
"V. c #A6AB51",
"C. c #ABAB55",
"Z. c #A4A35D",
"A. c #ADA45B",
"S. c #A3A95F",
"D. c #B2AB5A",
"F. c #8D9460",
"G. c #9F9360",
"H. c #9C9C66",
"J. c #AB9362",
"K. c #AD9A64",
"L. c #A49E60",
"P. c #B19964",
"I. c #A6A562",
"U. c #A8A767",
"Y. c #AEAC65",
"T. c #AAA86B",
"R. c #AEBA6B",
"E. c #B7B46F",
"W. c #ACAB74",
"Q. c #BAAF7C",
"!. c #B3B174",
"~. c #B7BB75",
"^. c #B2B278",
"/. c #BBB47C",
"(. c #BCBC7C",
"). c #B9BA77",
"_. c #C3B879",
"`. c #BEC27C",
"'. c #B8C979",
"]. c #BDB583",
"[. c #B6BE84",
"{. c #BBBB84",
"}. c #BDBD8C",
"|. c #B3B586",
" X c #C1BE85",
".X c #C1BD8D",
"XX c #C2B685",
"oX c #C7BA90",
"OX c #BEC384",
"+X c #BEC389",
"@X c #BFCD80",
"#X c #BEC496",
"$X c #C3C484",
"%X c #C4CA85",
"&X c #C2C38E",
"*X c #C5CA8D",
"=X c #CBCD8C",
"-X c #CAC58B",
";X c #C7D18A",
":X c #CDD08D",
">X c #C4C392",
",X c #CBC791",
"<X c #C7CC91",
"1X c #C9CB92",
"2X c #CDCF9E",
"3X c #D1CD99",
"4X c #CDD392",
"5X c #CFD39A",
"6X c #D1D59C",
"7X c #D4D8A3",
"8X c #E3E4BB",
"9X c #EFF1C0",
/* pixels */
"8X|.&X{.!.T.!.(./.]./.Q.Q./.XX/._._.).E.).(.$X.X]..XoXXX].(._.(.OX[.).^.^.^./././.{././././.^.W.W.7X",
">X$.H.#., % - v U ` &.9 9 ) W 7 - 7 5 v R [ :.#.-.=.=.-.&.=.:.:.E Q Q U , , 0 #.! E 0 E E E W &.#.|.",
"2XH.W.Z.! l v / v ` ` 0 Y *.' 5 N /  .+.<.c.3.3.2.G.G.2.a.d.i.>.o.Q U T ! ` ` ) >.` ` >.3.>.d.!.1.}.",
" X#.v.<.R l l l l b Y 5 Y O.y.( / / / | | ..+.+.:.>.a.a.a.>.>.O.<.o./ o.i.i.` Y ~ ~ ' i.i.>.i.U.H.>X",
"$X! +.| m f f f m B / / / O.i.i.B B B G H ....@./ >.f.s.a.*.*.>.Y O.i.i.( b 4 3 ~ ' i.i.i.i.i.3.1.}.",
"%XR R x x g h c m m / O.( N N / V V M G H G Z B b / w.w._ ~ ~ ' N O.p.p.y.( ( ( ( 8.i.8.8.i.i.>.2.>X",
"%Xn ] m Z Z G H H @.i.i.8.( ( O.8. .J H K Z Z M  .8.u.u.w._ _ w.~ N ^ ( 5.8.6.( 6.8.8.9.i.9.9.<.1.&X",
"`.R +.| H Z c c B 9.B.O.' O.y.8.A.9. .H G Z G J 9.8.5.5._ _ _ w.8.y.u.5.^ N ( 8.( N ( i.p.O.O.>.&.}.",
"$Xn n ..X.H 7.H | O.` ' y.y.' ' O.y.@.| Z K K H 0.5.5.5._ w.s.w.' u.^ 8 5.5.( p.( N ^ O.' / O.>.#.}.",
"`.p v | @.X.n. .O.' ' a.f.*._ s.y.>.O.m G X.X.| 8.8.u.e.w.t.s.w.s.u.~ 8 p.u.^ ' u.' ' d.O.` ' ` #.}.",
"`.: v | z.n.C.i.O.' *.a.J.%._ s.a.>./ m H @.@. .' ' w.s.r.s.s.w.f.d./ ' f.p.^ ~ ' ~ ' y.y.>.>.>.&..X",
"(.; v m ..@.N.N.O.d.a.*.a.a.r.r.s.8./ m ..z.@.O./ ) *.w.w.a.s.y.>.i.y.y.f.8.~ ~ ~ 6 ~ O.>.O.i.2.1.>X",
"~.% u l x D  .9.O.d.a.=.J.K.J.a.y.8. .|  .@.+. .' ) ' *.' ' i.8.O.<.i.i.y.O.' 8.~ N / O.O.O.O.>.1.,X",
"~.# v l x H | @.O.' ' a.P.J.r.s.8.8.O. .X... ./ >.) ) ~ N N  . .@.@.@.i.i.i.d.i.' / O.8.O.O.i.>.1.>X",
"~.+ u x D X.X.@.O.' *.a.K.r.%.w.u.0.8.@.@.@.+.o.>.) ~ ~ z V J J N.@.@.@.i.i.i.9.O. .O.O.O.9.i.<.&..X",
"R.  & t H n. . ./ f.K.a.s.s.a.' p.9.0.7.9.i.O.>.d.' ' ( B J 7.b.z.@.c.c.@.@.i.9.8.O.O.O.O.O.i.>.&..X",
"R.a i n z.N.@.O.O.f.*.) a.d.' y.n.n.V.B.i.' y.f.s.s.u.( B J J G j.x.N.X.@.i.i.8.( ' 8.8.O.O.O.i.&.&X",
"'.} l.l.N.N.9.p.' f.y.` i.i.O.i.D H X.7.O.' w.e.w.g.p.( z h G L h.z.n.z.@.n.i.O.p.p.u.' y.i.d.>.#.}.",
"@X{ c.l.N.@.O.i.( d.y.' y.>.O.N.Z Z X.9.i.O.' 5.w.5.~ z z J L K K ..z.z.n.9.O./ 8.y.8.' 8.i.i.>.#.}.",
"%X[ { +.N.9. .O.O.d.i.>.>.O. .@.X.L n.N.i.8.' ' _ 6 O = M 7.L k C Z K X.X.X. .B ( ( O.8.8.+.O.<.&.&X",
";X,.c.c.C.N.O.O.y.y.>.>.<.@.....b.j.b.n.0.( ~ ~ 7 1 = * f c Z k j C C H X. . ./ O.N V 8.9./ / <.1.>X",
"%X,.S.v.N.X. .i.i.O.O.O.@.@.X...b.j.X.X. .B b b 7 4 b z h f g j C g g H X. . . .8.4 1 b  . . .i.:.>X",
"OX:.Z.c.@.| B @.@.+.O.<.@.....K j.L L J B z 4 6 b b z c c x g g Z g g H X.J  . .B z 3 z /  . .@.:.&X",
"%X:.<.<.N.@.| X.@.@.@.i...D | K L L L H c 2 2 3 3 3 3 l x g g C Z g g H X.H B B B 8.p.O.B B B / :.&X",
"$X:.I.N.@.| | X.@.@.@.@.@.z.X.X.K j.7.G 2 2 3 z = O O * x x C Z Z H H H H  . .( B O.8.O. .| H | :.&X",
").Q 3.c.z.X.X.| X.@.+.@.@.X...K K j.X.H z z B  ./ b * * f f y y g D ..X. . .8.( ( ( ( ( / B | +.:.&X",
").U o.+.z.z.X.K @.@.@.@.@.X.X...j.j.j.H B B  .O.@./ l * l x x t x | @.9.O.O.8.8.5.( ~ ~ / / O.i.1.&X",
"$XT R m ..X.X.X.@.@.X...X.X.X.X.K L L H H | O.O.O. .b l l H H m ..@.9.9.O.O.u.u.u.w.' ' O.y.i.Z.1.1X",
"%XR R m H h.j.X...| | | | | H H f h G G |  .O.O./ O./ m b B H m @.O.>.>.y.y.u.u.s.u.u.y.f.y.i.d.1.,X",
"$XR +.| X.j.h.K K H | | | | | H h c H H |  .O. ./ O.O./ / m B / O.' O.i.s.u.w.w.e.w.u.s.s.y.>.>.2.1X",
"$X[ c.z.z.h.K K K | | ..@.X.X.X.K j.n.7. ... ./ O.O.O.O.( / / O.' >.y.a.s.w.w.t.t.w.r.s.a.*.*.2.2.1X",
"%Xo.v.l.j...K K H | |  .+. . . .n.V.C.N.@.@.9.i.p.8.O.8.8.' ( O.a.s.s.s.w.*.w.s.s.u.a.f.a.' >.d.1.&X",
"=X[ c.+.@.K c f l B O.O.B z B  .V.C.z.z.@.X.9. .i.N ' 8.' _ q _ q.J.J.s.s.s.y.y.O./ / o.O.Y b Y #.1X",
";X[ ,.+...| c z z B O.O./ V B X.j.x.....X.H  .B / / 8.' ^ w.%._ w e q._ u.y.+. .l l l b m m b b E &X",
"%X[ ,.+.@.| c f B B ( O.O. . . .X.z.j.z.j.X.X.B  .N ( ^ *.f.w._ q.r.*.' O.O.m x f g f t f l l : < }.",
"OXT [ ] | |  . . ./ N  .9. .J M K z.j.M.n.j.7. . .4 ^ u.u.e.q.r.w.u.' / O.@.| H Z C g r r r f l , {.",
"$XU v * l | N.D.8.( / O.O./ M c Z K K z.b.X.7. .B 4 8.f.w._ q.P.w.y.' b B H D K P j j A Z g g Z , {.",
"$XR R v b H  .9.O./ ( 8. .V z M Z h.h.M.n.n.n.7.V z ( ' w.g.t._ s.p.O.b z x x Z k.A A k.k.j r x s +X",
"$X! <.+...| B B 8.B N 8.9. .B G K k.b.m.m.n.V.n.B 2 8 ~ w.P.w.q ' ' / b B | ..j.k.P I m.k.k r r T &X",
"$XQ :./  . .8.0.B.V 1 / A.B. .c Z h.h.b.b.j.n.7.2 = ~ 8.' _ w w.w.8./ b | X...K h.K K P K Z g x Q *X",
"-X&.>./ /  .9.9.O.O.O.B z @.C.X.C D K ..X.j.n.n.0.O.N 6 N ' _ ~ ^ ' ' / / m B X.G K L K Z Z Z D :.&X",
"{.! >.o./  .0.0.9.O.O.+. .X.n.n.D F K ..X.j.b.n.X.B z 4 6 6 ~ ' ' / N / O.+./ | | X.X...H H H | 4.<X",
" X&.d.<.O. .@.0.9.O.O.@.@.m m X...K K K K ..X.X.X.m z B / b / d.8.' ~ / O.O.m z +.@.@.X.| | X.@.4.*X",
",X2.L.<.O.+.O.O. .+./  ...l * Z F K ..K H D H H H G | @.9.O.O.i.O.i.O.O.@.+./ | @.@.@.@.....@.c.;.+X",
"3X:.3.<.<.@...| / +.| m ] x $ t x Z H H D Z D H Z H H ..@.@.@...@.@.@. .9.N.N.C.+.+.@.+.| | +.c.;.+X",
",X&.d.Z.A.N.+.| R | R n n x y @ $ t x Z D D D K Z D D c D ....D z.X.D m @.n.z.@.| | ..| ] D ..c.[ +X",
",X1.I.Y.Y.Z.@.../ m n l u i t . . $ $ t x C Z C Z C C Z Z D D ..z.j.H C K ....] D D ] ] D S D +.Q [.",
"1X1.U.U.I.3.@.+.+.v v n p n i @ @ + + & u x u t x i x ] D x n ....x.z.......+.c.] ] } } } S } { Q [.",
"{.1.1.#.1.E E ! , , > > T Q T T s p ; X o X # ; v v v v p p p v [ [ R R T T T T T Q T U T s d ;.F.|.",
"9X2X2X1X6X1X1X5X*X*X&X*X6X6X5X5X4X4X<X+XOX$X*X*X4X4X4X4X:X=X:X:X=X=X=X%X=X=X=X=X<X4X<X=X<X*X<X7X#X8X"
};
